<svg width="953" height="916"   xmlns="http://www.w3.org/2000/svg">
<path d="M952.5 458C952.5 710.652 739.406 915.5 476.5 915.5C213.594 915.5 0.5 710.652 0.5 458C0.5 205.348 213.594 0.5 476.5 0.5C739.406 0.5 952.5 205.348 952.5 458Z" fill="white" stroke="#00E5FF"/>
<path d="M422.013 248.959C424.802 248.94 427.591 248.921 430.465 248.902C433.521 248.894 436.578 248.887 439.728 248.88C442.95 248.863 446.172 248.845 449.492 248.827C460.18 248.775 470.868 248.744 481.556 248.717C485.205 248.707 488.853 248.696 492.612 248.685C509.934 248.635 527.255 248.596 544.577 248.574C564.539 248.548 584.5 248.479 604.461 248.371C621.775 248.282 639.089 248.25 656.403 248.24C663.755 248.227 671.106 248.196 678.458 248.147C688.756 248.082 699.052 248.085 709.35 248.103C712.378 248.069 715.406 248.035 718.526 248C736.44 248.117 750.197 250.186 765.087 259.958C775.022 269.5 777.261 277.332 778 290.292C777.486 302.503 774.895 310.14 767.01 319.797C749.749 333.64 732.365 332.62 710.802 332.343C707.496 332.332 704.191 332.321 700.785 332.309C690.259 332.265 679.735 332.165 669.209 332.063C662.06 332.024 654.91 331.987 647.761 331.955C630.262 331.867 612.765 331.734 595.267 331.566C595.062 333.939 595.062 333.939 594.853 336.359C593.225 353.441 590.271 369.995 586.588 386.785C586.026 389.396 585.465 392.008 584.887 394.699C583.112 402.941 581.318 411.18 579.523 419.419C578.307 425.048 577.093 430.676 575.88 436.306C572.922 450.018 569.949 463.728 566.963 477.435C568.715 477.427 570.466 477.419 572.27 477.41C575.714 477.401 575.714 477.401 579.227 477.391C581.504 477.383 583.78 477.375 586.126 477.367C601.612 477.533 613.876 479.699 626.047 488.872C635.962 500.623 641.702 508.469 641.186 523.745C641.07 527.946 641.07 527.946 640.952 532.231C640.82 535.154 640.688 538.076 640.552 541.087C640.445 543.935 640.338 546.783 640.228 549.717C639.847 558.886 639.382 568.048 638.894 577.212C638.719 580.558 638.544 583.905 638.363 587.352C637.992 594.384 637.616 601.416 637.235 608.448C636.754 617.356 636.297 626.265 635.847 635.175C635.406 643.813 634.937 652.449 634.471 661.086C634.315 664.231 634.158 667.376 633.997 670.616C630.687 729.708 630.687 729.708 619.501 740.661C605.543 749.594 591.812 749.248 575.454 747.955C561.673 743.569 550.945 736.413 544.321 724.085C542.345 712.352 542.736 700.794 543.083 688.944C543.156 683.795 543.156 683.795 543.232 678.542C543.952 637.096 546.919 595.689 549.981 554.347C548.136 554.393 546.291 554.44 544.39 554.487C523.962 554.772 504.386 553.023 484.176 550.369C457.737 546.943 457.737 546.943 431.108 546.391C430.144 548.962 429.181 551.533 428.189 554.182C417.945 580.954 405.743 606.168 391.483 631.26C390.601 632.838 389.719 634.417 388.81 636.044C354.082 697.787 300.897 760.651 230.154 787.737C217.726 790.532 207.982 788.559 196.721 783.096C185.542 775.701 180.669 770.628 176.378 758.563C174.455 747.038 173.72 736.613 179.805 726.147C190.399 714.052 202.701 706.633 217.108 699.004C276.094 666.32 313.618 599.669 338.06 541.418C338.966 539.37 339.871 537.321 340.804 535.21C346.185 521.722 346.279 513.162 342.146 499.363C339.412 489.143 339.577 478.969 339.652 468.484C339.66 466.286 339.668 464.089 339.676 461.825C339.985 444.8 342.914 429.852 349.028 413.783C350.175 410.088 351.299 406.387 352.389 402.677C353.148 400.216 353.907 397.754 354.689 395.218C340.106 405.057 326.354 415.55 312.764 426.547C238.842 486.356 238.842 486.356 213.338 485.961C200.408 484.697 192.507 479.489 183.984 470.639C177.788 462.252 175.89 457.674 175.67 447.598C175.561 444.624 175.561 444.624 175.449 441.589C177.653 425.951 186.747 416.403 199.02 406.324C201.801 404.033 204.581 401.743 207.445 399.383C217.846 391.097 228.357 382.96 238.977 374.923C247.929 368.091 256.74 361.119 265.533 354.11C279.258 343.179 293.133 332.442 307.104 321.786C315.964 314.96 324.72 308.026 333.461 301.066C398.872 249.067 398.872 249.067 422.013 248.959Z" fill="#4C5270"/>
<path d="M547.475 74.3134C568.387 87.7969 579.231 102.157 587.242 124.51C589.52 153.168 587.603 177.21 568.246 200.63C558.332 210.553 546.377 216.601 533.273 222.26C531.032 223.231 528.791 224.201 526.483 225.201C504.984 231.996 480.57 229.221 460.231 220.485C436.66 207.744 422.649 190.746 413.974 166.78C410.987 138.514 414.335 115.934 431.549 92.1463C464.392 62.2782 505.793 53.6522 547.475 74.3134Z" fill="#4C5270"/>
</svg>
