<svg width="649" height="429" viewBox="0 0 649 429" fill="none" xmlns="http://www.w3.org/2000/svg">
<path d="M548.94 305.43C548.94 303.84 548.87 187.96 548.75 0.540031L548.94 0.740032L1.13992 0.80003L1.39993 0.540031C1.39993 108.34 1.39993 211.47 1.39993 305.43L1.15992 305.19L549 305.43L1.15992 305.67H0.919922V305.43C0.919922 211.43 0.919922 108.34 0.919922 0.540031V0.280029H1.21992L549.02 0.340031H549.22V0.540031C549 188 549 303.84 548.94 305.43Z" fill="#E0E0E0"/>
<path d="M548.95 0.540039H1.1001V23.89H548.95V0.540039Z" fill="#E0E0E0"/>
<path d="M19 11.52C19 12.2661 18.7786 12.9954 18.3639 13.6155C17.9492 14.2357 17.3598 14.7189 16.6704 15.004C15.9809 15.289 15.2224 15.3631 14.4908 15.2168C13.7592 15.0705 13.0875 14.7105 12.5606 14.1822C12.0338 13.654 11.6755 12.9813 11.5312 12.2494C11.3869 11.5174 11.4629 10.7591 11.7498 10.0704C12.0367 9.38165 12.5215 8.79355 13.1427 8.38051C13.764 7.96746 14.4939 7.74803 15.24 7.75001C15.7346 7.75001 16.2243 7.8476 16.6812 8.03718C17.138 8.22676 17.5529 8.50462 17.9022 8.85483C18.2515 9.20503 18.5283 9.62072 18.7166 10.0781C18.905 10.5354 19.0013 11.0254 19 11.52Z" fill="white"/>
<path d="M30.6401 11.52C30.6401 12.2661 30.4187 12.9954 30.004 13.6155C29.5893 14.2357 29 14.7189 28.3105 15.004C27.621 15.289 26.8625 15.3631 26.1309 15.2168C25.3993 15.0705 24.7276 14.7105 24.2008 14.1822C23.6739 13.654 23.3157 12.9813 23.1713 12.2494C23.027 11.5174 23.1031 10.7591 23.39 10.0704C23.6768 9.38165 24.1616 8.79355 24.7829 8.38051C25.4042 7.96746 26.134 7.74803 26.8801 7.75001C27.3747 7.75001 27.8645 7.8476 28.3213 8.03718C28.7781 8.22676 29.1931 8.50462 29.5424 8.85483C29.8916 9.20503 30.1684 9.62072 30.3568 10.0781C30.5451 10.5354 30.6414 11.0254 30.6401 11.52Z" fill="white"/>
<path d="M42.2998 11.52C42.2998 12.2656 42.0787 12.9945 41.6644 13.6145C41.2502 14.2345 40.6614 14.7177 39.9725 15.003C39.2836 15.2884 38.5256 15.363 37.7943 15.2176C37.063 15.0721 36.3912 14.713 35.864 14.1858C35.3367 13.6586 34.9777 12.9868 34.8322 12.2555C34.6867 11.5242 34.7614 10.7662 35.0467 10.0773C35.3321 9.38842 35.8153 8.79963 36.4353 8.38537C37.0552 7.97112 37.7841 7.75001 38.5298 7.75001C39.0252 7.74869 39.516 7.84531 39.974 8.0343C40.432 8.22329 40.8482 8.50094 41.1985 8.85128C41.5488 9.20162 41.8265 9.61775 42.0155 10.0757C42.2045 10.5337 42.3011 11.0246 42.2998 11.52Z" fill="white"/>
<path d="M596.25 47.1201H42.1699V416.5H596.25V47.1201Z" fill="#FAFAFA"/>
<path d="M596.25 70.7301C596.25 70.2501 596.25 63.2801 596.18 47.1201L596.25 47.1901L42.2502 47.3801L42.5102 47.1201V70.7301L42.2502 70.4701L596.33 70.7301L42.1702 71.0001H41.9102V46.8601H42.2001L596.25 47.0501H596.32V47.1201C596.27 63.2801 596.25 70.2501 596.25 70.7301Z" fill="#263238"/>
<path d="M60.2704 58.22C60.2704 58.9736 60.0469 59.7102 59.6283 60.3368C59.2096 60.9633 58.6146 61.4516 57.9184 61.74C57.2222 62.0284 56.4562 62.1038 55.7171 61.9568C54.978 61.8098 54.2992 61.4469 53.7663 60.9141C53.2335 60.3813 52.8706 59.7024 52.7236 58.9633C52.5766 58.2243 52.652 57.4582 52.9404 56.762C53.2288 56.0658 53.7171 55.4708 54.3437 55.0521C54.9702 54.6335 55.7068 54.41 56.4604 54.41C57.4709 54.41 58.44 54.8114 59.1545 55.526C59.869 56.2405 60.2704 57.2096 60.2704 58.22Z" fill="#E0E0E0"/>
<path d="M72.0502 58.22C72.0502 58.9736 71.8267 59.7102 71.4081 60.3368C70.9894 60.9633 70.3944 61.4517 69.6982 61.74C69.002 62.0284 68.236 62.1038 67.4969 61.9568C66.7578 61.8098 66.0789 61.447 65.5461 60.9141C65.0133 60.3813 64.6504 59.7024 64.5034 58.9633C64.3564 58.2243 64.4318 57.4582 64.7202 56.762C65.0086 56.0658 65.4969 55.4708 66.1235 55.0521C66.75 54.6335 67.4866 54.41 68.2402 54.41C68.7409 54.4087 69.2369 54.5064 69.6998 54.6974C70.1626 54.8884 70.5831 55.169 70.9372 55.523C71.2913 55.8771 71.5718 56.2976 71.7628 56.7605C71.9538 57.2233 72.0515 57.7193 72.0502 58.22Z" fill="#E0E0E0"/>
<path d="M83.8402 58.22C83.8402 58.9736 83.6168 59.7102 83.1981 60.3368C82.7795 60.9633 82.1844 61.4516 81.4882 61.74C80.7921 62.0284 80.026 62.1038 79.2869 61.9568C78.5479 61.8098 77.869 61.4469 77.3361 60.9141C76.8033 60.3813 76.4404 59.7024 76.2934 58.9633C76.1464 58.2243 76.2219 57.4582 76.5102 56.762C76.7986 56.0658 77.2869 55.4708 77.9135 55.0521C78.54 54.6335 79.2767 54.41 80.0302 54.41C81.0407 54.41 82.0098 54.8114 82.7243 55.526C83.4388 56.2405 83.8402 57.2096 83.8402 58.22Z" fill="#E0E0E0"/>
<path d="M197.71 139H175.71L171.51 149.16H160.27L181.39 101.76H192.23L213.42 149.16H201.91L197.71 139ZM194.26 130.67L186.74 112.52L179.23 130.67H194.26Z" fill="#455A64"/>
<path d="M257.31 130.9C257.31 142.35 249.38 149.66 239.16 149.66C234.28 149.66 230.35 148.1 227.71 144.92V149.12H217.62V98.8701H228.19V116.55C230.9 113.55 234.62 112.15 239.19 112.15C249.38 112.15 257.31 119.46 257.31 130.9ZM246.61 130.9C246.61 124.61 242.61 120.81 237.33 120.81C232.05 120.81 228.05 124.61 228.05 130.9C228.05 137.19 232.05 140.99 237.33 140.99C242.61 140.99 246.61 137.2 246.61 130.9Z" fill="#455A64"/>
<path d="M261.64 130.9C261.64 119.9 270.1 112.15 281.64 112.15C293.18 112.15 301.64 119.93 301.64 130.9C301.64 141.87 293.24 149.66 281.64 149.66C270.04 149.66 261.64 141.87 261.64 130.9ZM290.96 130.9C290.96 124.61 286.96 120.81 281.68 120.81C276.4 120.81 272.34 124.61 272.34 130.9C272.34 137.19 276.4 141 281.68 141C286.96 141 291 137.2 291 130.9H290.96Z" fill="#455A64"/>
<path d="M345.41 112.69V149.12H335.41V144.79C333.99 146.369 332.244 147.622 330.294 148.462C328.343 149.303 326.234 149.712 324.11 149.66C314.96 149.66 308.53 144.52 308.53 133.27V112.69H319.09V131.69C319.09 137.78 321.8 140.49 326.48 140.49C331.35 140.49 334.87 137.37 334.87 130.67V112.67L345.41 112.69Z" fill="#455A64"/>
<path d="M378.72 147.36C376.151 148.976 373.153 149.778 370.12 149.66C361.52 149.66 356.51 145.26 356.51 136.59V121.59H350.89V113.5H356.51V104.63H367.08V113.5H376.15V121.63H367.08V136.46C367.08 139.57 368.77 141.26 371.61 141.26C373.142 141.281 374.639 140.808 375.88 139.91L378.72 147.36Z" fill="#455A64"/>
<path d="M440.55 112.69V149.12H430.55V144.79C429.127 146.369 427.38 147.621 425.428 148.462C423.476 149.302 421.365 149.711 419.24 149.66C410.1 149.66 403.66 144.52 403.66 133.27V112.69H414.23V131.69C414.23 137.78 416.94 140.49 421.61 140.49C426.49 140.49 430.01 137.37 430.01 130.67V112.67L440.55 112.69Z" fill="#455A64"/>
<path d="M446.85 145.73L450.37 138.15C454.19 140.431 458.551 141.646 463 141.67C467.88 141.67 469.71 140.38 469.71 138.35C469.71 132.35 447.71 138.49 447.71 123.93C447.71 117.02 453.94 112.15 464.57 112.15C469.57 112.15 475.14 113.3 478.57 115.33L475.05 122.85C471.85 121.036 468.228 120.101 464.55 120.14C459.81 120.14 457.78 121.63 457.78 123.52C457.78 129.75 479.78 123.73 479.78 138.08C479.78 144.85 473.48 149.66 462.58 149.66C456.47 149.66 450.23 148 446.85 145.73Z" fill="#455A64"/>
<path d="M532.26 416.47C510.88 394 479.49 383 448.44 383.22C425.76 383.37 402.1 390.14 381.03 381.78C361.52 374.04 349.14 355.25 333.97 340.78C310.346 318.434 279.127 305.877 246.61 305.64C224.79 305.57 200.77 310.58 182.77 298.24C170.63 289.91 164.42 275.56 155.89 263.55C130.89 228.34 82.76 213.66 42.48 229.22V416.22L532.26 416.47Z" fill="#EBEBEB"/>
<path d="M596.25 416.5C596.25 414.8 596.17 272.31 596.04 47.1201L596.25 47.3301H42.2503L42.5103 47.0701C42.5103 178.61 42.5103 303.73 42.5103 416.45L42.2703 416.21L596.35 416.45L42.2703 416.69H42.0303V416.45C42.0303 303.73 42.0303 178.61 42.0303 47.0701V46.8101H42.3403H596.34H596.55V47.0201C596.33 272.31 596.25 414.8 596.25 416.5Z" fill="#263238"/>
<path d="M111.58 127.92C111.58 128.29 108.86 128.6 105.49 128.6C102.12 128.6 99.4004 128.29 99.4004 127.92C99.4004 127.55 102.13 127.25 105.49 127.25C108.85 127.25 111.58 127.55 111.58 127.92Z" fill="#263238"/>
<path d="M118.05 111.36C118.42 111.36 118.72 114.12 118.72 117.54C118.72 120.96 118.42 123.72 118.05 123.72C117.68 123.72 117.38 120.95 117.38 117.54C117.38 114.13 117.68 111.36 118.05 111.36Z" fill="#263238"/>
<path d="M124.94 127.53C124.94 127.15 127.66 126.85 131.02 126.85C134.38 126.85 137.11 127.15 137.11 127.53C137.11 127.91 134.39 128.2 131.02 128.2C127.65 128.2 124.94 127.9 124.94 127.53Z" fill="#263238"/>
<path d="M118.47 144.09C118.1 144.09 117.8 141.32 117.8 137.91C117.8 134.5 118.1 131.73 118.47 131.73C118.84 131.73 119.14 134.5 119.14 137.91C119.14 141.32 118.84 144.09 118.47 144.09Z" fill="#263238"/>
<path d="M128.31 137C128.03 137.23 126.83 136.27 125.63 134.83C124.43 133.39 123.7 132.05 123.98 131.83C124.26 131.61 125.47 132.56 126.66 133.99C127.85 135.42 128.6 136.75 128.31 137Z" fill="#263238"/>
<path d="M127.74 118.2C128.01 118.46 127.21 119.69 125.97 120.94C124.73 122.19 123.51 123 123.25 122.74C122.99 122.48 123.78 121.25 125.02 119.99C126.26 118.73 127.48 117.94 127.74 118.2Z" fill="#263238"/>
<path d="M113.78 123C113.55 123.28 112.4 122.72 111.21 121.73C110.02 120.74 109.27 119.73 109.5 119.43C109.73 119.13 110.89 119.71 112.08 120.7C113.27 121.69 114 122.7 113.78 123Z" fill="#263238"/>
<path d="M113.24 131.26C113.51 131.52 112.82 132.72 111.69 133.96C110.56 135.2 109.43 135.96 109.16 135.74C108.89 135.52 109.57 134.29 110.7 133.05C111.83 131.81 113 131 113.24 131.26Z" fill="#263238"/>
<path d="M455.18 95.8701C455.18 96.0801 453.63 96.2501 451.72 96.2501C449.81 96.2501 448.26 96.0801 448.26 95.8701C448.26 95.6601 449.81 95.4901 451.72 95.4901C453.63 95.4901 455.18 95.6601 455.18 95.8701Z" fill="#263238"/>
<path d="M458.85 86.4701C459.06 86.4701 459.23 88.0401 459.23 89.9701C459.23 91.9001 459.06 93.4801 458.85 93.4801C458.64 93.4801 458.47 91.9101 458.47 89.9701C458.47 88.0301 458.64 86.4701 458.85 86.4701Z" fill="#263238"/>
<path d="M462.76 95.64C462.76 95.43 464.31 95.26 466.22 95.26C468.13 95.26 469.67 95.43 469.67 95.64C469.67 95.85 468.13 96.03 466.22 96.03C464.31 96.03 462.76 95.86 462.76 95.64Z" fill="#263238"/>
<path d="M459.09 105.05C458.88 105.05 458.71 103.48 458.71 101.54C458.71 99.6 458.88 98.03 459.09 98.03C459.3 98.03 459.47 99.6 459.47 101.54C459.47 103.48 459.3 105.05 459.09 105.05Z" fill="#263238"/>
<path d="M464.68 101C464.51 101.13 463.83 100.58 463.15 99.77C462.47 98.96 462.06 98.19 462.22 98.05C462.38 97.91 463.06 98.47 463.74 99.28C464.42 100.09 464.84 100.88 464.68 101Z" fill="#263238"/>
<path d="M464.35 90.3501C464.5 90.5001 464.05 91.2001 463.35 91.9101C462.65 92.6201 461.95 93.0701 461.8 92.9101C461.65 92.7501 462.1 92.0701 462.8 91.3601C463.5 90.6501 464.2 90.2001 464.35 90.3501Z" fill="#263238"/>
<path d="M456.43 93.0701C456.29 93.2301 455.64 92.9101 454.97 92.3501C454.3 91.7901 453.86 91.2101 453.97 91.0501C454.08 90.8901 454.76 91.2001 455.43 91.7601C456.1 92.3201 456.56 92.9101 456.43 93.0701Z" fill="#263238"/>
<path d="M456.12 97.7701C456.27 97.9101 455.88 98.5901 455.24 99.3001C454.6 100.01 453.96 100.45 453.8 100.3C453.64 100.15 454.04 99.4701 454.68 98.7701C455.32 98.0701 456 97.6301 456.12 97.7701Z" fill="#263238"/>
<path d="M298.13 174.53C296.385 174.917 294.576 174.917 292.83 174.53C294.574 174.13 296.386 174.13 298.13 174.53Z" fill="#263238"/>
<path d="M301 167.32C301.387 169.089 301.387 170.921 301 172.69C300.6 170.922 300.6 169.088 301 167.32Z" fill="#263238"/>
<path d="M303.94 174.35C305.685 173.963 307.494 173.963 309.24 174.35C307.496 174.75 305.684 174.75 303.94 174.35Z" fill="#263238"/>
<path d="M301.13 181.56C300.744 179.788 300.744 177.953 301.13 176.18C301.517 177.953 301.517 179.788 301.13 181.56Z" fill="#263238"/>
<path d="M305.41 178.47C305.29 178.57 304.77 178.15 304.25 177.53C303.73 176.91 303.4 176.32 303.53 176.21C303.66 176.1 304.18 176.53 304.7 177.15C305.22 177.77 305.54 178.37 305.41 178.47Z" fill="#263238"/>
<path d="M305.17 170.29C305.28 170.41 304.94 170.94 304.4 171.49C303.86 172.04 303.32 172.38 303.21 172.27C303.1 172.16 303.44 171.62 303.98 171.08C304.52 170.54 305.05 170.18 305.17 170.29Z" fill="#263238"/>
<path d="M299.09 172.38C298.99 172.5 298.49 172.26 297.97 171.83C297.45 171.4 297.12 170.95 297.23 170.83C297.34 170.71 297.83 170.95 298.35 171.38C298.87 171.81 299.19 172.25 299.09 172.38Z" fill="#263238"/>
<path d="M298.85 176C298.97 176.11 298.67 176.63 298.18 177.17C297.69 177.71 297.18 178.06 297.08 177.95C296.98 177.84 297.26 177.32 297.75 176.78C298.24 176.24 298.73 175.87 298.85 176Z" fill="#263238"/>
<path d="M438.92 185.74C438.92 185.95 437.37 186.12 435.46 186.12C433.55 186.12 432 186 432 185.74C432 185.48 433.54 185.35 435.45 185.35C437.36 185.35 438.92 185.53 438.92 185.74Z" fill="#E0E0E0"/>
<path d="M442.59 176.33C442.8 176.33 442.97 177.9 442.97 179.84C442.97 181.78 442.8 183.35 442.59 183.35C442.38 183.35 442.21 181.78 442.21 179.84C442.21 177.9 442.38 176.33 442.59 176.33Z" fill="#E0E0E0"/>
<path d="M446.5 185.51C446.5 185.3 448.05 185.13 449.96 185.13C451.87 185.13 453.41 185.3 453.41 185.51C453.41 185.72 451.87 185.89 449.96 185.89C448.05 185.89 446.5 185.72 446.5 185.51Z" fill="#E0E0E0"/>
<path d="M442.83 194.92C442.62 194.92 442.45 193.34 442.45 191.41C442.45 189.48 442.62 187.9 442.83 187.9C443.04 187.9 443.21 189.47 443.21 191.41C443.21 193.35 443 194.92 442.83 194.92Z" fill="#E0E0E0"/>
<path d="M448.42 190.88C448.25 191.02 447.57 190.47 446.89 189.66C446.21 188.85 445.8 188.07 445.96 187.94C446.12 187.81 446.8 188.35 447.48 189.16C448.16 189.97 448.58 190.75 448.42 190.88Z" fill="#E0E0E0"/>
<path d="M448.09 180.22C448.24 180.37 447.79 181.06 447.09 181.77C446.39 182.48 445.69 182.94 445.54 182.77C445.39 182.6 445.84 181.93 446.54 181.21C447.24 180.49 447.94 180.07 448.09 180.22Z" fill="#E0E0E0"/>
<path d="M440.17 182.93C440.03 183.1 439.38 182.78 438.71 182.22C438.04 181.66 437.6 181.07 437.71 180.91C437.82 180.75 438.5 181.07 439.17 181.63C439.84 182.19 440.3 182.77 440.17 182.93Z" fill="#E0E0E0"/>
<path d="M439.86 187.63C440.01 187.78 439.62 188.46 438.98 189.16C438.34 189.86 437.7 190.32 437.54 190.16C437.38 190 437.78 189.33 438.42 188.63C439.06 187.93 439.7 187.49 439.86 187.63Z" fill="#E0E0E0"/>
<path d="M256.68 96.4801L257.13 97.5601C257.521 98.491 258.091 99.3359 258.808 100.046C259.525 100.757 260.375 101.319 261.31 101.7L262.49 102.18L261.36 102.63C260.41 103.017 259.548 103.59 258.825 104.317C258.102 105.044 257.532 105.909 257.15 106.86L256.83 107.64L256.35 106.64C255.491 104.839 253.957 103.449 252.08 102.77L251.08 102.39L252.42 101.75C254.109 100.918 255.433 99.4948 256.14 97.7501L256.68 96.4801Z" fill="#E0E0E0"/>
<path d="M81.0503 177.4L81.3503 178.12C81.6086 178.74 81.9873 179.302 82.4645 179.774C82.9417 180.246 83.508 180.619 84.1303 180.87L84.9103 181.19L84.1603 181.49C83.5299 181.748 82.9574 182.13 82.4765 182.612C81.9957 183.095 81.6162 183.669 81.3603 184.3L81.1503 184.82L80.8303 184.17C80.2597 182.974 79.2441 182.048 78.0003 181.59L77.3203 181.35L78.2103 180.92C79.321 180.371 80.1975 179.441 80.6803 178.3L81.0503 177.4Z" fill="#E0E0E0"/>
<path d="M523.6 107.64L523.89 108.36C524.417 109.61 525.416 110.602 526.67 111.12L527.45 111.43L526.71 111.74C526.078 111.994 525.504 112.373 525.021 112.854C524.538 113.335 524.157 113.909 523.9 114.54L523.69 115.07L523.38 114.41C522.804 113.216 521.786 112.294 520.54 111.84L519.86 111.59L520.75 111.16C521.871 110.624 522.751 109.69 523.22 108.54L523.6 107.64Z" fill="#E0E0E0"/>
<path d="M524.93 138L525.38 139.08C525.768 140.013 526.338 140.861 527.055 141.573C527.773 142.285 528.624 142.848 529.56 143.23L530.74 143.7L529.61 144.16C528.66 144.546 527.798 145.118 527.073 145.843C526.348 146.568 525.776 147.43 525.39 148.38L525.08 149.17L524.6 148.17C523.741 146.369 522.207 144.978 520.33 144.3L519.33 143.93L520.67 143.28C522.349 142.465 523.672 141.063 524.39 139.34L524.93 138Z" fill="#263238"/>
<path d="M340.16 89.9301L340.37 90.4401C340.558 90.8804 340.831 91.2789 341.174 91.612C341.518 91.9452 341.924 92.2063 342.37 92.3801L342.92 92.6101L342.39 92.8201C341.939 93.0001 341.528 93.2703 341.184 93.6142C340.841 93.958 340.57 94.3683 340.39 94.8201L340.24 95.1901L340.01 94.7301C339.611 93.8826 338.892 93.2282 338.01 92.9101L337.53 92.7401L338.16 92.4301C338.95 92.048 339.573 91.3899 339.91 90.5801L340.16 89.9301Z" fill="#263238"/>
<path d="M200.76 172.83L201.03 173.48C201.263 174.044 201.606 174.555 202.038 174.984C202.471 175.413 202.985 175.752 203.55 175.98L204.26 176.27L203.58 176.54C203.007 176.772 202.486 177.117 202.049 177.555C201.613 177.993 201.27 178.516 201.04 179.09L200.85 179.57L200.56 178.97C200.036 177.887 199.111 177.051 197.98 176.64L197.36 176.41L198.17 176.02C199.184 175.525 199.983 174.68 200.42 173.64L200.76 172.83Z" fill="#263238"/>
<path d="M605.32 147.59C596.811 147.595 588.5 150.154 581.462 154.936C574.425 159.719 568.985 166.504 565.847 174.413C562.71 182.322 562.02 190.991 563.865 199.297C565.711 207.603 570.008 215.164 576.2 221L570.46 241.1L590.76 230C596.593 232.126 602.82 232.948 609.005 232.41C615.19 231.871 621.181 229.984 626.559 226.882C631.936 223.78 636.569 219.538 640.131 214.453C643.694 209.369 646.099 203.566 647.179 197.453C648.258 191.339 647.986 185.063 646.38 179.066C644.775 173.069 641.875 167.497 637.886 162.741C633.896 157.984 628.913 154.159 623.287 151.535C617.661 148.911 611.528 147.551 605.32 147.55V147.59Z" fill="#F5F5F5"/>
<path d="M605.32 147.59C605.32 147.59 605.57 147.59 606.08 147.59L608.3 147.68C608.79 147.68 609.3 147.68 609.94 147.77L611.94 148.06C612.65 148.18 613.42 148.25 614.23 148.43L616.78 149.07C627.068 151.848 635.916 158.433 641.53 167.49L642.85 169.66C643.23 170.42 643.61 171.2 643.99 171.99C646.409 177.031 647.77 182.513 647.99 188.1C648.092 190.1 648.059 192.105 647.89 194.1C647.82 195.1 647.61 196.1 647.47 197.1C647.39 197.61 647.32 198.1 647.24 198.63L646.85 200.15C645.874 204.349 644.23 208.363 641.98 212.04C637.193 220.04 629.92 226.253 621.27 229.73C611.952 233.411 601.649 233.764 592.1 230.73L590.72 230.25H590.93C584.01 234.04 577.22 237.76 570.63 241.35L570.1 241.65L570.26 241.06C572.26 234.13 574.17 227.41 576.01 220.96L576.08 221.21C573.439 218.696 571.115 215.868 569.16 212.79C567.309 209.818 565.818 206.635 564.72 203.31C563.695 200.123 563.047 196.828 562.79 193.49C562.71 192.68 562.68 191.87 562.67 191.07C562.625 190.271 562.625 189.469 562.67 188.67C562.695 187.106 562.832 185.545 563.08 184C563.925 178.258 565.94 172.751 569 167.82C571.615 163.595 574.933 159.848 578.81 156.74L581.45 154.74L584.12 153.12C584.95 152.606 585.816 152.152 586.71 151.76C587.57 151.37 588.37 150.92 589.21 150.62C591.999 149.51 594.894 148.689 597.85 148.17L601.07 147.7L603.43 147.6H604.88L603.44 147.7L601.08 147.84L597.88 148.34C594.943 148.886 592.068 149.727 589.3 150.85C588.47 151.15 587.68 151.61 586.83 152C585.941 152.4 585.079 152.857 584.25 153.37L581.57 155L579 157C575.169 160.087 571.895 163.808 569.32 168C566.318 172.902 564.354 178.368 563.55 184.06C563.31 185.592 563.176 187.139 563.15 188.69C563.105 189.479 563.105 190.271 563.15 191.06C563.15 191.85 563.15 192.65 563.27 193.46C563.537 196.757 564.185 200.012 565.2 203.16C567.419 209.904 571.29 215.985 576.46 220.85L576.57 220.95L576.52 221.1C574.69 227.54 572.77 234.26 570.8 241.2L570.43 240.9L590.72 229.8L590.82 229.74H590.94L592.31 230.21C601.741 233.211 611.92 232.857 621.12 229.21C629.672 225.777 636.868 219.642 641.61 211.74C643.841 208.107 645.475 204.14 646.45 199.99C646.58 199.49 646.71 198.99 646.83 198.49L647.07 196.97C647.2 195.97 647.41 194.97 647.49 193.97C647.656 192.001 647.693 190.024 647.6 188.05C647.407 182.505 646.076 177.059 643.69 172.05L642.57 169.74L641.27 167.59C638.134 162.501 633.947 158.141 628.99 154.8C625.245 152.286 621.123 150.386 616.78 149.17L614.24 148.5C613.44 148.32 612.67 148.24 611.97 148.11L609.97 147.8C609.37 147.71 608.82 147.72 608.34 147.68L606.12 147.54C605.57 147.62 605.32 147.59 605.32 147.59Z" fill="#263238"/>
<path d="M596 184.28H599L605.56 175.13V169.13C605.56 169.13 610.21 168.85 609.66 176.71C609.11 184.57 609.66 182.56 609.66 182.56C609.66 182.56 619.52 182.56 620.34 183.46C620.94 184.08 621.21 193.88 621.34 199.2C621.404 200.481 621.039 201.746 620.301 202.795C619.564 203.844 618.497 204.617 617.27 204.99C616.92 205.08 616.561 205.127 616.2 205.13C613.74 205.13 601.2 203.13 601.2 203.13H596V184.28Z" fill="#263238"/>
<path d="M587.43 182.63L589.28 203.19H594.43V183.04L587.43 182.63Z" fill="#263238"/>
<path d="M174.16 191.07C173.99 194.28 169.81 198.56 171.1 201.5C173.48 206.92 172.1 213.41 169.02 218.5C165.94 223.59 161.33 227.5 156.8 231.28C157.029 223.377 156.341 215.474 154.75 207.73C154.25 205.31 153.43 202.61 151.22 201.51C148.35 200.09 144.71 202.14 141.77 200.88C138.64 199.52 138.01 195.24 135.37 193.08C132.98 191.13 129.47 191.34 126.54 192.32C123.61 193.3 120.92 194.95 117.91 195.62C114.9 196.29 111.27 195.69 109.6 193.09C108.6 191.49 109.31 192.47 108.33 190.84C108.33 190.84 102.46 191.04 100.44 184.21C100.44 184.21 97.6801 176.62 103.79 173.27C103.79 173.27 105.18 159.55 118.97 165.72C122.97 167.5 127.63 161.78 131.5 163.72C134.72 165.35 135.67 169.83 138.89 171.47C142.59 173.35 146.89 170.55 151.03 170.38C153.682 170.38 156.226 171.434 158.101 173.309C159.977 175.184 161.03 177.728 161.03 180.38C161.03 180.38 161.68 177.64 166.17 178.84C170.66 180.04 174.48 184.81 174.16 191.07Z" fill="#263238"/>
<path d="M168.31 213.15C168.396 211.598 168.108 210.048 167.47 208.63C166.89 207.46 164.72 204.8 162.34 204.63L162.69 190.5C162.716 189.098 162.218 187.736 161.294 186.682C160.369 185.628 159.084 184.957 157.69 184.8L130 181.88C127.737 181.641 125.449 181.862 123.273 182.53C121.097 183.199 119.079 184.3 117.341 185.769C115.602 187.238 114.179 189.043 113.156 191.076C112.133 193.109 111.533 195.329 111.39 197.6C110.72 208.25 110.32 221.28 111.58 229.22C114.12 245.22 126.36 247.22 126.36 247.22L126.06 258.38C125.59 270.27 134.49 277.43 143.67 277.43C152.85 277.43 161.33 269.5 161.06 257.73L161.96 221.73C163.511 221.587 164.954 220.874 166.01 219.73C167.533 217.879 168.348 215.547 168.31 213.15Z" fill="#FFBE9D"/>
<path d="M117.53 206.27C117.527 206.808 117.735 207.325 118.109 207.712C118.483 208.099 118.993 208.324 119.53 208.34C120.054 208.37 120.569 208.193 120.964 207.847C121.359 207.501 121.602 207.014 121.64 206.49C121.65 206.221 121.605 205.954 121.509 205.703C121.412 205.452 121.267 205.223 121.08 205.03C120.893 204.837 120.67 204.683 120.422 204.579C120.175 204.474 119.909 204.42 119.64 204.42C119.116 204.39 118.601 204.567 118.206 204.913C117.812 205.259 117.569 205.746 117.53 206.27Z" fill="#263238"/>
<path d="M114.17 204.38C114.42 204.65 115.97 203.5 118.17 203.5C120.37 203.5 121.99 204.61 122.23 204.34C122.34 204.22 122.08 203.74 121.38 203.23C120.427 202.568 119.291 202.218 118.13 202.23C116.987 202.212 115.868 202.563 114.94 203.23C114.27 203.78 114 204.26 114.17 204.38Z" fill="#263238"/>
<path d="M138.81 206.68C138.805 207.219 139.012 207.738 139.386 208.125C139.76 208.512 140.272 208.737 140.81 208.75C141.334 208.78 141.849 208.603 142.244 208.257C142.639 207.911 142.882 207.424 142.92 206.9C142.926 206.361 142.719 205.842 142.345 205.455C141.97 205.068 141.459 204.843 140.92 204.83C140.396 204.8 139.881 204.977 139.486 205.323C139.092 205.669 138.849 206.156 138.81 206.68Z" fill="#263238"/>
<path d="M135.84 204.79C136.09 205.06 137.64 203.91 139.84 203.92C142.04 203.93 143.66 205.02 143.9 204.75C144.01 204.63 143.76 204.15 143.05 203.64C142.096 202.978 140.961 202.628 139.8 202.64C138.657 202.627 137.54 202.977 136.61 203.64C135.94 204.19 135.71 204.67 135.84 204.79Z" fill="#263238"/>
<path d="M127.83 221.14C126.667 220.78 125.465 220.562 124.25 220.49C123.69 220.44 123.16 220.32 123.06 219.94C123.018 219.358 123.15 218.776 123.44 218.27L125.1 214C127.42 207.89 129.1 202.87 128.84 202.78C128.58 202.69 126.52 207.56 124.21 213.67C123.65 215.17 123.12 216.61 122.62 217.98C122.264 218.659 122.158 219.441 122.32 220.19C122.403 220.388 122.53 220.565 122.691 220.707C122.852 220.849 123.043 220.953 123.25 221.01C123.576 221.099 123.912 221.146 124.25 221.15C125.439 221.302 126.642 221.299 127.83 221.14Z" fill="#263238"/>
<path d="M126.31 247.23C133.834 247.343 141.242 245.366 147.71 241.52C147.71 241.52 142.17 253.52 126.18 252.05L126.31 247.23Z" fill="#EB996E"/>
<path d="M134.84 200.93C135.06 201.53 137.26 201.25 139.84 201.56C142.42 201.87 144.52 202.56 144.84 202.04C144.99 201.78 144.63 201.22 143.79 200.64C142.668 199.916 141.389 199.467 140.06 199.33C138.739 199.171 137.399 199.329 136.15 199.79C135.23 200.18 134.75 200.65 134.84 200.93Z" fill="#263238"/>
<path d="M113.81 199.25C114.2 199.75 115.71 199.25 117.54 199.25C119.37 199.25 120.91 199.58 121.27 199.06C121.43 198.8 121.18 198.3 120.51 197.83C119.603 197.266 118.549 196.983 117.481 197.017C116.414 197.05 115.38 197.4 114.51 198.02C113.85 198.49 113.64 199 113.81 199.25Z" fill="#263238"/>
<path d="M128.32 233.62C128.32 233.57 128.47 233.3 128.92 233.02C129.526 232.662 130.217 232.475 130.92 232.48C131.621 232.471 132.312 232.651 132.92 233C133.37 233.28 133.57 233.54 133.53 233.59C132.701 233.28 131.833 233.085 130.95 233.01C130.048 233.078 129.161 233.284 128.32 233.62Z" fill="#EB996E"/>
<path d="M160.87 217.4C161.392 217.187 161.9 216.94 162.39 216.66C162.938 216.301 163.392 215.816 163.714 215.245C164.036 214.674 164.216 214.035 164.24 213.38C164.251 212.721 164.106 212.069 163.818 211.476C163.53 210.884 163.105 210.368 162.58 209.97C162.127 209.657 161.606 209.455 161.06 209.38C161.01 209.32 161.8 209.05 162.79 209.66C163.413 210.058 163.924 210.608 164.274 211.26C164.625 211.911 164.802 212.641 164.79 213.38C164.777 214.2 164.52 214.998 164.05 215.67C163.677 216.212 163.185 216.66 162.61 216.98C162.102 217.331 161.482 217.481 160.87 217.4Z" fill="#EB996E"/>
<path d="M108.33 178.07C105.75 184.97 111.88 189.97 116.66 191.07C123.34 192.63 130.44 188.41 135.01 190.2C138.42 191.54 141.64 194.2 145.26 193.65C147.02 193.39 148.76 192.38 150.47 192.84C152.66 193.44 153.55 196.1 153.47 198.37C153.41 201.17 152.47 203.95 152.82 206.73C153.17 209.51 155.65 212.38 158.36 211.64C159.634 211.214 160.748 210.413 161.559 209.342C162.369 208.272 162.836 206.981 162.9 205.64C163.22 201.79 162.51 197.21 162.7 193.35C162.87 189.95 162.88 186.21 160.7 183.58C158.52 180.95 154.84 180.24 151.45 179.78C137.153 177.811 122.715 177.049 108.29 177.5" fill="#263238"/>
<path d="M99.92 179.54C99.8338 179.309 99.7865 179.066 99.78 178.82C99.7432 178.106 99.8877 177.394 100.2 176.75C100.695 175.716 101.552 174.901 102.61 174.46C103.279 174.205 104.002 174.126 104.71 174.23C105.46 174.3 106.21 174.5 107 174.54C107.819 174.586 108.636 174.406 109.36 174.02C110.151 173.579 110.886 173.045 111.55 172.43C112.27 171.81 113 171.13 113.84 170.52C114.715 169.882 115.718 169.441 116.78 169.23C119.075 168.885 121.419 169.285 123.47 170.37C125.6 171.546 127.587 172.966 129.39 174.6C131.142 176.23 133.135 177.58 135.3 178.6C136.326 179.03 137.442 179.201 138.55 179.1C139.6 178.941 140.615 178.603 141.55 178.1C143.305 177.047 145.169 176.189 147.11 175.54C148.855 175.042 150.697 174.984 152.47 175.37C153.932 175.701 155.277 176.424 156.36 177.46C157.169 178.244 157.8 179.192 158.21 180.24C158.466 180.901 158.604 181.602 158.62 182.31C158.633 182.493 158.633 182.677 158.62 182.86C158.62 182.98 158.62 183.04 158.62 183.04C158.607 182.108 158.424 181.186 158.08 180.32C157.653 179.316 157.019 178.413 156.22 177.67C155.161 176.696 153.858 176.026 152.45 175.73C150.738 175.383 148.967 175.458 147.29 175.95C145.38 176.612 143.546 177.477 141.82 178.53C140.822 179.052 139.738 179.391 138.62 179.53C137.432 179.65 136.234 179.474 135.13 179.02C132.917 177.986 130.876 176.616 129.08 174.96C127.306 173.352 125.353 171.953 123.26 170.79C121.31 169.748 119.079 169.352 116.89 169.66C114.8 170.01 113.29 171.48 111.89 172.72C111.194 173.346 110.425 173.887 109.6 174.33C108.808 174.739 107.92 174.925 107.03 174.87C106.2 174.81 105.45 174.6 104.73 174.51C104.059 174.403 103.371 174.465 102.73 174.69C101.726 175.092 100.899 175.841 100.4 176.8C100.076 177.417 99.904 178.103 99.9 178.8C99.88 179.29 100 179.53 99.92 179.54Z" fill="#455A64"/>
<path d="M107.65 190.66C107.421 190.724 107.179 190.724 106.95 190.66C106.613 190.593 106.294 190.455 106.014 190.255C105.735 190.055 105.502 189.798 105.33 189.5C104.847 188.528 104.713 187.419 104.95 186.36C105.186 184.959 105.747 183.634 106.59 182.49C107.61 181.086 109.028 180.02 110.66 179.43C112.533 178.734 114.584 178.682 116.49 179.28C118.516 180.036 120.41 181.11 122.1 182.46C123.858 183.892 125.85 185.009 127.99 185.76C130.175 186.315 132.478 186.189 134.59 185.4C136.587 184.685 138.507 183.77 140.32 182.67C141.984 181.67 143.704 180.765 145.47 179.96C147.023 179.253 148.688 178.823 150.39 178.69C151.628 178.588 152.874 178.739 154.052 179.134C155.23 179.53 156.314 180.161 157.24 180.99C157.72 181.461 158.119 182.009 158.42 182.61C158.527 182.819 158.608 183.041 158.66 183.27C158.274 182.474 157.749 181.752 157.11 181.14C156.188 180.368 155.122 179.785 153.974 179.427C152.826 179.068 151.618 178.94 150.42 179.05C148.762 179.205 147.145 179.648 145.64 180.36C143.896 181.172 142.199 182.083 140.56 183.09C138.722 184.214 136.776 185.149 134.75 185.88C132.539 186.709 130.128 186.841 127.84 186.26C125.661 185.485 123.632 184.342 121.84 182.88C120.199 181.555 118.36 180.495 116.39 179.74C114.58 179.162 112.63 179.193 110.84 179.83C109.28 180.386 107.917 181.387 106.92 182.71C106.091 183.798 105.529 185.065 105.28 186.41C105.024 187.411 105.12 188.47 105.55 189.41C105.697 189.697 105.902 189.951 106.152 190.155C106.401 190.36 106.69 190.511 107 190.6C107.214 190.638 107.432 190.659 107.65 190.66Z" fill="#455A64"/>
<path d="M168.89 217.31C168.89 217.31 169.25 216.83 169.78 215.91C170.507 214.596 170.915 213.13 170.97 211.63C171.015 210.616 170.887 209.601 170.59 208.63C170.223 207.507 169.683 206.447 168.99 205.49C168.29 204.49 167.46 203.39 166.73 202.19C165.901 200.959 165.446 199.514 165.42 198.03C165.563 196.566 166.02 195.151 166.76 193.88C167.399 192.751 167.782 191.494 167.88 190.2C167.908 189.107 167.65 188.027 167.133 187.064C166.616 186.101 165.856 185.29 164.93 184.71C163.639 183.946 162.124 183.65 160.64 183.87C160.099 183.967 159.565 184.097 159.04 184.26C159.153 184.17 159.277 184.096 159.41 184.04C159.795 183.873 160.198 183.749 160.61 183.67C162.148 183.361 163.745 183.617 165.11 184.39C166.117 184.987 166.949 185.84 167.52 186.862C168.091 187.884 168.38 189.039 168.36 190.21C168.27 191.575 167.881 192.903 167.22 194.1C166.517 195.307 166.08 196.65 165.94 198.04C165.965 199.428 166.392 200.78 167.17 201.93C167.87 203.09 168.69 204.15 169.39 205.22C170.098 206.226 170.644 207.336 171.01 208.51C171.306 209.542 171.418 210.619 171.34 211.69C171.254 213.215 170.794 214.695 170 216C169.783 216.356 169.531 216.691 169.25 217C169 217.22 168.9 217.32 168.89 217.31Z" fill="#455A64"/>
<path d="M127 205.64C126.908 204.803 126.767 203.971 126.58 203.15C126.226 201.781 125.59 200.501 124.712 199.392C123.835 198.283 122.735 197.369 121.484 196.71C120.232 196.051 118.857 195.661 117.446 195.565C116.035 195.468 114.62 195.667 113.29 196.15C111.433 196.845 109.818 198.064 108.64 199.66C107.377 201.377 106.696 203.453 106.696 205.585C106.696 207.717 107.377 209.793 108.64 211.51C109.224 212.335 109.94 213.058 110.76 213.65C111.527 214.235 112.381 214.697 113.29 215.02C114.871 215.602 116.572 215.779 118.239 215.535C119.905 215.29 121.484 214.632 122.83 213.62C124.664 212.239 125.984 210.286 126.58 208.07C126.766 207.252 126.906 206.424 127 205.59C127.063 206.44 126.989 207.294 126.78 208.12C126.248 210.462 124.91 212.543 123 214C121.612 215.074 119.974 215.78 118.24 216.052C116.506 216.325 114.731 216.156 113.08 215.56C112.121 215.229 111.22 214.75 110.41 214.14C109.554 213.519 108.801 212.767 108.18 211.91C106.842 210.108 106.12 207.924 106.12 205.68C106.12 203.436 106.842 201.252 108.18 199.45C109.417 197.773 111.122 196.5 113.08 195.79C114.849 195.157 116.755 195.009 118.6 195.36C120.558 195.741 122.366 196.678 123.807 198.057C125.248 199.436 126.263 201.2 126.73 203.14C126.951 203.954 127.043 204.798 127 205.64Z" fill="#263238"/>
<path d="M150.44 205.64C150.354 204.802 150.213 203.97 150.02 203.15C149.667 201.781 149.032 200.501 148.155 199.392C147.279 198.283 146.18 197.37 144.929 196.711C143.679 196.052 142.304 195.661 140.894 195.565C139.484 195.468 138.069 195.667 136.74 196.15C134.878 196.841 133.258 198.061 132.08 199.66C130.817 201.377 130.136 203.453 130.136 205.585C130.136 207.717 130.817 209.793 132.08 211.51C132.667 212.333 133.382 213.056 134.2 213.65C134.972 214.233 135.829 214.695 136.74 215.02C138.061 215.499 139.467 215.698 140.869 215.606C142.271 215.513 143.639 215.13 144.885 214.482C146.132 213.833 147.23 212.933 148.11 211.838C148.991 210.743 149.634 209.477 150 208.12C150.192 207.303 150.332 206.475 150.42 205.64C150.489 206.49 150.415 207.345 150.2 208.17C149.68 210.484 148.372 212.545 146.5 214C145.111 215.074 143.474 215.78 141.74 216.052C140.006 216.325 138.231 216.156 136.58 215.56C135.621 215.229 134.72 214.75 133.91 214.14C133.051 213.519 132.295 212.766 131.67 211.91C130.338 210.106 129.62 207.922 129.62 205.68C129.62 203.438 130.338 201.254 131.67 199.45C132.913 197.776 134.621 196.503 136.58 195.79C138.349 195.157 140.255 195.009 142.1 195.36C144.056 195.744 145.86 196.682 147.3 198.061C148.739 199.44 149.752 201.202 150.22 203.14C150.43 203.956 150.505 204.8 150.44 205.64Z" fill="#263238"/>
<path d="M130.44 203.92V204.02V203.84V204.04C129.889 204.163 129.325 204.217 128.76 204.2C127.76 204.2 126.93 204.08 126.93 203.94C126.93 203.8 127.75 203.68 128.76 203.68C129.325 203.658 129.89 203.712 130.44 203.84V204.04V203.86V203.96V203.92Z" fill="#263238"/>
<path d="M162.79 206.18C160.688 206.295 158.581 206.231 156.49 205.99C154.387 205.929 152.293 205.692 150.23 205.28C152.332 205.177 154.438 205.241 156.53 205.47C158.632 205.537 160.726 205.774 162.79 206.18Z" fill="#263238"/>
<path d="M137 220.59C137.186 221.107 137.211 221.669 137.07 222.2C136.856 223.53 136.162 224.736 135.119 225.589C134.076 226.442 132.757 226.884 131.41 226.83C130.859 226.863 130.312 226.727 129.84 226.44C129.84 226.36 130.46 226.52 131.41 226.44C132.646 226.397 133.833 225.951 134.791 225.169C135.748 224.387 136.422 223.312 136.71 222.11C137 221.2 136.94 220.59 137 220.59Z" fill="#263238"/>
<path d="M97.3903 292.38C97.4031 292.486 97.4031 292.594 97.3903 292.7V293.64C97.3903 294.5 97.3903 295.72 97.4403 297.26C97.4403 300.43 97.4403 304.96 97.5103 310.55C97.5103 321.77 97.1703 337.27 96.3003 354.37C95.4303 371.47 94.5303 386.92 93.9203 398.16C93.6403 403.73 93.4103 408.26 93.2503 411.43C93.1703 412.97 93.1103 414.17 93.0703 415.03C93.0703 415.42 93.0203 415.73 93.0103 415.97C93.0207 416.076 93.0207 416.184 93.0103 416.29C92.9953 416.184 92.9953 416.076 93.0103 415.97C93.0103 415.73 93.0103 415.42 93.0103 415.03C93.0103 414.17 93.0603 412.96 93.1003 411.42C93.1903 408.28 93.3503 403.74 93.6003 398.14C94.0703 386.93 94.9803 371.45 95.8303 354.35C96.6803 337.25 97.1403 321.76 97.2003 310.54C97.2003 304.96 97.2703 300.43 97.2903 297.26C97.2903 295.72 97.2903 294.5 97.3403 293.64V292.7C97.344 292.592 97.3608 292.484 97.3903 292.38Z" fill="#263238"/>
<path d="M194 275.16C188.62 268.95 178.11 268.04 173.45 271.41C168.79 274.78 166.2 280.5 165.73 286.23C165.26 291.96 166.73 297.71 168.91 303.02C172.42 311.54 177.61 318.44 185.36 327.22L205.36 353.44L166.81 391.08L182.81 416.29L215.58 389.89L242.68 361.17" fill="#FF6F61"/>
<path d="M54.6104 356C55.236 355.541 55.9412 355.202 56.6904 355C58.4627 354.402 60.3327 354.148 62.2003 354.25C64.0719 354.352 65.9074 354.807 67.6104 355.59C68.3483 355.866 69.027 356.28 69.6104 356.81C69.6104 356.88 68.8104 356.44 67.5104 355.93C65.82 355.264 64.0342 354.872 62.2204 354.77C60.4077 354.681 58.5924 354.877 56.8403 355.35C55.4503 355.72 54.6504 356.08 54.6104 356Z" fill="#263238"/>
<path d="M199.19 281.05C185.74 263.21 171.26 264.68 163.88 264.47V256.64C158.43 256.64 150.98 261.55 147.13 265.06L143.32 270.29C142.341 267.426 140.707 264.831 138.547 262.711C136.387 260.591 133.762 259.005 130.88 258.08C128.801 257.42 126.67 256.938 124.51 256.64V263.64C106.43 264.15 96.7601 269.09 84.6801 283.07C84.0601 283.79 82.8301 285.02 81.4201 286.41L45.6801 328.41C38.3801 336.49 31.6801 347.61 33.2501 358.41C34.9601 370.57 42.0501 378.57 55.6201 387.74L93.2201 412.11L93.0401 416.3H182.77C182.77 416.3 243.62 371.41 245.11 354.78C246.27 341.64 225.31 313.79 199.19 281.05ZM94.7301 376.36L68.4201 356.73L96.8401 327.32L94.7301 376.36ZM180.89 377.92L180.18 363.39L184 325.22C191.5 333.82 205.38 350.89 205.38 353.44L180.89 377.92Z" fill="#FF6F61"/>
<path d="M163.86 264.51C163.669 264.926 163.442 265.325 163.18 265.7C162.7 266.44 162.01 267.51 161.1 268.8C158.757 272.183 156.124 275.355 153.23 278.28C152.38 279.14 151.52 279.95 150.68 280.72L150.26 281.11V280.54C150.212 277.254 148.893 274.114 146.58 271.78C145.971 271.049 145.182 270.491 144.29 270.16C143.947 270.093 143.591 270.153 143.29 270.33C143.407 270.184 143.563 270.074 143.74 270.012C143.917 269.95 144.107 269.939 144.29 269.98C145.253 270.25 146.117 270.791 146.78 271.54C147.863 272.569 148.757 273.781 149.42 275.12C150.249 276.805 150.7 278.652 150.74 280.53L150.32 280.34C151.14 279.57 152 278.77 152.84 277.91C155.709 274.997 158.365 271.882 160.79 268.59L162.99 265.59C163.243 265.201 163.534 264.84 163.86 264.51Z" fill="#263238"/>
<path d="M124.49 263.68C124.783 263.961 125.044 264.273 125.27 264.61L127.27 267.24C128.94 269.48 131.2 272.6 133.68 276.06L135.3 278.32L134.85 278.39C135.334 276.774 136.005 275.22 136.85 273.76C137.549 272.575 138.545 271.592 139.74 270.91C140.528 270.454 141.42 270.206 142.33 270.19C142.67 270.156 143.013 270.204 143.33 270.33C143.33 270.33 142.99 270.33 142.33 270.33C141.467 270.417 140.636 270.701 139.9 271.16C138.791 271.86 137.871 272.821 137.22 273.96C136.416 275.402 135.772 276.928 135.3 278.51L135.14 278.98L134.85 278.58L133.23 276.32C130.75 272.86 128.53 269.71 126.94 267.42C126.21 266.33 125.59 265.42 125.09 264.69C124.854 264.376 124.653 264.038 124.49 263.68Z" fill="#263238"/>
<g opacity="0.1">
<path d="M143.3 270.33C144.799 271.972 145.924 273.919 146.599 276.037C147.274 278.155 147.483 280.394 147.21 282.6C147.02 284.06 146.85 286.01 148.21 286.55C149.16 286.92 150.21 286.27 150.98 285.63C156.814 280.929 161.615 275.073 165.08 268.43C165.416 267.908 165.596 267.301 165.6 266.68C165.593 266.372 165.467 266.079 165.249 265.861C165.031 265.643 164.738 265.518 164.43 265.51C164.02 265.624 163.664 265.884 163.43 266.24C159.27 271.04 154.67 276.03 150.51 280.82C150.698 278.154 149.873 275.515 148.2 273.43C146.55 271.43 144.75 269.36 143.33 270.33" fill="black"/>
</g>
<path d="M181.67 414.62C181.553 414.491 181.449 414.35 181.36 414.2C181.14 413.88 180.87 413.46 180.52 412.94L177.45 408.18C174.84 404.04 171.19 398.27 166.94 391.56L166.84 391.39L166.98 391.26L176.36 381.9L196.77 361.7C199.37 359.16 201.49 357.1 202.99 355.62L204.71 353.99C204.903 353.791 205.11 353.607 205.33 353.44C205.166 353.663 204.982 353.87 204.78 354.06C204.37 354.49 203.78 355.06 203.14 355.77L197 362L176.69 382.31C173.39 385.6 170.21 388.75 167.3 391.64V391.34C171.48 398.09 175.08 403.89 177.65 408.06C178.89 410.06 179.89 411.72 180.6 412.9C180.92 413.43 181.17 413.9 181.37 414.2C181.486 414.328 181.586 414.469 181.67 414.62Z" fill="#263238"/>
<path d="M170.64 274.65L170.49 274.84L170.03 275.38C169.6 275.84 169.03 276.56 168.31 277.5C166.331 280.199 165.019 283.327 164.48 286.63C163.843 291.554 164.616 296.558 166.71 301.06C167.848 303.748 169.327 306.279 171.11 308.59C173 311 175 313.41 177.05 316C185.12 326.17 192.05 335.64 197.15 342.44L203.15 350.51C203.84 351.43 204.38 352.17 204.78 352.71L205.19 353.29L205.32 353.49C205.32 353.49 205.25 353.44 205.15 353.32L204.7 352.77L203 350.58C201.53 348.71 199.43 345.99 196.85 342.58C191.69 335.84 184.7 326.4 176.65 316.25C174.65 313.7 172.65 311.25 170.71 308.88C168.908 306.528 167.415 303.953 166.27 301.22C164.162 296.634 163.416 291.538 164.12 286.54C164.894 282.286 166.945 278.369 170 275.31L170.5 274.81C170.57 274.7 170.63 274.64 170.64 274.65Z" fill="#263238"/>
<path d="M204.37 287.56C204.37 287.61 203.82 287.8 202.88 288.3C201.566 289.025 200.369 289.946 199.33 291.03C197.799 292.653 196.457 294.444 195.33 296.37C193.96 298.778 192.468 301.114 190.86 303.37C189.351 305.424 187.399 307.113 185.148 308.311C182.898 309.509 180.407 310.185 177.86 310.29C176.331 310.367 174.798 310.222 173.31 309.86C172.907 309.769 172.509 309.652 172.12 309.51C171.982 309.465 171.849 309.408 171.72 309.34C173.723 309.821 175.783 310.017 177.84 309.92C180.061 309.768 182.231 309.188 184.23 308.21C186.674 307.01 188.793 305.24 190.41 303.05C192.18 300.75 193.52 298.29 194.88 296.15C196.043 294.206 197.437 292.41 199.03 290.8C200.115 289.715 201.372 288.816 202.75 288.14C203.126 287.964 203.514 287.814 203.91 287.69C204.057 287.626 204.212 287.582 204.37 287.56Z" fill="#FAFAFA"/>
<path d="M180.52 375.49H180.28L179.61 375.33C179.31 375.25 178.94 375.2 178.5 375.13C177.997 375.046 177.489 374.99 176.98 374.96C173.716 374.81 170.45 375.23 167.33 376.2C165.162 376.824 163.04 377.599 160.98 378.52C158.76 379.52 156.46 380.74 153.98 381.91C151.389 383.183 148.684 384.207 145.9 384.97C144.413 385.354 142.893 385.595 141.36 385.69C139.775 385.766 138.187 385.652 136.63 385.35C133.588 384.661 130.684 383.464 128.04 381.81C125.46 380.27 123.15 378.52 120.94 376.9C116.57 373.62 112.39 370.9 108.42 369.72C106.647 369.17 104.806 368.867 102.95 368.82C101.551 368.793 100.154 368.958 98.8 369.31C97.6491 369.634 96.5361 370.08 95.48 370.64L95.67 370.5L96.27 370.14C97.0563 369.714 97.8882 369.379 98.75 369.14C100.12 368.752 101.537 368.557 102.96 368.56C104.843 368.576 106.715 368.855 108.52 369.39C112.58 370.54 116.83 373.28 121.22 376.54C123.44 378.16 125.75 379.88 128.3 381.4C130.895 383.022 133.745 384.195 136.73 384.87C138.244 385.168 139.789 385.279 141.33 385.2C142.829 385.114 144.316 384.883 145.77 384.51C148.524 383.762 151.203 382.757 153.77 381.51C156.25 380.35 158.56 379.13 160.77 378.16C162.852 377.246 164.998 376.484 167.19 375.88C170.351 374.93 173.658 374.561 176.95 374.79C178.167 374.856 179.368 375.092 180.52 375.49Z" fill="#FAFAFA"/>
<path d="M81.6703 366.61C81.6703 366.61 81.7203 366.73 81.7503 366.96C81.8131 367.29 81.8531 367.624 81.8703 367.96C81.9701 369.199 81.9164 370.445 81.7103 371.67C81.4147 373.512 80.7033 375.263 79.6303 376.79C78.2557 378.605 76.5059 380.102 74.5003 381.18C72.5003 382.41 70.4303 383.44 68.7803 384.64C67.2889 385.652 65.9832 386.914 64.9203 388.37C64.2181 389.354 63.8184 390.522 63.7703 391.73C63.7703 392.59 63.9003 393.06 63.8403 393.07C63.7811 392.968 63.7405 392.856 63.7203 392.74C63.6345 392.413 63.5809 392.078 63.5603 391.74C63.5198 390.476 63.8689 389.229 64.5603 388.17C65.6086 386.638 66.9267 385.31 68.4503 384.25C70.1303 383 72.1603 381.95 74.1803 380.74C76.1208 379.69 77.8231 378.25 79.1803 376.51C80.2311 375.049 80.9511 373.377 81.2903 371.61C81.5191 370.411 81.6264 369.191 81.6103 367.97C81.598 367.516 81.618 367.061 81.6703 366.61Z" fill="#FAFAFA"/>
<path d="M232.58 325.22C230.527 325.565 228.532 326.191 226.65 327.08C224.636 328.063 222.827 329.421 221.32 331.08C220.439 332.065 219.68 333.153 219.06 334.32C218.4 335.53 217.95 336.9 217.3 338.25C216.705 339.609 215.805 340.814 214.67 341.77C213.603 342.641 212.391 343.318 211.09 343.77C208.901 344.495 206.59 344.781 204.29 344.61C202.754 344.518 201.225 344.337 199.71 344.07C199.152 343.997 198.6 343.88 198.06 343.72C198.623 343.722 199.185 343.772 199.74 343.87C200.82 343.98 202.37 344.19 204.3 344.24C206.549 344.354 208.799 344.038 210.93 343.31C212.226 342.89 213.42 342.205 214.436 341.297C215.452 340.39 216.267 339.281 216.83 338.04C217.46 336.72 217.92 335.34 218.61 334.09C219.267 332.898 220.069 331.793 221 330.8C222.558 329.096 224.438 327.716 226.53 326.74C227.925 326.078 229.406 325.613 230.93 325.36C231.344 325.292 231.761 325.245 232.18 325.22C232.312 325.198 232.448 325.198 232.58 325.22Z" fill="#FAFAFA"/>
<path d="M182.88 333.66L182.65 333.73L181.97 333.88C181.37 334.01 180.48 334.17 179.32 334.35C176.055 334.854 172.754 335.088 169.45 335.05C164.533 335.015 159.654 334.188 155 332.6C152.274 331.61 149.643 330.375 147.14 328.91C144.488 327.338 141.712 325.983 138.84 324.86C137.38 324.344 135.862 324.008 134.32 323.86C132.82 323.747 131.312 323.821 129.83 324.08C127.036 324.652 124.341 325.629 121.83 326.98C116.98 329.55 112.9 332.41 109.21 334.4C106.357 336.094 103.246 337.31 100 338C99.1225 338.189 98.2278 338.286 97.3301 338.29H96.6301C96.5505 338.301 96.4698 338.301 96.3901 338.29H96.6301L97.3201 338.21C98.2099 338.158 99.0933 338.027 99.9601 337.82C103.158 337.061 106.217 335.809 109.03 334.11C112.66 332.11 116.72 329.2 121.6 326.58C124.16 325.18 126.913 324.169 129.77 323.58C131.294 323.309 132.846 323.228 134.39 323.34C135.978 323.497 137.539 323.849 139.04 324.39C141.939 325.522 144.739 326.893 147.41 328.49C149.893 329.938 152.496 331.169 155.19 332.17C159.79 333.762 164.613 334.616 169.48 334.7C172.765 334.773 176.052 334.595 179.31 334.17C180.47 334.02 181.36 333.89 181.97 333.79L182.66 333.7C182.731 333.677 182.805 333.664 182.88 333.66Z" fill="#FAFAFA"/>
<path d="M85.13 339.44C85.2275 338.929 85.2069 338.402 85.07 337.9C84.7892 337.253 84.3577 336.681 83.8116 336.234C83.2654 335.787 82.6203 335.477 81.93 335.33C81.06 335.07 80.07 334.92 79.01 334.68C77.835 334.463 76.7321 333.958 75.8 333.21C74.8229 332.329 74.063 331.234 73.58 330.01C73.088 328.71 72.7034 327.373 72.43 326.01C72.1705 324.684 71.7889 323.385 71.29 322.13C70.8098 320.974 70.1812 319.884 69.42 318.89C68.1357 317.188 66.485 315.797 64.59 314.82C63.3304 314.16 61.9837 313.682 60.59 313.4C59.59 313.2 59.02 313.16 59.02 313.11C59.1586 313.082 59.3014 313.082 59.44 313.11C59.8352 313.122 60.2293 313.159 60.62 313.22C62.0769 313.422 63.4917 313.858 64.81 314.51C66.7705 315.478 68.4814 316.884 69.81 318.62C70.6227 319.636 71.2954 320.756 71.81 321.95C72.3277 323.244 72.7228 324.583 72.99 325.95C73.2551 327.274 73.6263 328.575 74.1 329.84C74.5518 330.983 75.256 332.008 76.16 332.84C77.0276 333.554 78.0582 334.041 79.16 334.26C80.16 334.52 81.16 334.69 82.09 334.98C82.8216 335.156 83.4987 335.508 84.062 336.007C84.6252 336.506 85.0572 337.135 85.32 337.84C85.4216 338.237 85.4216 338.653 85.32 339.05C85.286 339.192 85.2211 339.326 85.13 339.44Z" fill="#FAFAFA"/>
<path d="M164.11 288.15C163.181 287.638 162.194 287.239 161.17 286.96C159.956 286.71 158.704 286.71 157.49 286.96C155.872 287.278 154.302 287.806 152.82 288.53C151.15 289.28 149.39 290.26 147.47 291.27C145.436 292.403 143.278 293.298 141.04 293.94C138.522 294.556 135.903 294.641 133.35 294.19C130.63 293.693 127.991 292.821 125.51 291.6C120.4 289.11 116.15 285.77 112.05 283.17C108.517 280.711 104.571 278.906 100.4 277.84C97.5823 277.149 94.6432 277.114 91.8101 277.74C90.7934 278.021 89.792 278.355 88.8101 278.74C89.7516 278.209 90.7608 277.809 91.8101 277.55C94.6705 276.836 97.6601 276.815 100.53 277.49C104.762 278.515 108.771 280.304 112.36 282.77C116.5 285.36 120.75 288.69 125.78 291.14C128.218 292.341 130.809 293.202 133.48 293.7C135.965 294.141 138.515 294.066 140.97 293.48C143.179 292.866 145.309 292.001 147.32 290.9C149.24 289.9 151.02 288.9 152.72 288.2C154.239 287.492 155.842 286.981 157.49 286.68C158.746 286.466 160.033 286.514 161.27 286.82C162.039 287.033 162.778 287.342 163.47 287.74C163.691 287.865 163.904 288.002 164.11 288.15Z" fill="#FAFAFA"/>
<path d="M158.46 415.11L161.24 416.5H177.24L180.47 413.86L168.83 394.6C167.4 395.23 161.12 396.21 159.09 396.92C157.339 397.535 155.496 397.846 153.64 397.84C151.571 397.886 149.504 397.715 147.47 397.33L147.03 397.19C146.759 397.073 146.466 397.012 146.17 397.01C144.44 396.86 143.07 398.67 144.04 400.1C145.01 401.53 149.74 403.44 155.78 403.27H156.07C161.37 403.27 156.51 407.71 153.36 410.35C152.804 410.799 152.372 411.383 152.106 412.047C151.84 412.71 151.748 413.431 151.84 414.14C151.858 414.395 151.931 414.643 152.054 414.867C152.176 415.092 152.346 415.287 152.55 415.44C153.89 416.29 158.46 415.11 158.46 415.11Z" fill="#FFBE9D"/>
<path d="M93.1703 412.72C93.1596 412.627 93.1596 412.533 93.1703 412.44C93.1703 412.22 93.1703 411.95 93.1703 411.61C93.1703 410.84 93.2303 409.77 93.2803 408.42C93.4003 405.62 93.5603 401.63 93.7703 396.71C94.1803 386.79 94.7703 373.15 95.3803 358.08C95.9903 343.01 96.3803 329.32 96.6603 319.43C96.7703 314.51 96.8503 310.52 96.9103 307.71C96.9103 306.36 96.9603 305.29 96.9803 304.52C96.9803 304.18 96.9803 303.91 96.9803 303.7C96.9676 303.604 96.9676 303.506 96.9803 303.41C96.9953 303.506 96.9953 303.604 96.9803 303.7C96.9803 303.91 96.9803 304.19 96.9803 304.52C96.9803 305.29 96.9803 306.36 96.9803 307.71C96.9803 310.48 96.9803 314.48 96.9003 319.43C96.7603 329.33 96.3603 343 95.7703 358.1C95.1803 373.2 94.5303 386.85 94.0103 396.73C93.7303 401.64 93.5103 405.63 93.3503 408.43C93.2603 409.78 93.1903 410.85 93.1403 411.61L93.0703 412.44C93.114 412.529 93.1475 412.623 93.1703 412.72Z" fill="#263238"/>
<path d="M136.7 414.62C136.685 414.497 136.685 414.373 136.7 414.25C136.7 413.98 136.65 413.62 136.61 413.16L136.32 408.95C136.2 407.13 136.05 404.89 135.97 402.29C135.89 399.69 135.7 396.74 135.68 393.47C135.66 390.2 135.54 386.61 135.59 382.76C135.59 380.84 135.59 378.85 135.59 376.76C135.59 374.67 135.68 372.6 135.73 370.44C135.98 361.79 136.43 352.29 137.13 342.33C138.53 322.4 140.31 304.41 141.45 291.38C142.01 284.88 142.45 279.62 142.79 275.94C142.94 274.15 143.07 272.74 143.15 271.75C143.2 271.29 143.23 270.93 143.26 270.66C143.29 270.39 143.31 270.29 143.31 270.29C143.324 270.413 143.324 270.537 143.31 270.66L143.26 271.76C143.19 272.76 143.1 274.16 142.99 275.96C142.76 279.61 142.35 284.89 141.82 291.41C140.77 304.41 139.05 322.41 137.65 342.36C136.95 352.36 136.49 361.81 136.21 370.45C136.21 372.61 136.1 374.72 136.05 376.77C136 378.82 136.05 380.77 135.98 382.77C135.92 386.61 135.98 390.19 135.98 393.46C135.98 396.73 136.13 399.69 136.19 402.28C136.25 404.87 136.36 407.12 136.45 408.94C136.54 410.76 136.6 412.16 136.65 413.15V414.25C136.68 414.371 136.697 414.495 136.7 414.62Z" fill="#263238"/>
<path d="M144.06 316.1C144.01 316.05 144.57 315.82 145.19 316.35C145.368 316.507 145.505 316.704 145.59 316.925C145.675 317.146 145.706 317.385 145.68 317.62C145.616 317.911 145.466 318.176 145.25 318.381C145.034 318.585 144.761 318.721 144.468 318.769C144.174 318.818 143.872 318.777 143.602 318.652C143.331 318.528 143.104 318.325 142.95 318.07C142.85 317.857 142.802 317.624 142.811 317.389C142.82 317.154 142.885 316.925 143 316.72C143.41 316.01 144 316.05 144 316.12C144 316.19 143.57 316.29 143.34 316.88C143.267 317.037 143.229 317.207 143.229 317.38C143.229 317.553 143.267 317.723 143.34 317.88C143.458 318.031 143.614 318.147 143.792 318.217C143.971 318.286 144.164 318.306 144.353 318.274C144.541 318.242 144.718 318.16 144.864 318.036C145.009 317.912 145.119 317.751 145.18 317.57C145.201 317.404 145.187 317.236 145.139 317.075C145.09 316.915 145.009 316.767 144.9 316.64C144.52 316.13 144.06 316.19 144.06 316.1Z" fill="#263238"/>
<path d="M141.25 361C141.2 360.95 141.77 360.71 142.39 361.25C142.565 361.407 142.7 361.603 142.783 361.822C142.867 362.041 142.897 362.277 142.87 362.51C142.819 362.806 142.673 363.078 142.455 363.285C142.237 363.492 141.959 363.624 141.66 363.66C141.367 363.719 141.062 363.684 140.789 363.56C140.516 363.436 140.289 363.23 140.14 362.97C140.043 362.755 139.998 362.519 140.008 362.283C140.019 362.047 140.084 361.816 140.2 361.61C140.61 360.9 141.2 360.95 141.2 361.01C141.2 361.07 140.77 361.19 140.54 361.77C140.464 361.926 140.425 362.097 140.425 362.27C140.425 362.443 140.464 362.614 140.54 362.77C140.645 362.94 140.797 363.075 140.979 363.158C141.161 363.241 141.363 363.267 141.56 363.234C141.757 363.2 141.939 363.109 142.084 362.971C142.228 362.833 142.328 362.655 142.37 362.46C142.393 362.296 142.38 362.128 142.332 361.969C142.284 361.81 142.201 361.664 142.09 361.54C141.72 361 141.25 361.07 141.25 361Z" fill="#263238"/>
<path d="M213 391.85C212.549 391.839 212.1 391.782 211.66 391.68C210.452 391.423 209.272 391.045 208.14 390.55C204.371 388.876 201.222 386.06 199.14 382.5C198.088 380.519 197.253 378.43 196.65 376.27C196.156 374.538 195.411 372.887 194.44 371.37C193.77 370.364 192.907 369.5 191.9 368.83C191.17 368.38 190.71 368.23 190.73 368.18C190.847 368.189 190.962 368.216 191.07 368.26C191.392 368.364 191.703 368.498 192 368.66C193.088 369.279 194.024 370.133 194.74 371.16C195.781 372.696 196.58 374.382 197.11 376.16C197.724 378.28 198.555 380.331 199.59 382.28C201.625 385.761 204.66 388.548 208.3 390.28C209.824 390.925 211.395 391.45 213 391.85Z" fill="#FAFAFA"/>
<path d="M315.44 416.47L298.44 367.13L306.3 319.79C308.59 307.02 309.87 295.79 306.44 289.36C297.27 272.23 286.2 270.69 271.08 266.76C267.96 265.95 244.23 265.15 241.62 265.76C221.03 268.07 207.85 278.99 200.62 296.76L192.78 328.36L182.01 361.36C181.109 363.277 179.788 364.968 178.145 366.306C176.503 367.644 174.58 368.595 172.52 369.09L131 383.28L131.35 391.41L131 402.41L186.3 392C197.38 389.92 208.65 385.83 211.83 375.14L217.78 357.52C220.69 364.98 223.86 371.82 223.86 371.82L219.86 416.25L315.44 416.47Z" fill="#455A64"/>
<path d="M301.2 328.81L285.4 381.64C284.194 385.668 282.011 389.335 279.045 392.315C276.079 395.295 272.422 397.495 268.4 398.72L202.64 416.24L193.92 393.54L253.36 371.44L267.95 318.54C267.95 318.54 271.32 288.96 298.07 290.48" fill="#455A64"/>
<path d="M298.06 290.48H297.26C296.73 290.48 295.95 290.42 294.92 290.48C291.909 290.566 288.935 291.171 286.13 292.27C284.103 293.064 282.195 294.134 280.46 295.45C278.404 297.032 276.583 298.897 275.05 300.99C271.384 306.202 269.009 312.21 268.12 318.52C264.12 333.24 259.12 351.26 253.59 371.45V371.57H253.48L194 393.78L194.15 393.45L195.7 397.45C198.15 403.85 200.57 410.15 202.86 416.12L202.55 415.96L259.05 400.96L265.42 399.26C266.42 398.98 267.51 398.72 268.53 398.42C269.531 398.105 270.513 397.731 271.47 397.3C276.952 394.82 281.362 390.455 283.9 385C284.656 383.311 285.278 381.566 285.76 379.78C286.813 376.287 287.813 372.953 288.76 369.78C292.61 357.04 295.7 346.78 297.83 339.78L300.3 331.68L300.95 329.59C301.1 329.12 301.19 328.88 301.19 328.88C301.19 328.88 301.13 329.13 301 329.6C300.87 330.07 300.66 330.79 300.39 331.71C299.84 333.58 299.04 336.31 298.01 339.84L289.09 369.91C288.15 373.103 287.15 376.437 286.09 379.91C285.611 381.716 284.989 383.482 284.23 385.19C283.424 386.966 282.418 388.643 281.23 390.19C278.689 393.447 275.404 396.046 271.65 397.77C270.672 398.209 269.671 398.593 268.65 398.92C267.65 399.22 266.58 399.48 265.53 399.77L259.16 401.47L202.67 416.55L202.45 416.61L202.37 416.4C200.08 410.4 197.65 404.12 195.2 397.73L193.65 393.73L193.56 393.49L193.8 393.4L253.25 371.32L253.1 371.48C258.69 351.31 263.68 333.29 267.75 318.59C268.659 312.227 271.08 306.174 274.81 300.94C276.362 298.828 278.211 296.952 280.3 295.37C282.058 294.053 283.989 292.986 286.04 292.2C288.867 291.104 291.868 290.525 294.9 290.49C295.679 290.447 296.461 290.447 297.24 290.49L298.06 290.48Z" fill="#263238"/>
<path d="M256.63 359.57C256.371 359.628 256.105 359.648 255.84 359.63C255.123 359.625 254.409 359.541 253.71 359.38C251.382 358.838 249.233 357.705 247.47 356.09C245.683 354.511 244.293 352.535 243.41 350.32C243.25 349.941 243.12 349.549 243.02 349.15C242.929 348.856 242.863 348.555 242.82 348.25C242.74 347.75 242.71 347.47 242.75 347.47C242.79 347.47 243.02 348.55 243.75 350.17C244.702 352.277 246.085 354.161 247.81 355.7C249.525 357.258 251.579 358.395 253.81 359.02C255.51 359.48 256.63 359.46 256.63 359.57Z" fill="#263238"/>
<path d="M217.58 319.39C217.445 319.923 217.261 320.441 217.03 320.94C216.64 321.94 216.03 323.35 215.4 325.13C214.1 328.66 212.27 333.67 212.08 339.43C211.985 342.139 212.354 344.845 213.17 347.43C213.84 349.528 214.749 351.541 215.88 353.43C216.642 354.711 217.473 355.95 218.37 357.14C218.733 357.564 219.067 358.012 219.37 358.48C219.37 358.48 219.25 358.39 219.05 358.18C218.85 357.97 218.58 357.68 218.24 357.27C217.265 356.121 216.376 354.901 215.58 353.62C214.394 351.716 213.438 349.679 212.73 347.55C211.883 344.926 211.494 342.176 211.58 339.42C211.894 334.449 213.068 329.57 215.05 325C215.76 323.24 216.4 321.84 216.84 320.87C217.048 320.358 217.295 319.863 217.58 319.39Z" fill="#263238"/>
<path d="M259.14 378.49C258.502 377.03 257.69 375.653 256.72 374.39C255.618 373.242 254.378 372.235 253.03 371.39C253.515 371.43 253.983 371.592 254.39 371.86C256.476 372.978 258.072 374.831 258.87 377.06C259.076 377.507 259.169 377.998 259.14 378.49Z" fill="#263238"/>
<path d="M195.13 396.7C195.13 396.7 176.32 398.38 176.58 410.6L200 409.41L195.13 396.7Z" fill="#B78876"/>
<path d="M225.45 191.93C223.73 200.25 222.09 208.583 220.53 216.93C218.53 227.51 216.73 238.57 219.72 248.93C221.36 254.61 224.38 259.77 227.37 264.87C229.05 267.73 230.89 270.75 233.87 272.23C237.92 274.23 243.04 272.65 246.27 269.48C249.5 266.31 251.13 261.89 252.27 257.48C254.44 248.94 254.92 240.07 255.27 231.26C255.62 222.45 255.8 213.31 253.27 204.77C250.74 196.23 245.2 188.15 236.95 184.77" fill="#263238"/>
<path d="M226.81 185.25C229.164 183.42 232.022 182.355 235 182.2C237.4 177.34 243.09 175.11 248.41 174.08C256.25 172.55 255.41 172.34 262.7 175.56C269.99 178.78 280.37 187.88 281.7 195.76C282.908 202.672 285.122 209.369 288.27 215.64C290.27 219.79 294.17 222.64 296.48 226.64C297.726 228.809 298.459 231.234 298.624 233.73C298.789 236.226 298.38 238.726 297.43 241.04C295.55 245.55 291.56 249.53 291.94 254.39C292.15 257.22 292.05 259.24 293.17 261.85C296.96 270.69 295.17 282.47 287.03 287.57C278.89 292.67 267.11 290.89 260.82 283.57C255.36 277.25 254.31 268.23 254.82 259.89C255.33 251.55 257.25 243.26 256.71 234.89" fill="#263238"/>
<path d="M236.15 416.24L236.03 413.36L193.63 408.89L175.05 355.48L95.48 353.68L119.55 416.24C158.89 416.54 197.757 416.54 236.15 416.24Z" fill="#263238"/>
<path d="M139.63 385.82C140.04 386.533 140.653 387.109 141.391 387.474C142.128 387.839 142.957 387.977 143.773 387.87C144.589 387.764 145.355 387.418 145.974 386.877C146.594 386.335 147.039 385.622 147.253 384.827C147.467 384.033 147.44 383.193 147.177 382.413C146.913 381.634 146.424 380.95 145.772 380.448C145.12 379.946 144.334 379.649 143.513 379.594C142.692 379.54 141.873 379.73 141.16 380.14C140.204 380.69 139.506 381.598 139.219 382.663C138.932 383.728 139.08 384.864 139.63 385.82Z" fill="white"/>
<path d="M255.46 287.42C265 287.42 273.58 279.29 273.3 267.21L275.02 198.21C275.05 196.765 274.537 195.362 273.581 194.279C272.625 193.195 271.297 192.51 269.86 192.36L241.43 189.36C239.107 189.115 236.758 189.343 234.525 190.03C232.292 190.716 230.221 191.848 228.437 193.356C226.652 194.863 225.192 196.717 224.142 198.804C223.093 200.891 222.476 203.169 222.33 205.5C221.65 216.42 221.24 229.79 222.53 237.94C225.13 254.33 237.7 256.42 237.7 256.42L237.39 267.87C236.91 280.07 246.04 287.41 255.46 287.41V287.42Z" fill="#B78876"/>
<path d="M228.69 214.4C228.684 214.944 228.889 215.468 229.262 215.863C229.635 216.259 230.147 216.494 230.69 216.52C230.957 216.542 231.225 216.51 231.479 216.426C231.734 216.342 231.968 216.208 232.17 216.032C232.371 215.856 232.535 215.641 232.652 215.4C232.769 215.159 232.836 214.897 232.85 214.63C232.858 214.086 232.654 213.56 232.281 213.164C231.907 212.768 231.394 212.533 230.85 212.51C230.583 212.488 230.315 212.52 230.061 212.604C229.807 212.688 229.572 212.822 229.37 212.998C229.169 213.175 229.005 213.389 228.888 213.63C228.771 213.871 228.704 214.133 228.69 214.4Z" fill="#263238"/>
<path d="M225.23 212.46C225.49 212.73 227.09 211.56 229.35 211.56C231.61 211.56 233.27 212.7 233.51 212.42C233.63 212.3 233.37 211.81 232.65 211.28C231.665 210.613 230.499 210.264 229.31 210.28C228.135 210.278 226.99 210.649 226.04 211.34C225.34 211.84 225.11 212.34 225.23 212.46Z" fill="#263238"/>
<path d="M250.53 214.82C250.522 215.364 250.726 215.89 251.1 216.286C251.473 216.682 251.986 216.917 252.53 216.94C252.798 216.963 253.067 216.932 253.322 216.849C253.578 216.766 253.814 216.632 254.016 216.456C254.219 216.279 254.384 216.064 254.501 215.822C254.619 215.581 254.686 215.318 254.7 215.05C254.706 214.506 254.501 213.982 254.128 213.587C253.755 213.191 253.243 212.956 252.7 212.93C252.432 212.907 252.163 212.938 251.908 213.021C251.652 213.104 251.416 213.238 251.214 213.414C251.011 213.591 250.846 213.806 250.729 214.048C250.611 214.289 250.544 214.552 250.53 214.82Z" fill="#263238"/>
<path d="M247.47 212.88C247.73 213.16 249.32 211.98 251.58 211.98C253.84 211.98 255.5 213.12 255.75 212.84C255.87 212.72 255.61 212.23 254.88 211.7C253.898 211.035 252.736 210.686 251.55 210.7C250.372 210.698 249.224 211.069 248.27 211.76C247.58 212.26 247.34 212.76 247.47 212.88Z" fill="#263238"/>
<path d="M239.26 229.66C238.069 229.288 236.836 229.067 235.59 229C235.01 228.94 234.46 228.82 234.36 228.43C234.315 227.831 234.451 227.231 234.75 226.71C235.29 225.32 235.86 223.85 236.46 222.32C238.83 216.05 240.55 210.9 240.29 210.81C240.03 210.72 237.91 215.72 235.54 221.98C234.97 223.53 234.42 224.98 233.9 226.41C233.543 227.106 233.437 227.905 233.6 228.67C233.684 228.874 233.814 229.056 233.978 229.203C234.143 229.351 234.338 229.459 234.55 229.52C234.876 229.608 235.212 229.652 235.55 229.65C236.781 229.813 238.028 229.817 239.26 229.66Z" fill="#263238"/>
<path d="M237.7 256.43C245.418 256.546 253.017 254.517 259.65 250.57C259.65 250.57 254.32 261.83 237.92 260.3L237.7 256.43Z" fill="#AA6550"/>
<path d="M240.22 235.11C240.646 234.564 241.206 234.138 241.846 233.873C242.485 233.608 243.183 233.514 243.87 233.6C244.368 233.645 244.852 233.789 245.294 234.025C245.735 234.26 246.125 234.581 246.44 234.97C246.743 235.347 246.923 235.809 246.955 236.292C246.988 236.775 246.871 237.256 246.62 237.67C246.254 238.084 245.772 238.377 245.236 238.511C244.701 238.645 244.137 238.613 243.62 238.42C242.554 238.04 241.572 237.456 240.73 236.7C240.477 236.518 240.261 236.291 240.09 236.03C240.004 235.905 239.958 235.757 239.958 235.605C239.958 235.453 240.004 235.305 240.09 235.18" fill="#AA6550"/>
<path d="M245.92 231.22C245.55 231.22 245.54 233.66 243.44 235.4C241.34 237.14 238.73 236.87 238.71 237.22C238.71 237.37 239.29 237.69 240.4 237.72C241.854 237.752 243.271 237.267 244.4 236.35C245.469 235.473 246.154 234.214 246.31 232.84C246.36 231.82 246.08 231.21 245.92 231.22Z" fill="#263238"/>
<path d="M246.45 208.92C246.67 209.54 248.93 209.25 251.59 209.57C254.25 209.89 256.39 210.57 256.74 210.06C256.9 209.79 256.52 209.22 255.66 208.62C254.511 207.876 253.202 207.416 251.84 207.28C250.488 207.122 249.118 207.283 247.84 207.75C246.85 208.15 246.36 208.63 246.45 208.92Z" fill="#263238"/>
<path d="M226.06 205.91C226.46 206.43 228.06 205.91 229.9 205.91C231.74 205.91 233.36 206.25 233.72 205.72C233.88 205.46 233.63 204.94 232.94 204.46C232.01 203.872 230.925 203.576 229.826 203.61C228.726 203.644 227.662 204.006 226.77 204.65C226.11 205.13 225.89 205.66 226.06 205.91Z" fill="#263238"/>
<path d="M222.67 202.78C228.84 199.2 234.85 195.89 238.67 189.89C240.8 195.89 244.96 198.89 250.48 202.08C256 205.27 262.17 207.14 268.28 208.97C265.19 211.97 264.78 216.82 265.49 221.07C266.2 225.32 267.83 229.41 268.1 233.71C268.45 239.45 266.35 245.08 266.22 250.83C266.04 258.72 269.52 266.17 272.93 273.28L287.74 264.65L285.61 226.2L285.79 198.99L262.7 177.53L233.46 180.73L222.67 202.78Z" fill="#263238"/>
<path d="M219.38 283.63C226.89 291.22 226.09 304.75 234.38 311.54C239.44 315.7 246.83 316.09 253.04 313.99C259.25 311.89 264.47 307.64 269.26 303.16C274.05 298.68 278.58 293.87 284.03 290.24C289.32 286.71 298.38 284.54 299.66 278.3C300.6 273.74 295.8 268.25 294.9 263.68C293.47 256.42 301.32 250.81 302.63 243.53C305.25 228.98 297.57 211.9 289.57 199.53C281.57 187.16 277.05 173.15 256.77 172C238.62 171.19 226.26 179.9 220.22 192.5C217.22 198.81 216.49 205.95 215.9 212.93C214.53 229.23 213.77 246.51 221.3 261.03C222.86 264.03 224.72 267.85 222.62 270.51C220.7 272.94 216.35 272.84 215.13 275.69C213.91 278.54 217.12 281.34 219.38 283.63ZM242 187C244.43 186.9 251.64 187 259.68 197.71C264.49 204.12 264.48 214.5 264.38 223.55C264.29 230.28 264.38 247.31 264.38 247.31C264.38 247.31 265.44 268.82 258.13 270.72C249.13 273.06 241.3 271.45 234.59 265.06C227.88 258.67 224.04 249.7 222.51 240.56C220.98 231.42 220.12 222.1 221.32 212.91C221.952 207.271 223.816 201.839 226.78 197C228.468 194.354 230.697 192.095 233.32 190.372C235.943 188.648 238.901 187.499 242 187Z" fill="#FF6F61"/>
<g opacity="0.3">
<path d="M298.06 271.27C292.06 274.53 287.91 279.38 283.06 284.16C278.21 288.94 272.72 293.57 266.06 295.29C259.4 297.01 251.39 294.96 248.06 288.97C266.83 292.17 288.62 277.18 295.06 259.25C294.675 260.808 294.655 262.433 295 264C295.869 266.484 296.891 268.912 298.06 271.27Z" fill="black"/>
</g>
<g opacity="0.3">
<path d="M223.43 266.32C224.082 268.747 225.222 271.016 226.782 272.986C228.342 274.957 230.288 276.588 232.5 277.78C233.527 278.208 234.49 278.777 235.36 279.47C235.789 279.825 236.101 280.301 236.256 280.836C236.411 281.371 236.402 281.94 236.23 282.47C235.913 283.009 235.419 283.422 234.832 283.637C234.244 283.852 233.601 283.857 233.01 283.65C231.859 283.186 230.832 282.46 230.01 281.53C226.74 278.37 223.37 275.17 222.45 270.73C222.982 270.083 223.353 269.319 223.53 268.5C223.576 267.772 223.542 267.041 223.43 266.32Z" fill="black"/>
</g>
<path d="M293.57 262.8C293.502 263.004 293.408 263.199 293.29 263.38C293.08 263.75 292.81 264.32 292.38 265C291.204 266.952 289.908 268.829 288.5 270.62C286.43 273.297 284.138 275.796 281.65 278.09C278.619 280.939 275.181 283.322 271.45 285.16C269.482 286.02 267.457 286.745 265.39 287.33C263.467 287.89 261.509 288.324 259.53 288.63C256.182 289.176 252.779 289.304 249.4 289.01C247.127 288.803 244.88 288.374 242.69 287.73C241.91 287.52 241.33 287.28 240.93 287.14C240.72 287.083 240.518 286.999 240.33 286.89C240.33 286.89 241.19 287.13 242.75 287.53C244.942 288.101 247.181 288.473 249.44 288.64C252.781 288.879 256.138 288.718 259.44 288.16C261.393 287.843 263.323 287.402 265.22 286.84C267.266 286.257 269.27 285.539 271.22 284.69C274.903 282.856 278.302 280.498 281.31 277.69C283.795 275.43 286.095 272.975 288.19 270.35C289.619 268.588 290.954 266.752 292.19 264.85C292.64 264.19 292.94 263.64 293.19 263.29C293.304 263.117 293.431 262.954 293.57 262.8Z" fill="#263238"/>
<path d="M247.54 281.35C247.159 281.505 246.759 281.61 246.35 281.66C245.248 281.86 244.13 281.96 243.01 281.96C239.27 281.973 235.598 280.963 232.391 279.04C229.183 277.117 226.562 274.354 224.81 271.05C224.28 270.059 223.841 269.021 223.5 267.95C223.355 267.564 223.261 267.16 223.22 266.75C223.787 268.156 224.428 269.531 225.14 270.87C226.928 274.056 229.515 276.72 232.647 278.6C235.78 280.481 239.348 281.511 243 281.59C245.81 281.67 247.53 281.24 247.54 281.35Z" fill="#263238"/>
<path d="M243.65 306.13C243.835 306.053 244.031 306.003 244.23 305.98C244.61 305.89 245.23 305.81 245.91 305.63C247.965 305.188 249.992 304.623 251.98 303.94C258.525 301.618 264.684 298.325 270.25 294.17C275.806 290 281.068 285.452 286 280.56L290.54 276.16C291.04 275.67 291.46 275.28 291.78 274.97C291.919 274.824 292.073 274.693 292.24 274.58C292.129 274.746 292.002 274.9 291.86 275.04L290.68 276.3C289.68 277.38 288.15 278.93 286.26 280.82C281.386 285.808 276.137 290.414 270.56 294.6C264.956 298.783 258.726 302.054 252.1 304.29C250.088 304.946 248.033 305.461 245.95 305.83C245.22 305.98 244.63 306.03 244.24 306.08C244.046 306.121 243.848 306.138 243.65 306.13Z" fill="#263238"/>
<path d="M595.81 327.11L560.53 285.51L560.45 285.59C559.06 284.22 557.84 283 557.22 282.29C545 268.13 535.29 263.29 516.58 263.03L480.22 263.81C473.46 264.37 458.12 261.48 443.93 280.29C418.08 312.68 397.35 340.23 398.52 353.23C399.99 369.68 462.73 416.58 462.73 416.58L548.97 416.51L548.79 409.94L586 385.79C599.42 376.72 606.43 368.79 608.13 356.79C609.62 346.11 603 335.11 595.81 327.11ZM437.81 351.87C437.81 349.34 451.41 333.39 458.81 324.87L462.66 361.7L462 376.09L437.81 351.87ZM547.22 374.54L545.17 326L573.29 355.09L547.22 374.54Z" fill="#455A64"/>
<path d="M493.329 347.437L429.58 378.944C427.886 379.781 427.192 381.832 428.029 383.525L448.636 425.221C449.473 426.914 451.524 427.608 453.217 426.772L516.967 395.265C518.66 394.428 519.354 392.377 518.517 390.684L497.91 348.988C497.073 347.295 495.022 346.6 493.329 347.437Z" fill="#E0E0E0"/>
<path d="M473 383.19C473.667 382.783 474.439 382.582 475.22 382.613C476 382.645 476.754 382.907 477.386 383.367C478.017 383.827 478.498 384.464 478.768 385.197C479.037 385.93 479.083 386.727 478.9 387.486C478.717 388.246 478.313 388.934 477.738 389.464C477.164 389.993 476.446 390.341 475.674 390.462C474.902 390.584 474.112 390.473 473.402 390.145C472.693 389.817 472.097 389.287 471.69 388.62C471.144 387.726 470.975 386.652 471.221 385.634C471.466 384.615 472.106 383.736 473 383.19Z" fill="white"/>
<path d="M544.63 291.46C544.643 291.566 544.643 291.674 544.63 291.78C544.63 292.02 544.63 292.32 544.63 292.71C544.63 293.56 544.63 294.76 544.63 296.28C544.63 299.42 544.69 303.9 544.73 309.43C544.79 320.53 545.22 335.85 546.08 352.77C546.94 369.69 547.82 385 548.29 396.09C548.53 401.63 548.69 406.09 548.78 409.23C548.78 410.75 548.84 411.95 548.86 412.8C548.86 413.19 548.86 413.49 548.86 413.73C548.871 413.836 548.871 413.944 548.86 414.05C548.849 413.944 548.849 413.837 548.86 413.73C548.86 413.49 548.86 413.19 548.8 412.8C548.8 411.95 548.69 410.8 548.62 409.23C548.46 406.1 548.23 401.62 547.96 396.11C547.35 384.99 546.52 369.69 545.6 352.79C544.68 335.89 544.36 320.53 544.4 309.43C544.4 303.91 544.4 299.43 544.47 296.28C544.47 294.76 544.47 293.56 544.52 292.71C544.52 292.32 544.52 292.02 544.52 291.78C544.547 291.671 544.584 291.563 544.63 291.46Z" fill="#263238"/>
<path d="M454.84 269.71C459.44 266.36 464.79 267.37 469.4 270.71C474.01 274.05 476.57 279.71 477.03 285.38C477.49 291.05 476.03 296.73 473.88 301.99C470.41 310.42 465.28 317.24 457.61 325.92L437.85 351.87L476 389.11L460.19 414.05L428.25 388.34C417.34 379.13 408.06 369.71 401.25 359.97" fill="#455A64"/>
<path d="M401.24 360L401.47 360.3L402.14 361.2C402.73 361.99 403.61 363.2 404.8 364.66C408.223 368.937 411.896 373.007 415.8 376.85C418.3 379.34 421.15 382.01 424.33 384.85C427.51 387.69 431.09 390.5 434.89 393.55L460.29 413.93L459.94 413.99C464.85 406.24 470.18 397.82 475.73 389.04V389.36L456.05 370.16L437.59 352.16L437.43 352.01L437.56 351.83C444.56 342.68 451.18 333.98 457.34 325.89C461.103 321.748 464.594 317.365 467.79 312.77C470.643 308.583 472.952 304.05 474.66 299.28C476.28 295.046 477.042 290.532 476.9 286C476.733 282.187 475.571 278.485 473.53 275.26C471.85 272.667 469.51 270.568 466.75 269.18C464.727 268.103 462.448 267.598 460.16 267.72C458.741 267.832 457.361 268.241 456.11 268.92C455.25 269.38 454.85 269.69 454.84 269.67L455.14 269.44C455.435 269.221 455.746 269.024 456.07 268.85C457.324 268.139 458.714 267.702 460.15 267.57C462.471 267.418 464.79 267.909 466.85 268.99C469.661 270.367 472.049 272.478 473.76 275.1C475.856 278.365 477.056 282.124 477.24 286C477.407 290.519 476.687 295.028 475.12 299.27C473.416 304.081 471.104 308.655 468.24 312.88C465.044 317.494 461.554 321.897 457.79 326.06C451.63 334.15 445 342.86 438.04 352.06V351.72L456.51 369.72L476.18 388.93L476.33 389.08L476.22 389.25C470.66 398.03 465.32 406.44 460.4 414.18L460.26 414.41L460.05 414.24L434.7 393.79C430.91 390.73 427.31 387.89 424.16 385.05C421.01 382.21 418.16 379.54 415.65 377.05C411.752 373.174 408.095 369.063 404.7 364.74C403.53 363.24 402.7 362.04 402.1 361.23C401.82 360.84 401.61 360.53 401.46 360.31C401.31 360.09 401.24 360 401.24 360Z" fill="#263238"/>
<path d="M587 354.4C586.319 354.241 585.651 354.034 585 353.78C581.802 352.764 578.344 352.945 575.27 354.29C574.645 354.609 574.001 354.886 573.34 355.12C573.854 354.626 574.454 354.23 575.11 353.95C576.648 353.171 578.333 352.722 580.055 352.632C581.777 352.542 583.499 352.814 585.11 353.43C585.792 353.64 586.432 353.968 587 354.4Z" fill="#263238"/>
<path d="M483.81 412.88L476.87 416.33C475.186 417.168 473.296 417.502 471.426 417.293C469.557 417.083 467.787 416.34 466.33 415.15L462 411.62L474 392.75C475.41 393.36 481.21 394.18 483.21 394.89C484.942 395.497 486.765 395.801 488.6 395.79C490.648 395.834 492.696 395.666 494.71 395.29C494.84 395.24 495.02 395.2 495.14 395.15C495.412 395.037 495.706 394.986 496 395C497.71 394.84 499.07 396.64 498.11 398C497.15 399.36 492.47 401.3 486.49 401.13H486.21C480.96 401.13 485.78 405.52 488.89 408.13C489.441 408.574 489.868 409.152 490.131 409.809C490.394 410.465 490.483 411.179 490.39 411.88C490.374 412.133 490.304 412.38 490.183 412.602C490.062 412.825 489.894 413.019 489.69 413.17C488.33 414.05 483.81 412.88 483.81 412.88Z" fill="#A36853"/>
<path d="M499.87 280.4C490.67 280.4 482.4 272.56 482.48 260.88L480.82 194.37H481.01C480.983 192.974 481.482 191.618 482.408 190.574C483.335 189.529 484.62 188.87 486.01 188.73L513.43 185.83C515.669 185.594 517.934 185.813 520.087 186.475C522.239 187.136 524.236 188.227 525.956 189.681C527.676 191.135 529.084 192.921 530.095 194.934C531.106 196.946 531.7 199.142 531.84 201.39C532.5 211.92 532.9 224.81 531.65 232.67C529.11 248.5 517 250.52 517 250.52L517.29 261.52C517.76 273.28 508.95 280.36 499.87 280.36V280.4Z" fill="#A36853"/>
<path d="M525.68 210C525.68 210.522 525.476 211.023 525.112 211.397C524.747 211.771 524.251 211.987 523.73 212C523.471 212.022 523.211 211.991 522.965 211.91C522.719 211.83 522.491 211.7 522.296 211.529C522.101 211.358 521.942 211.15 521.829 210.916C521.717 210.683 521.652 210.429 521.64 210.17C521.64 209.64 521.85 209.131 522.225 208.756C522.6 208.381 523.109 208.17 523.64 208.17C524.149 208.158 524.643 208.341 525.022 208.681C525.401 209.021 525.636 209.493 525.68 210Z" fill="#263238"/>
<path d="M529 208.12C528.75 208.39 527.22 207.25 525 207.26C522.78 207.27 521.23 208.35 521 208.09C520.77 207.83 521.14 207.49 521.84 206.98C522.782 206.326 523.903 205.977 525.05 205.98C526.182 205.973 527.288 206.323 528.21 206.98C528.91 207.53 529.14 208 529 208.12Z" fill="#263238"/>
<path d="M504.63 210.4C504.636 210.667 504.59 210.932 504.492 211.181C504.395 211.429 504.248 211.656 504.062 211.847C503.876 212.038 503.653 212.19 503.407 212.293C503.161 212.397 502.897 212.45 502.63 212.45C502.112 212.475 501.605 212.299 501.215 211.957C500.825 211.616 500.583 211.136 500.54 210.62C500.533 210.353 500.58 210.088 500.677 209.839C500.775 209.591 500.921 209.364 501.107 209.173C501.294 208.982 501.517 208.831 501.763 208.727C502.009 208.623 502.273 208.57 502.54 208.57C503.057 208.545 503.564 208.722 503.954 209.063C504.344 209.404 504.586 209.884 504.63 210.4Z" fill="#263238"/>
<path d="M507.57 208.53C507.32 208.8 505.78 207.66 503.57 207.66C501.36 207.66 499.79 208.76 499.57 208.49C499.45 208.38 499.71 207.9 500.41 207.39C501.35 206.732 502.472 206.382 503.62 206.39C504.752 206.383 505.858 206.732 506.78 207.39C507.47 207.93 507.7 208.41 507.57 208.53Z" fill="#263238"/>
<path d="M515.49 224.71C516.637 224.345 517.827 224.13 519.03 224.07C519.59 224.01 520.12 223.9 520.21 223.52C520.257 222.945 520.128 222.37 519.84 221.87C519.31 220.52 518.77 219.11 518.19 217.63C515.9 211.63 514.25 206.63 514.49 206.53C514.73 206.43 516.79 211.26 519.07 217.3C519.63 218.79 520.15 220.21 520.65 221.57C521.004 222.243 521.106 223.019 520.94 223.76C520.858 223.954 520.734 224.128 520.576 224.268C520.419 224.408 520.232 224.511 520.03 224.57C519.72 224.652 519.401 224.696 519.08 224.7C517.888 224.852 516.682 224.855 515.49 224.71Z" fill="#263238"/>
<path d="M517 250.52C509.557 250.63 502.229 248.674 495.83 244.87C495.83 244.87 501.31 256.76 517.12 255.28L517 250.52Z" fill="#8F5039"/>
<path d="M508.55 204.71C508.34 205.31 506.16 205.02 503.6 205.33C501.04 205.64 498.97 206.33 498.6 205.81C498.44 205.55 498.8 204.99 499.6 204.42C500.713 203.715 501.973 203.273 503.284 203.13C504.594 202.986 505.92 203.143 507.16 203.59C508.17 204 508.65 204.43 508.55 204.71Z" fill="#263238"/>
<path d="M528.21 201.81C527.83 202.31 526.32 201.81 524.52 201.81C522.72 201.81 521.18 202.14 520.83 201.62C520.67 201.37 520.92 200.88 521.58 200.41C522.471 199.833 523.52 199.55 524.58 199.6C525.641 199.613 526.671 199.963 527.52 200.6C528.17 201.06 528.38 201.57 528.21 201.81Z" fill="#263238"/>
<path d="M481 209.48C483.69 209 485.84 209.83 486.6 212.48C487.73 216.43 486.96 218.38 487.15 221.1L491.15 219.9C490.15 210.79 492.42 204.05 491.43 194.9C496.99 196.7 504.63 193.26 507 187.5C509.359 189.234 512.161 190.263 515.082 190.469C518.002 190.674 520.921 190.047 523.5 188.66C524.149 189.841 525.156 190.785 526.376 191.357C527.597 191.929 528.967 192.098 530.29 191.84C533.29 190.99 536.47 186.72 537.34 183.69C538.9 178.24 538.14 170.42 533.72 166.87C529.3 163.32 520.44 164.17 517 168.68C515.64 170.46 515.48 173.75 513.29 174.2C511.34 174.6 509.57 173.2 507.79 172.28C502.24 169.53 494.57 173.18 493.2 179.22C488.56 176.45 482.94 174.64 477.75 176.13C472.56 177.62 468.42 183.38 470.19 188.48C470.92 190.62 472.57 192.48 472.75 194.71C473.1 199.06 467.88 203 469.55 207.03C470.48 209.29 473.21 210.29 474.44 212.4C475.82 214.76 474.96 217.74 475.08 220.47C475.26 225.03 477.6 231.78 481.97 233.08" fill="#263238"/>
<path d="M481.41 209.43C480.74 209.525 480.107 209.799 479.579 210.223C479.052 210.648 478.648 211.206 478.41 211.84C477.828 213.052 477.55 214.387 477.6 215.73C477.511 217.83 478.186 219.89 479.5 221.53C480.173 222.327 481.079 222.893 482.091 223.15C483.102 223.406 484.168 223.34 485.14 222.96" fill="#A36853"/>
<path d="M484.14 219.53C484.14 219.58 483.55 219.8 482.62 219.47C482.083 219.264 481.61 218.919 481.25 218.47C480.817 217.889 480.563 217.194 480.52 216.47C480.47 215.778 480.612 215.086 480.93 214.47C481.198 213.964 481.582 213.529 482.05 213.2C482.87 212.66 483.51 212.69 483.5 212.75C483.074 212.967 482.666 213.218 482.28 213.5C481.846 213.862 481.506 214.324 481.29 214.847C481.074 215.37 480.988 215.937 481.04 216.5C481.068 217.055 481.243 217.593 481.547 218.059C481.851 218.524 482.273 218.901 482.77 219.15C483.216 219.312 483.674 219.439 484.14 219.53Z" fill="#8F5039"/>
<path d="M508.55 232.43C510.55 233.8 514.33 233.08 515.75 231.05C512.699 229.386 509.887 227.318 507.39 224.9C507.39 224.9 504.55 229.62 508.55 232.43Z" fill="#FAFAFA"/>
<path d="M515 237.05C514.187 236.726 513.332 236.524 512.46 236.45C511.591 236.523 510.736 236.714 509.92 237.02C509.92 237.02 510.07 236.71 510.52 236.44C511.112 236.1 511.782 235.92 512.465 235.92C513.148 235.92 513.818 236.1 514.41 236.44C514.86 236.73 515.06 237 515 237.05Z" fill="#AA6550"/>
<path d="M490.67 301.08C494.891 294.853 498.728 288.374 502.16 281.68C506.29 273.8 505.59 273.4 504.6 273.05C501.94 272.1 496.81 286.62 496.13 282.82C495.45 279.02 504.43 265.82 501.61 264.98C497.93 263.84 492.84 279.15 492.32 280.41C491.8 281.67 489.97 280.9 490.51 279.79C491.28 278.2 498.94 261.21 495.33 260.06C493.33 259.43 492.61 263.17 492.61 263.17C492.61 263.17 486.61 279.62 484.92 279.02C483.23 278.42 486.42 268.63 487.73 265.41C489.04 262.19 488.06 260.28 486.19 260.84C484.91 261.22 480.66 270.98 479.44 274.19C478.22 277.4 475.02 286.29 473.08 280.54C473.08 280.45 473.01 280.37 472.97 280.28C471.22 274.56 467.97 270.74 466.28 270.28C464.59 269.82 463.36 271.68 464.06 273.28C464.149 273.559 464.3 273.815 464.5 274.03C464.59 274.13 464.68 274.28 464.77 274.39C465.773 276.175 466.59 278.058 467.21 280.01C467.802 281.748 468.096 283.574 468.08 285.41C468.08 287.54 469.08 293.74 469 295.27" fill="#FFAD9D"/>
<path d="M468 293L443.81 341C443.81 341 430.13 301.43 422.75 285.69C419.94 279.69 414.3 275.53 408.89 272.77V272.66L407.76 272.21C403.878 270.354 399.798 268.942 395.6 268C370.08 260.69 346.04 263.24 318.21 273C318.21 273 303.76 276.88 296.75 295.73C290.45 312.73 283.38 338.73 282.17 343.33C273.5 372.51 285.88 388.76 303.11 386.76C310.21 385.64 316.25 379.76 318.92 377.48L328.03 368.92L328.23 375.55L318 416.5L422.74 416.28L403.84 367.79L408.04 345.56L415.23 362.64C417.488 368.011 421.265 372.605 426.097 375.861C430.93 379.116 436.607 380.89 442.432 380.965C448.258 381.041 453.979 379.414 458.894 376.285C463.809 373.156 467.703 368.66 470.1 363.35L494.59 301.69L468 293Z" fill="#FF6F61"/>
<path d="M341.87 352.84C341.593 353.314 341.279 353.766 340.93 354.19C340.3 355.03 339.35 356.24 338.14 357.69C335.73 360.6 332.26 364.51 328.23 368.64C324.2 372.77 320.36 376.32 317.48 378.77C316.05 380.01 314.86 380.97 314.02 381.61C313.606 381.986 313.158 382.321 312.68 382.61C313.053 382.208 313.457 381.837 313.89 381.5C314.69 380.81 315.84 379.8 317.24 378.5C320.04 375.97 323.83 372.39 327.85 368.27C331.87 364.15 335.39 360.27 337.85 357.45C339.1 356.03 340.08 354.86 340.76 354.06C341.094 353.622 341.465 353.214 341.87 352.84Z" fill="#263238"/>
<path d="M404.18 366.23C404.172 366.042 404.189 365.854 404.23 365.67C404.31 365.25 404.39 364.73 404.5 364.09L405.59 358.27C406.51 353.36 407.77 346.58 408.77 339.03C409.023 337.143 409.25 335.307 409.45 333.52C409.697 331.822 409.794 330.105 409.74 328.39C409.555 325.482 409.124 322.595 408.45 319.76C407.91 317.32 407.45 315.36 407.14 313.99C407 313.3 406.92 312.76 406.88 312.4C406.856 312.211 406.856 312.019 406.88 311.83C406.944 312.007 406.984 312.192 407 312.38C407.07 312.74 407.19 313.27 407.36 313.95C407.69 315.3 408.24 317.24 408.83 319.68C409.562 322.528 410.034 325.437 410.24 328.37C410.3 330.108 410.213 331.847 409.98 333.57C409.79 335.36 409.56 337.21 409.31 339.1C408.31 346.67 406.98 353.45 405.97 358.34C405.45 360.73 405.03 362.69 404.72 364.13C404.57 364.76 404.45 365.28 404.36 365.7C404.318 365.882 404.258 366.06 404.18 366.23Z" fill="#263238"/>
<path d="M441.68 352.74C442.061 348.797 442.787 344.896 443.85 341.08C443.74 343.074 443.456 345.055 443 347C442.723 348.947 442.282 350.868 441.68 352.74Z" fill="#263238"/>
<path d="M445.37 354.16C444.868 351.938 444.534 349.682 444.37 347.41C444.02 345.157 443.842 342.88 443.84 340.6C444.342 342.822 444.676 345.078 444.84 347.35C445.19 349.603 445.367 351.88 445.37 354.16Z" fill="#263238"/>
<path d="M368.11 416.28C367.97 416.28 367.85 400.2 367.85 380.38C367.85 360.56 367.97 344.47 368.11 344.47C368.25 344.47 368.37 360.54 368.37 380.38C368.37 400.22 368.25 416.28 368.11 416.28Z" fill="#263238"/>
<g opacity="0.2">
<path d="M407.41 314.73C412.32 324.14 416.59 333.5 416.98 344.11C417.28 352.36 413.98 359.24 417.39 366.76C417.22 366.89 414.31 360.41 413.02 357.37C410.37 351.11 408.02 345.52 408.02 345.52C408.02 345.52 409.84 331.39 410.02 328.98C410.2 326.57 407.41 314.73 407.41 314.73Z" fill="black"/>
</g>
<g opacity="0.2">
<path d="M285.88 362.54C285.88 367.26 282.95 351.68 285.69 347.85C287.62 345.16 290.92 343.85 294.12 343.06C297.32 342.27 300.67 341.74 303.51 340.06C307.18 337.89 309.51 334.06 312.08 330.7C314.65 327.34 318.08 312.95 322.32 312.64V333.64C312.166 340.213 301.604 346.135 290.7 351.37C289.147 352.781 287.914 354.508 287.083 356.434C286.252 358.361 285.841 360.442 285.88 362.54Z" fill="black"/>
</g>
<g opacity="0.2">
<path d="M328 368.93C334.85 365.08 339.85 359.93 347.59 358.6C355.04 357.28 362.71 358.6 370.25 358.08C369.843 354.273 369.427 350.46 369 346.64L347.43 346.4L328 368.93Z" fill="black"/>
</g>
<path d="M322.32 312.4C322.46 312.4 322.58 317.07 322.58 322.83C322.58 328.59 322.46 333.27 322.32 333.27C322.056 329.797 321.97 326.312 322.06 322.83C321.97 319.351 322.056 315.87 322.32 312.4Z" fill="#263238"/>
<path d="M285.86 362.43C285.698 361.824 285.657 361.192 285.74 360.57C285.841 359.063 286.199 357.585 286.8 356.2C287.392 354.814 288.221 353.542 289.25 352.44C289.644 351.955 290.126 351.548 290.67 351.24C289.323 352.811 288.183 354.548 287.28 356.41C286.534 358.342 286.056 360.368 285.86 362.43Z" fill="#263238"/>
<path d="M290.17 351.56C290.709 351.417 291.234 351.226 291.74 350.99C292.74 350.59 294.18 349.99 295.93 349.16C299.43 347.56 304.2 345.16 309.26 342.16C314.32 339.16 318.73 336.21 321.82 333.95C323.37 332.81 324.61 331.87 325.44 331.2C325.89 330.873 326.311 330.508 326.7 330.11C326.209 330.378 325.74 330.685 325.3 331.03L321.59 333.63C318.44 335.81 314.02 338.72 308.97 341.69C303.92 344.66 299.2 347.08 295.75 348.77L291.65 350.77C291.134 350.989 290.639 351.253 290.17 351.56Z" fill="#263238"/>
<path d="M421.57 222.82C419.85 220.57 417.12 218.82 416.57 216.07C415.88 212.38 419.57 208.92 418.9 205.22C418.46 202.69 416.13 200.91 413.75 199.93C411.37 198.95 408.75 198.48 406.57 197.17C403.953 195.491 401.944 193.017 400.84 190.11C400.514 189.316 400.23 188.505 399.99 187.68C399.767 185.913 399.361 184.174 398.78 182.49C398.69 182.05 398.61 181.61 398.53 181.17L398.64 182.17C398.308 181.338 397.871 180.551 397.34 179.83C395.51 177.39 391.85 176.03 389.34 177.74L390.54 176.94C389.023 173.27 386.585 170.054 383.461 167.601C380.338 165.149 376.635 163.543 372.71 162.94C371.213 162.73 369.698 162.68 368.19 162.79C362.8 162.51 355.01 164.08 351.72 166.17C347.52 168.83 343.22 172.48 341.11 176.99C339.98 179.42 339.21 182.23 337.11 183.85C334.25 186.01 330.24 185.17 326.67 185.57C320.79 186.24 315.67 190.75 313.67 196.32C312.739 199.139 312.404 202.122 312.686 205.077C312.969 208.033 313.862 210.898 315.31 213.49C315.93 214.64 316.66 215.97 316.17 217.18C315.663 218.078 314.871 218.782 313.92 219.18C311.523 220.417 309.608 222.42 308.48 224.87C307.48 227.36 307.86 230.51 309.88 232.27C310.727 232.945 311.739 233.382 312.812 233.535C313.884 233.688 314.978 233.552 315.98 233.14C315.384 234.647 315.069 236.25 315.05 237.87C315.007 239.64 315.44 241.39 316.304 242.936C317.168 244.482 318.43 245.768 319.96 246.66C323.09 248.29 327.47 247.43 329.31 244.42C329.298 246.639 329.887 248.821 331.014 250.732C332.142 252.644 333.765 254.215 335.713 255.279C337.66 256.343 339.86 256.861 342.077 256.776C344.295 256.692 346.449 256.009 348.31 254.8C349.79 253.8 351.31 252.48 353.06 252.8C354.81 253.12 355.8 254.8 357 256.02C360.2 259.35 365.66 259.73 369.87 257.84C374.08 255.95 377.18 252.17 379.41 248.13C380.187 249.293 381.277 250.214 382.554 250.786C383.831 251.358 385.243 251.559 386.629 251.364C388.014 251.17 389.317 250.589 390.387 249.688C391.458 248.787 392.252 247.602 392.68 246.27C394.239 248.286 396.379 249.775 398.812 250.536C401.244 251.296 403.852 251.29 406.281 250.52C408.711 249.75 410.845 248.252 412.396 246.229C413.946 244.206 414.838 241.756 414.95 239.21C416.709 238.95 418.369 238.236 419.768 237.138C421.166 236.039 422.253 234.596 422.923 232.949C423.592 231.301 423.821 229.508 423.585 227.746C423.35 225.984 422.658 224.313 421.58 222.9L421.57 222.82ZM321 225.91C321 225.91 321 225.91 321 225.85L321.1 225.8L321 225.91Z" fill="#263238"/>
<path d="M384.44 251C384.44 251 397.25 248.88 399.9 232.17C401.22 223.86 400.8 210.24 400.1 199.11C399.951 196.734 399.323 194.413 398.254 192.286C397.185 190.159 395.697 188.271 393.879 186.734C392.061 185.197 389.951 184.044 387.676 183.344C385.4 182.644 383.007 182.411 380.64 182.66L351.64 185.73C350.169 185.885 348.811 186.589 347.836 187.701C346.861 188.813 346.341 190.252 346.38 191.73L349.43 264.31C347.32 264.76 342.53 265.8 340.18 266.48C340.18 266.48 362.6 316.59 368.09 316.01C373.58 315.43 395.52 268.01 395.52 268.01C391.699 266.858 387.82 265.907 383.9 265.16C383.837 260.434 384.018 255.708 384.44 251Z" fill="#FFAD9D"/>
<path d="M393.62 208.21C393.625 208.767 393.413 209.305 393.028 209.708C392.644 210.112 392.117 210.349 391.56 210.37C391.286 210.399 391.009 210.371 390.746 210.288C390.483 210.205 390.241 210.069 390.033 209.888C389.826 209.706 389.658 209.484 389.54 209.235C389.423 208.986 389.358 208.715 389.35 208.44C389.344 207.883 389.556 207.345 389.941 206.942C390.326 206.538 390.853 206.301 391.41 206.28C391.682 206.258 391.956 206.291 392.216 206.377C392.476 206.463 392.715 206.6 392.921 206.779C393.127 206.959 393.295 207.179 393.415 207.424C393.535 207.67 393.605 207.937 393.62 208.21Z" fill="#263238"/>
<path d="M397.15 206.23C396.88 206.51 395.26 205.31 392.95 205.32C390.64 205.33 388.95 206.48 388.71 206.2C388.58 206.07 388.85 205.57 389.59 205.03C390.596 204.349 391.785 203.99 393 204C394.2 203.998 395.369 204.376 396.34 205.08C397 205.6 397.28 206.11 397.15 206.23Z" fill="#263238"/>
<path d="M371.37 208.64C371.375 209.199 371.162 209.738 370.775 210.142C370.388 210.546 369.859 210.782 369.3 210.8C369.026 210.829 368.749 210.801 368.486 210.718C368.224 210.635 367.981 210.499 367.774 210.318C367.566 210.136 367.398 209.914 367.281 209.665C367.163 209.416 367.098 209.145 367.09 208.87C367.084 208.311 367.298 207.772 367.685 207.368C368.072 206.965 368.601 206.728 369.16 206.71C369.432 206.688 369.707 206.721 369.966 206.807C370.226 206.893 370.466 207.03 370.672 207.21C370.877 207.389 371.045 207.609 371.165 207.854C371.285 208.1 371.355 208.367 371.37 208.64Z" fill="#263238"/>
<path d="M374.48 206.66C374.22 206.94 372.59 205.74 370.29 205.75C367.99 205.76 366.29 206.91 366.04 206.63C365.92 206.5 366.19 206 366.93 205.46C367.929 204.771 369.116 204.404 370.33 204.41C371.529 204.41 372.698 204.788 373.67 205.49C374.37 206 374.61 206.54 374.48 206.66Z" fill="#263238"/>
<path d="M382.85 223.76C384.067 223.379 385.327 223.154 386.6 223.09C387.18 223.03 387.74 222.91 387.84 222.51C387.891 221.901 387.755 221.29 387.45 220.76C386.89 219.34 386.32 217.84 385.71 216.28C383.29 209.9 381.54 204.65 381.8 204.55C382.06 204.45 384.22 209.55 386.64 215.94L388.31 220.45C388.682 221.16 388.789 221.979 388.61 222.76C388.523 222.972 388.386 223.16 388.213 223.309C388.039 223.459 387.832 223.565 387.61 223.62C387.283 223.705 386.948 223.752 386.61 223.76C385.361 223.915 384.099 223.915 382.85 223.76Z" fill="#263238"/>
<path d="M384.44 251C376.571 251.111 368.827 249.033 362.07 245C362.07 245 367.5 256.47 384.22 254.91L384.44 251Z" fill="#ED9482"/>
<path d="M376.36 227.37C376.867 227.014 377.442 226.765 378.05 226.64C378.356 226.584 378.672 226.625 378.954 226.758C379.235 226.891 379.468 227.108 379.62 227.38C379.683 227.58 379.764 227.774 379.86 227.96C380.2 228.42 380.91 228.25 381.45 228.41C381.654 228.496 381.839 228.622 381.994 228.78C382.149 228.938 382.272 229.125 382.354 229.33C382.437 229.535 382.478 229.755 382.476 229.976C382.473 230.198 382.427 230.417 382.34 230.62C382.139 231.026 381.858 231.388 381.514 231.683C381.171 231.979 380.771 232.202 380.34 232.34C379.208 232.806 377.975 232.975 376.76 232.83C376.334 232.814 375.917 232.708 375.536 232.518C375.155 232.328 374.819 232.06 374.55 231.73C374.297 231.288 374.179 230.783 374.209 230.275C374.239 229.767 374.417 229.279 374.72 228.87C375.341 228.056 376.12 227.376 377.01 226.87" fill="#ED9482"/>
<path d="M376.07 225.36C376.44 225.36 376.45 227.84 378.59 229.61C380.73 231.38 383.39 231.11 383.41 231.46C383.41 231.62 382.82 231.95 381.69 231.98C380.234 231.994 378.819 231.499 377.69 230.58C376.585 229.694 375.868 228.414 375.69 227.01C375.62 226 375.9 225.34 376.07 225.36Z" fill="#263238"/>
<path d="M375.52 202.63C375.29 203.25 372.99 202.96 370.29 203.28C367.59 203.6 365.39 204.35 365.04 203.78C364.88 203.52 365.26 202.93 366.14 202.32C367.319 201.576 368.653 201.11 370.039 200.958C371.425 200.805 372.827 200.97 374.14 201.44C375.12 201.84 375.62 202.33 375.52 202.63Z" fill="#263238"/>
<path d="M396.3 201C395.89 201.53 394.3 201 392.39 201C390.48 201 388.87 201.35 388.5 200.8C388.33 200.54 388.59 200.01 389.29 199.52C390.24 198.926 391.344 198.626 392.464 198.66C393.584 198.694 394.668 199.059 395.58 199.71C396.26 200.23 396.48 200.77 396.3 201Z" fill="#263238"/>
<path d="M390.33 180.22C389.706 183.18 388.496 185.985 386.77 188.47C385.045 190.955 382.839 193.069 380.284 194.688C377.728 196.307 374.874 197.398 371.89 197.896C368.906 198.395 365.853 198.291 362.91 197.59C362.426 201.26 361.004 204.744 358.781 207.704C356.558 210.665 353.61 213.002 350.22 214.49C354.844 222.873 356.729 232.492 355.61 242C355.12 246 353.95 250.27 350.91 253C346.27 257.16 338.45 256.15 333.99 251.81C329.71 247.64 328.2 241.12 329.41 235.27C330.62 229.42 334.29 224.27 338.9 220.51C336.958 220.178 335.147 219.31 333.671 218.004C332.195 216.699 331.113 215.008 330.546 213.121C329.978 211.234 329.949 209.226 330.46 207.324C330.971 205.421 332.003 203.698 333.44 202.35C334.75 201.11 336.44 200.19 337.44 198.68C338.44 197.17 338.6 195.49 339.17 193.88C340.66 189.67 344.42 186.76 348 184.08C351 181.82 354.36 179.46 358.14 179.47C360.14 179.47 362.14 180.17 364.14 179.9C366.89 179.53 369.04 177.44 371.31 175.9C374.468 173.55 378.396 172.478 382.31 172.9C386.18 173.51 389.79 176.4 390.52 180.24" fill="#263238"/>
<path d="M388.84 181.87C388.25 185.1 389.84 188.41 392.26 190.67C394.68 192.93 397.67 194.33 400.66 195.67C399.618 192.493 398.162 189.467 396.33 186.67C395.406 185.265 394.212 184.058 392.819 183.117C391.425 182.176 389.858 181.521 388.21 181.19" fill="#263238"/>
<path d="M315.36 220.39C315.246 220.052 315.215 219.692 315.27 219.34C315.418 218.319 315.956 217.394 316.77 216.76C318.086 215.801 319.709 215.36 321.33 215.52C323.2 215.52 325.27 216.14 327.56 216C328.799 215.896 329.996 215.5 331.052 214.845C332.109 214.19 332.996 213.294 333.64 212.23C334.354 211.041 334.747 209.687 334.78 208.3C334.88 206.87 334.78 205.37 334.83 203.81C334.845 202.174 335.354 200.582 336.29 199.24C337.331 197.9 338.712 196.864 340.29 196.24C343.44 194.81 347.03 194.79 350.47 194.15C352.177 193.872 353.822 193.296 355.33 192.45C356.743 191.55 357.969 190.385 358.94 189.02C360.89 186.34 362.2 183.35 363.99 180.8C366.141 177.598 369.306 175.211 372.976 174.023C376.647 172.835 380.61 172.915 384.23 174.25C385.731 174.792 387.148 175.543 388.44 176.48C389.56 177.25 390.555 178.188 391.39 179.26C391.317 179.207 391.25 179.147 391.19 179.08L390.64 178.53C389.92 177.844 389.148 177.215 388.33 176.65C385.297 174.559 381.682 173.478 378 173.56C375.296 173.652 372.653 174.381 370.284 175.688C367.916 176.994 365.889 178.842 364.37 181.08C362.62 183.58 361.32 186.57 359.37 189.33C358.361 190.751 357.084 191.961 355.61 192.89C354.061 193.772 352.368 194.372 350.61 194.66C347.09 195.31 343.61 195.33 340.53 196.66C339.035 197.255 337.724 198.235 336.73 199.5C335.844 200.76 335.362 202.26 335.35 203.8C335.26 205.31 335.35 206.8 335.28 208.29C335.23 209.749 334.806 211.171 334.05 212.42C333.367 213.533 332.428 214.468 331.311 215.146C330.195 215.824 328.933 216.227 327.63 216.32C325.24 216.44 323.18 215.82 321.35 215.77C319.79 215.587 318.218 215.982 316.93 216.88C316.138 217.477 315.597 218.346 315.41 219.32C315.348 219.673 315.331 220.033 315.36 220.39Z" fill="#FAFAFA"/>
<path d="M340.2 297.58L341.26 324.22L343.94 349.72L372.27 348.51L370.23 298.16L340.2 297.58Z" fill="#263238"/>
<path d="M336.04 297.49L337.1 324.22L339.78 349.72L368.11 348.51L366.07 298.08L336.04 297.49Z" fill="#455A64"/>
<path d="M333.38 352.84C340.899 352.498 348.389 351.696 355.81 350.44C364.59 349.03 364.5 348.24 364.19 347.23C363.35 344.53 348.65 349.11 351.29 346.29C353.93 343.47 369.86 342.79 368.86 340.01C367.57 336.38 352.26 341.46 350.94 341.79C349.62 342.12 349.14 340.21 350.35 339.97C352.09 339.63 370.28 335.61 369.04 332.03C368.36 330.03 364.93 331.71 364.93 331.71C364.93 331.71 348.15 336.71 347.62 335.04C347.09 333.37 356.85 330.04 360.21 329.14C363.57 328.24 364.52 326.33 362.95 325.14C361.88 324.35 351.52 326.78 348.22 327.73C344.92 328.68 335.88 331.42 339.32 326.42C339.38 326.34 339.42 326.26 339.47 326.18C343 321.36 344.11 316.47 343.47 314.83C342.83 313.19 340.6 313.34 339.75 314.83C339.583 315.071 339.467 315.343 339.41 315.63C339.41 315.76 339.32 315.93 339.28 316.07C338.463 317.937 337.458 319.717 336.28 321.38C335.245 322.899 333.956 324.229 332.47 325.31C330.76 326.56 326.47 331.14 325.12 331.95" fill="#FFAD9D"/>
<path d="M326.89 330.48L341.87 352.84L317.18 378.02L318.02 337.18L326.89 330.48Z" fill="#FF6F61"/>
</svg>
