<svg width="1677" height="917" viewBox="0 0 1677 917" fill="none" xmlns="http://www.w3.org/2000/svg">
<path d="M751.009 226.606L750.995 226.607C746.08 226.62 743.344 227.057 741.046 227.903C738.665 228.78 736.223 230.284 732.106 233.368C732.102 233.372 732.097 233.375 732.092 233.379L728.823 235.854L728.82 235.856C718.559 243.617 708.574 251.678 698.69 259.982C693.783 264.106 688.839 268.217 683.814 272.271L683.798 272.284L683.782 272.297C673.714 280.322 663.783 288.469 653.968 296.779C645.781 303.711 637.522 310.592 629.094 317.332L629.088 317.336C621.227 323.61 613.455 329.988 605.724 336.45C599.492 341.685 593.177 346.907 586.613 351.949L586.611 351.95C586.112 352.333 585.618 352.711 585.13 353.085C575.12 360.751 567.282 366.754 563.816 376.177C563.186 381.855 562.989 386.008 563.58 389.718C564.154 393.317 565.528 396.798 568.627 400.847C574.895 407.952 579.063 411.772 586.346 412.694C591.611 412.803 594.883 412.843 597.819 412.423C600.546 412.033 603.112 411.214 606.571 409.263C614.103 405.014 624.659 396.185 647.413 377.059C652.418 372.849 657.463 368.665 662.596 364.541L662.61 364.529L662.625 364.518C673.489 355.884 684.029 347.011 694.359 337.775C694.363 337.771 694.367 337.768 694.371 337.764L697.893 334.588L709.146 342.216C698.907 369.888 690.346 399.319 697.449 426.286C699.705 433.385 701.126 439.954 701.69 447.575L701.784 448.853L701.42 450.082C684.394 507.495 648.754 572.875 594.825 606.227L594.795 606.246L594.765 606.264C593.227 607.194 591.716 608.093 590.235 608.973C580.277 614.895 571.741 619.97 566.103 628.024C562.777 636.39 562.558 643.617 565.351 652.193C570.168 660.712 575.597 665.803 584.411 669.508C597.788 671.386 607.35 666.295 620.858 658.119C620.869 658.113 620.879 658.107 620.89 658.1L626.076 654.884L626.092 654.874L626.108 654.864C640.9 645.799 652.923 634.861 665.261 622.1C665.263 622.098 665.265 622.096 665.267 622.094L668.014 619.236L668.021 619.229L668.028 619.221C707.871 578.002 735.951 527.92 755.232 474.046L756.973 469.012L758.575 464.378L763.478 464.3L767.799 464.232L767.822 464.232L767.845 464.232L773.591 464.179C773.594 464.179 773.598 464.179 773.602 464.179C777.561 464.132 781.516 464.177 785.461 464.303L785.926 464.318L786.384 464.394C792.64 465.434 798.704 466.368 804.849 467.019L812.604 467.72L812.61 467.721C816.898 468.112 821.182 468.502 825.466 468.886L751.009 226.606ZM751.009 226.606L758.072 226.573L758.099 226.573M751.009 226.606L758.099 226.573M963.372 288.598C970.429 288.505 977.485 288.409 984.541 288.302C987.224 288.261 989.907 288.22 992.59 288.18L1000.46 288.083L1007.74 287.966C1014.36 287.872 1019.03 287.698 1025.33 285.635C1035.21 278.821 1041.27 271.907 1045.01 260.492C1046.14 251.723 1045.99 243.371 1040.68 235.894L1037.75 232.449C1031.35 224.711 1023.76 220.415 1013.62 219.159L1007.42 219.167L1000.27 219.135C996.321 219.162 992.375 219.189 988.429 219.187M963.372 288.598L758.066 219.573L765.885 219.567C768.62 219.558 771.354 219.548 774.089 219.537M963.372 288.598C956.733 288.687 950.093 288.786 943.453 288.884L941.765 288.909C927.636 289.117 913.508 289.314 899.38 289.503L898.303 294.857C890.932 331.435 883.363 367.956 875.333 404.397M963.372 288.598L875.333 404.397M988.429 219.187C981.134 219.17 973.84 219.174 966.545 219.206M988.429 219.187L988.429 219.195L988.429 219.187ZM966.545 219.206C958.795 219.24 951.044 219.252 943.294 219.254C930.317 219.256 917.341 219.276 904.365 219.317M966.545 219.206L966.576 226.206M966.545 219.206L966.576 226.206C958.812 226.24 951.051 226.252 943.295 226.254C930.325 226.256 917.356 226.276 904.388 226.317M904.365 219.317C887.575 219.374 870.785 219.407 853.994 219.416C839.449 219.424 824.905 219.442 810.36 219.469C805.711 219.477 801.062 219.485 796.413 219.491C788.972 219.5 781.53 219.512 774.089 219.537M904.365 219.317L904.388 226.317M904.365 219.317L904.388 226.317M774.089 219.537L774.116 226.537M774.089 219.537L774.116 226.537M758.099 226.573L765.891 226.567L765.899 226.566L765.908 226.566C768.643 226.558 771.378 226.548 774.113 226.537L758.099 226.573ZM774.116 226.537C781.548 226.512 788.983 226.5 796.421 226.491L796.421 226.491C801.072 226.485 805.723 226.477 810.373 226.469C824.915 226.442 839.457 226.424 853.998 226.416C870.795 226.407 887.591 226.374 904.387 226.317L774.116 226.537ZM904.388 226.317L966.576 226.206M966.576 226.206C973.853 226.174 981.132 226.17 988.413 226.186L988.425 226.187C992.388 226.189 996.346 226.162 1000.28 226.135L1007.39 226.167L1007.41 226.167L1007.43 226.167L1013.18 226.159C1021.28 227.25 1027.15 230.618 1032.36 236.913L1032.39 236.948L1032.42 236.983L1035.14 240.178C1038.63 245.256 1039.1 251.125 1038.15 258.934C1035.09 267.907 1030.4 273.481 1022.2 279.282C1017.44 280.718 1013.75 280.88 1007.64 280.966L1007.62 280.967L1000.37 281.083L1000.34 281.083L992.503 281.181L992.495 281.181L992.486 281.181C989.802 281.221 987.117 281.262 984.433 281.303C977.384 281.41 970.334 281.505 963.28 281.598L963.278 281.598C956.627 281.688 949.976 281.787 943.33 281.885L941.662 281.91C941.661 281.91 941.661 281.91 941.661 281.91C927.537 282.118 913.412 282.314 899.286 282.503L893.632 282.579L892.517 288.122L891.44 293.474C891.44 293.475 891.44 293.476 891.44 293.476C883.606 332.354 875.553 371.142 866.962 409.828L865.141 418.029L873.536 418.34L879.385 418.557C879.394 418.558 879.403 418.558 879.412 418.558C896.281 419.318 903.54 419.685 908.017 420.811C911.375 421.655 912.695 422.722 917.548 427.244C922.036 432.267 923.976 435.933 924.978 439.639C926.076 443.702 926.211 448.317 926.205 455.943L926.2 462.223C926.2 462.23 926.2 462.238 926.2 462.246C925.978 493.206 924.192 524.15 922.394 555.283C922.32 556.562 922.246 557.841 922.173 559.121L922.172 559.127C921.925 563.483 921.691 567.836 921.463 572.184M966.576 226.206L865.045 523.824L865.045 523.836C863.987 547.077 862.994 570.222 862.661 593.365L862.661 593.354L855.667 593.275L862.661 593.376L862.592 599.507L862.591 599.544L862.59 599.581C862.444 606.271 862.331 612.395 862.939 618.486M921.463 572.184C921.463 572.184 921.463 572.183 921.463 572.182L928.454 572.551L921.463 572.184ZM921.463 572.184C921.084 579.377 920.645 586.573 920.191 593.791L920.189 593.83L920.187 593.869L919.868 600.028M919.868 600.028C918.934 613.35 916.432 622.619 907.853 630.865M919.868 600.028L919.865 600.093L926.855 600.454L919.873 599.968C919.871 599.988 919.87 600.008 919.868 600.028ZM907.853 630.865C903.068 633.867 899.122 635.623 895.2 636.501C891.358 637.362 887.141 637.47 881.695 636.654M907.853 630.865C908.035 630.751 908.219 630.635 908.403 630.517L912.172 636.416M907.853 630.865C907.702 631.01 907.549 631.155 907.395 631.299L912.172 636.416M881.695 636.654C876.594 634.358 872.928 632.055 870.067 629.318C867.271 626.643 864.959 623.282 862.939 618.486M881.695 636.654C881.961 636.774 882.23 636.893 882.503 637.012L879.7 643.426M881.695 636.654C881.411 636.611 881.123 636.566 880.831 636.519L879.7 643.426M862.939 618.486C862.971 618.803 863.005 619.12 863.04 619.436L856.084 620.218M862.939 618.486C862.82 618.202 862.701 617.914 862.584 617.619L856.084 620.218M856.084 620.218C860.888 632.234 867.793 638.222 879.7 643.426M856.084 620.218C855.303 613.275 855.439 606.405 855.592 599.428L855.662 593.275C855.996 570.008 856.994 546.762 858.052 523.518C858.242 519.164 858.432 514.81 858.621 510.456C859.077 499.982 859.544 489.509 860.02 479.036L854.426 478.534L879.7 643.426M879.7 643.426C892.719 645.559 901.271 643.379 912.172 636.416M879.7 643.426L912.172 636.416M912.172 636.416C923.018 626.29 925.856 614.796 926.856 600.454L927.178 594.23L912.172 636.416ZM875.333 404.397L874.055 404.35L873.796 411.345M875.333 404.397L873.796 411.345M873.796 411.345L879.651 412.645L873.796 411.345ZM880.629 412.863C880.721 412.448 880.814 412.033 880.905 411.619L879.66 412.647L880.629 412.863Z" fill="#4C5270" stroke="white" stroke-width="14"/>
<path d="M241.698 456.727L241.69 456.727C237.499 456.747 235.209 456.784 233.035 457.225C231.075 457.623 228.916 458.426 225.568 460.493C218.417 464.906 207.567 473.925 184.57 493.098L241.698 456.727ZM241.698 456.727L241.706 456.727M241.698 456.727L241.706 456.727M241.706 456.727L247.549 456.685L247.582 456.685L253.99 456.669L254.002 456.669M241.706 456.727L254.002 456.669M346.153 623.318L342.477 623.336L333.831 623.378L335.589 614.913C337.664 604.921 339.731 594.928 341.786 584.934C342.63 580.828 343.474 576.723 344.32 572.618L344.322 572.606C345.57 566.598 346.816 560.599 348.048 554.598C348.048 554.597 348.048 554.596 348.048 554.595L349.231 548.827L349.234 548.813L349.236 548.799C351.76 536.73 353.761 524.95 354.861 512.857C354.862 512.847 354.863 512.837 354.864 512.827L355.146 509.392L355.68 502.901L362.193 502.966C374.349 503.088 386.503 503.185 398.656 503.249C403.63 503.273 408.604 503.299 413.577 503.328L413.592 503.329L413.607 503.329C420.927 503.403 428.226 503.475 435.521 503.507C435.522 503.507 435.522 503.507 435.523 503.507L442.482 503.532L442.516 503.532L442.551 503.533C443.086 503.54 443.613 503.548 444.133 503.555C458.425 503.757 467.323 503.883 476.47 496.491C478.598 493.672 479.861 491.345 480.672 489.019C481.524 486.576 481.998 483.788 482.173 479.915C481.924 475.617 481.455 472.761 480.543 470.351C479.697 468.116 478.319 465.879 475.689 463.144C467.188 457.459 459.327 456.111 447.844 456.028L441.53 456.102L441.482 456.102L441.434 456.102C434.28 456.089 427.146 456.087 420.016 456.134L346.153 623.318ZM346.153 623.318L346.166 623.318L350.99 623.305L350.996 623.305L355.74 623.287C365.418 623.401 372.043 624.758 378.584 629.704C381.764 633.68 383.822 636.507 385.163 639.385C386.469 642.187 387.203 645.297 387.055 649.881L387.055 649.902L387.054 649.922L386.893 656.053L386.617 662.451L386.616 662.477L386.615 662.502L386.391 668.769C386.391 668.773 386.391 668.777 386.39 668.781C386.127 675.424 385.806 682.071 385.467 688.74L385.466 688.747L385.098 696.138C385.097 696.14 385.097 696.141 385.097 696.142C384.839 701.266 384.579 706.39 384.314 711.512L384.314 711.513C383.978 718.02 383.66 724.525 383.348 731.023C383.077 736.583 382.791 742.143 382.504 747.714L382.392 749.9L382.391 749.913L382.39 749.927L382.063 756.835C382.062 756.841 382.062 756.847 382.062 756.853C380.894 778.724 380.335 788.8 379.199 794.556C378.682 797.178 378.127 798.4 377.58 799.27C376.979 800.226 376.186 801.106 374.491 802.855C367.358 807.405 360.305 807.537 349.786 806.699C342.244 804.047 336.908 800.133 333.439 793.958C332.393 786.623 332.598 779.278 332.828 771.037L332.835 770.769L332.837 770.719L332.837 770.669L332.941 763.104C332.941 763.101 332.941 763.097 332.941 763.094C333.439 733.089 335.487 703.075 337.618 672.916L338.161 665.223L330.451 665.425L326.645 665.525C326.631 665.526 326.618 665.526 326.605 665.526C312.902 665.723 299.685 664.495 285.834 662.587L285.822 662.585C267.176 660.051 266.912 660.03 248.131 659.622L243.085 659.513L241.387 664.266L239.374 669.903C239.371 669.91 239.368 669.917 239.366 669.925C232.376 689.079 224.042 707.146 214.273 725.174L214.261 725.196L214.25 725.218L212.4 728.689C212.4 728.689 212.4 728.69 212.4 728.69C188.667 772.942 152.874 816.941 106.15 835.915C99.8631 837.295 94.953 836.37 88.5993 833.204C85.1276 830.772 83.0792 829.008 81.5708 827.15C80.1357 825.383 78.9319 823.21 77.6799 819.645C76.514 812.087 76.4273 806.79 79.0655 801.658C85.475 794.172 92.9637 789.369 102.58 784.029L102.639 783.996L102.698 783.962C145.885 758.865 172.693 708.289 189.757 665.654L191.64 661.186L191.688 661.072L191.732 660.956C193.776 655.582 194.977 650.768 195.133 645.698C195.288 640.683 194.406 635.863 192.882 630.506C191.289 624.198 191.333 617.828 191.386 610.152L191.389 609.857L191.389 609.845L191.389 609.833L191.405 605.026C191.611 593.415 193.503 583.293 197.488 572.307L197.56 572.109L197.62 571.908C198.421 569.201 199.208 566.482 199.973 563.753L201.559 558.356L207.239 539.036L190.8 550.668C180.441 557.998 170.711 565.788 161.164 573.89C135.202 595.919 122.876 606.351 114.784 611.422C110.967 613.815 108.504 614.735 106.279 615.167C103.893 615.631 101.402 615.63 96.9887 615.56C90.5437 614.839 86.5889 612.328 81.6112 606.977C79.7518 604.307 78.8432 602.649 78.3021 601.114C77.7562 599.566 77.4349 597.713 77.3668 594.433L77.3658 594.383L77.364 594.333L77.2321 590.574C78.5304 582.122 83.1535 576.691 91.1725 569.784L91.1809 569.777L96.9949 564.753C104.162 558.767 111.41 552.882 118.739 547.065L118.75 547.056L118.761 547.048C125.046 542.017 131.219 536.894 137.342 531.775C146.835 523.847 156.441 516.05 166.129 508.3L166.143 508.29L166.156 508.279C172.362 503.264 178.485 498.178 184.569 493.099L346.153 623.318ZM254.002 456.669L254.013 456.669M254.002 456.669L254.013 456.669M254.013 456.669L260.799 456.63C260.8 456.63 260.8 456.63 260.801 456.63C260.801 456.63 260.802 456.63 260.803 456.63C268.224 456.592 275.647 456.57 283.075 456.55L283.079 456.55M254.013 456.669L283.079 456.55M283.079 456.55L290.766 456.527M283.079 456.55L290.766 456.527M404.645 456.202L404.637 456.202C392.603 456.21 380.578 456.233 368.555 456.298L404.645 456.202ZM404.645 456.202C409.768 456.193 414.891 456.17 420.013 456.134L404.645 456.202ZM290.766 456.527C290.766 456.527 290.766 456.527 290.767 456.527M290.766 456.527L290.767 456.527M290.767 456.527C302.807 456.49 314.847 456.462 326.887 456.446M290.767 456.527L326.887 456.446M326.887 456.446C340.777 456.427 354.666 456.376 368.554 456.298L326.887 456.446Z" fill="#4C5270" stroke="white" stroke-width="14"/>
<path d="M557.9 699.993L557.867 699.992C556.32 699.981 554.813 699.959 553.342 699.938C545.139 699.818 538.046 699.715 531.181 701.563C515.663 708.032 509.487 717.437 500.941 734.102L498.997 867.853L498.897 874.724L492.025 874.751L13.1831 876.633L17.3933 881.639C19.4195 883.901 21.3438 886.214 23.1902 888.536L23.5551 888.994L23.8385 889.507C26.9342 895.109 30.01 899.784 34.0006 904.572C36.1142 906.403 37.249 907.345 38.3666 908.02C39.3185 908.594 40.3898 909.044 42.3802 909.376C47.0484 910.157 54.863 910.073 72.6461 909.808C77.0543 909.739 81.4616 909.709 85.867 909.715L85.8809 909.715L85.8948 909.715C97.7852 909.78 109.666 909.767 121.546 909.654L557.9 699.993ZM557.9 699.993L557.932 699.992L565.444 699.977C565.444 699.977 565.444 699.977 565.445 699.977C572.279 699.965 579.118 699.988 585.973 700.017L585.979 700.017C592.589 700.039 599.199 700.035 605.792 700.03L608.215 700.029C608.216 700.029 608.216 700.029 608.217 700.029C608.217 700.029 608.217 700.029 608.218 700.029C621.029 700.026 633.841 700.044 646.654 700.077C665.197 700.124 683.737 700.139 702.274 700.146C732.342 700.159 762.412 700.198 792.482 700.252C821.694 700.306 850.906 700.347 880.118 700.371L885.576 700.376C894.612 700.384 903.647 700.391 912.683 700.398C950.098 700.428 972.059 700.785 994.046 701.152L995.041 701.168C1010.09 701.419 1025.26 701.672 1045.48 701.824M557.9 699.993L1045.48 701.824M1045.48 701.824C1045.03 702.162 1044.53 702.564 1044.04 703.036C1043.27 703.106 1042.32 703.175 1041.19 703.243C1037.64 703.456 1032.93 703.626 1028.09 703.802L1027.94 703.807C1023.1 703.982 1018.14 704.163 1014.34 704.397C1012.46 704.512 1010.72 704.649 1009.36 704.825C1008.72 704.909 1007.93 705.03 1007.19 705.223C1006.84 705.314 1006.22 705.49 1005.54 705.817L1005.52 705.83C1005.15 706.001 1003.05 706.997 1001.98 709.492C1000.51 712.896 1002.08 715.786 1003.22 717.059C1004.16 718.117 1005.2 718.647 1005.55 718.824C1005.57 718.834 1005.59 718.843 1005.61 718.853C1005.86 719.646 1006.22 720.401 1006.69 721.094C1007.9 722.869 1009.54 723.859 1010.46 724.353C1011.36 724.835 1012.38 725.251 1013.36 725.603C989.835 725.953 977.686 726.811 965.561 727.672L965.451 727.679C950.742 728.724 936.018 729.769 899.955 729.879L873.8 729.959L868.54 729.975C840.399 730.06 812.258 730.138 784.116 730.214C755.26 730.293 726.404 730.378 697.549 730.47C679.731 730.527 661.913 730.578 644.095 730.622L644.113 737.622L644.095 730.622C631.89 730.652 619.685 730.69 607.481 730.733C603.405 730.747 599.334 731.411 595.886 731.973L595.628 732.015C591.909 732.621 588.857 733.101 585.99 733.106C582.709 733.113 579.208 733.108 575.672 733.103C571.119 733.096 566.509 733.089 562.239 733.106C561.12 733.107 559.829 733.107 558.524 733.106C557.217 733.106 555.896 733.105 554.731 733.106L554.715 733.106L554.7 733.107C553.228 733.114 552.618 733.11 552.002 733.107L551.984 733.106C551.322 733.102 550.646 733.098 549.069 733.107M1045.48 701.824L531.736 816.295M549.069 733.107C549.072 733.107 549.075 733.106 549.078 733.106L549.098 740.106L549.061 733.107C549.064 733.107 549.067 733.107 549.069 733.107ZM549.069 733.107C548.213 733.109 547.314 733.108 546.391 733.106L546.376 733.106C545.45 733.105 544.499 733.104 543.573 733.106C543.36 733.107 543.16 733.106 542.975 733.104M542.975 733.104C542.664 732.922 542.364 732.776 542.088 732.66C541.151 732.266 540.292 732.128 539.663 732.083C539.012 732.035 538.409 732.072 537.879 732.151C537.349 732.23 536.785 732.368 536.212 732.583C535.677 732.785 534.903 733.142 534.115 733.776C533.392 734.358 532.053 735.668 531.575 737.866C531.326 739.014 531.362 740.208 531.687 741.345C531.807 741.766 531.958 742.152 532.128 742.502M542.975 733.104C541.372 733.088 540.795 732.991 540.794 732.997C540.794 732.998 540.807 733.001 540.833 733.008C540.93 733.033 541.255 733.121 541.689 733.329C542.006 733.48 542.793 733.887 543.578 734.724C543.676 734.828 543.773 734.939 543.87 735.057C544.795 736.184 545.606 737.977 545.375 740.105C544.776 740.105 544.179 740.105 543.594 740.106C541.494 740.113 540.189 740.006 539.414 739.859C539.365 739.935 539.304 740.017 539.229 740.106C539.136 742.09 539.076 744.076 539.038 746.061C538.408 746.057 537.58 745.951 536.663 745.566C535.844 745.222 534.719 744.545 533.823 743.282C533.032 742.168 532.664 740.939 532.596 739.796C532.583 739.565 532.581 739.338 532.591 739.116C532.676 737.215 533.544 736.006 533.79 735.699L532.347 737.428L532.237 739.779C532.194 740.688 532.158 741.596 532.128 742.502M542.975 733.104C543.172 733.22 543.373 733.35 543.574 733.497C544.149 733.913 544.73 734.462 545.24 735.179C545.725 735.863 546.091 736.629 546.318 737.446C546.543 738.256 546.609 739.036 546.577 739.742C546.572 739.866 546.563 739.987 546.552 740.107L539.023 746.881M532.128 742.502C532.017 745.844 531.983 749.165 531.981 752.444M532.128 742.502C532.404 743.071 532.728 743.548 533.044 743.934C533.548 744.548 534.073 744.984 534.492 745.281C534.917 745.582 535.318 745.8 535.645 745.957C536.285 746.263 536.883 746.447 537.336 746.564C537.883 746.705 538.452 746.806 539.023 746.881M531.981 752.444L531.97 756.335C531.962 759.152 531.958 761.968 531.957 764.784M531.981 752.444L531.981 752.427L538.981 752.447M531.981 752.444L538.981 752.447M531.957 764.784C531.951 770.472 531.913 776.162 531.874 781.875L531.869 782.737C531.794 793.91 531.732 805.099 531.736 816.295M531.957 764.784L538.957 764.792M531.957 764.784C531.957 764.786 531.957 764.788 531.957 764.79L538.957 764.792M531.736 816.295L538.736 816.294M531.736 816.295L538.981 752.447M538.957 764.792C538.958 761.979 538.962 759.167 538.97 756.355L538.981 752.447M538.957 764.792C538.951 770.503 538.913 776.214 538.874 781.925L538.868 782.784C538.794 793.954 538.732 805.123 538.736 816.294M538.981 752.447C538.982 750.591 538.993 748.736 539.023 746.881M538.981 752.447L539.023 746.881M538.736 816.294C538.738 824.059 538.691 831.822 538.614 839.587M538.736 816.294L531.736 816.296C531.738 824.032 531.692 831.771 531.615 839.518L531.615 839.528L531.615 839.538C531.594 842.513 531.591 845.489 531.606 848.465C531.691 867.046 530.356 880.587 519.374 893.421C507.283 904.603 491.93 908.323 474.343 908.241L474.286 908.241L474.229 908.241L468.553 908.307C468.552 908.307 468.551 908.307 468.551 908.307C462.353 908.368 456.15 908.376 449.912 908.383L449.89 908.383L449.869 908.383C445.374 908.416 440.879 908.452 436.384 908.49C424.244 908.583 412.099 908.625 399.945 908.652H399.943C392.335 908.671 384.728 908.699 377.124 908.73L538.614 839.587M538.614 839.587C538.594 842.534 538.591 845.482 538.606 848.43C538.693 867.405 537.411 883.306 524.427 898.281L538.614 839.587ZM159.65 909.484H159.651C182.246 909.477 204.839 909.393 227.433 909.228L159.65 909.484ZM159.65 909.484C146.958 909.489 134.257 909.529 121.548 909.654L159.65 909.484ZM1011.24 706.06C1011.24 706.06 1011.26 706.064 1011.28 706.073C1011.25 706.065 1011.24 706.061 1011.24 706.06ZM1014.17 722.403C1014.18 722.403 1014.18 722.402 1014.18 722.402C1014.13 722.407 1014.13 722.405 1014.17 722.403ZM1041.51 706.635C1041.52 706.616 1041.53 706.598 1041.54 706.579C1041.53 706.595 1041.52 706.611 1041.52 706.627L1041.51 706.635Z" fill="#4C5270" stroke="white" stroke-width="14"/>
<path d="M1097.11 523.202L1097.08 523.201C1095.53 523.19 1094.03 523.168 1092.56 523.147C1084.35 523.027 1077.26 522.924 1070.4 524.772C1054.88 531.241 1048.7 540.646 1040.16 557.311L1038.21 691.062L1038.11 697.933L1031.24 697.96L552.398 699.842L556.608 704.848C558.634 707.11 560.559 709.423 562.405 711.745L562.77 712.203L563.053 712.716C566.149 718.318 569.225 722.993 573.215 727.781C575.329 729.612 576.464 730.554 577.581 731.229C578.533 731.803 579.605 732.253 581.595 732.585C586.263 733.365 594.076 733.282 611.854 733.017C611.857 733.017 611.859 733.017 611.861 733.017L611.965 740.016C616.333 739.947 620.703 739.918 625.071 739.924L1097.11 523.202ZM1097.11 523.202L1097.15 523.201M1097.11 523.202L1097.15 523.201M975.606 731.699C963.463 731.792 951.316 731.834 939.16 731.861H939.158C931.55 731.88 923.943 731.908 916.338 731.939C895.259 732.023 874.186 732.095 853.116 732.114L849.038 732.118L840.855 732.125L838.819 732.127L836.752 732.129L832.644 732.132H832.644C810.639 732.154 788.64 732.274 766.648 732.437C744.054 732.602 721.461 732.686 698.865 732.693H698.864C686.173 732.698 673.472 732.738 660.763 732.863L975.606 731.699ZM975.606 731.699C980.098 731.661 984.591 731.625 989.084 731.592L989.105 731.592L989.126 731.592C995.365 731.585 1001.57 731.577 1007.77 731.516M975.606 731.699L1007.77 731.516M1007.77 731.516L1013.44 731.45L1013.5 731.45L1013.56 731.45C1031.14 731.532 1046.5 727.812 1058.59 716.63C1069.57 703.796 1070.91 690.255 1070.82 671.674C1070.81 668.698 1070.81 665.722 1070.83 662.747L1070.83 662.737L1070.83 662.727C1070.91 654.98 1070.95 647.241 1070.95 639.505L1007.77 731.516ZM1007.77 731.516C1007.77 731.516 1007.77 731.516 1007.77 731.516M1007.77 731.516L1007.77 731.516M1097.15 523.201L1104.66 523.186C1104.66 523.186 1104.66 523.186 1104.66 523.186C1111.49 523.174 1118.33 523.197 1125.19 523.226L1125.19 523.226M1097.15 523.201L1125.19 523.226M1125.19 523.226C1131.8 523.248 1138.41 523.244 1145.01 523.239L1147.43 523.238C1147.43 523.238 1147.43 523.238 1147.43 523.238C1147.43 523.238 1147.43 523.238 1147.43 523.238C1160.24 523.235 1173.06 523.253 1185.87 523.286C1204.41 523.333 1222.95 523.348 1241.49 523.355C1271.56 523.368 1301.63 523.407 1331.7 523.461C1360.91 523.515 1390.12 523.556 1419.33 523.58L1424.79 523.585C1433.83 523.593 1442.86 523.6 1451.9 523.607C1523.92 523.665 1595.93 523.762 1667.95 523.884C1667.18 526.612 1666.25 529.258 1665.1 531.956L1665.1 531.965M1125.19 523.226L1665.1 531.965M1665.1 531.965L1665.09 531.975L1663.25 536.337M1665.1 531.965L1663.25 536.337M1663.25 536.337L1663.23 536.376L1661.31 540.844L1661.3 540.859L1661.29 540.874L1660.32 543.166L1659.33 545.492C1659.33 545.492 1659.33 545.493 1659.33 545.494C1658.34 547.816 1657.35 550.137 1656.35 552.46C1583.96 552.658 1511.56 552.867 1439.17 553.088L1413.02 553.168L1407.76 553.184C1379.61 553.269 1351.47 553.347 1323.33 553.423C1294.47 553.502 1265.62 553.587 1236.76 553.679C1218.95 553.736 1201.13 553.787 1183.31 553.831L1183.33 560.831L1183.31 553.831C1171.1 553.861 1158.9 553.899 1146.7 553.942C1139.65 553.967 1132.6 553.988 1125.55 554.001C1117.92 554.016 1110.29 554.045 1102.67 554.075C1102.67 554.075 1102.66 554.075 1102.66 554.075L1095.86 554.081L1095.84 554.081L1095.82 554.081L1089.7 554.113L1089.68 554.113L1084.53 554.128C1083.67 554.09 1082.73 554.048 1081.92 554.064C1081.02 554.082 1079.68 554.17 1078.25 554.7C1076.68 555.275 1075.57 556.155 1074.77 556.93C1074.16 557.526 1073.57 558.234 1073.16 558.718L1073.07 558.83L1071.56 560.637L1071.45 562.988C1071.25 567.249 1071.2 571.485 1071.2 575.653L1071.18 579.544C1071.18 582.361 1071.17 585.177 1071.17 587.993C1071.17 593.681 1071.13 599.371 1071.09 605.084L1071.08 605.946C1071.01 617.119 1070.95 628.308 1070.95 639.504L1663.25 536.337Z" fill="#4C5270" stroke="white" stroke-width="14"/>
<path d="M356.577 198.591L351.426 200.278L342.663 203.149L342.254 193.936C341.999 188.179 341.742 184.273 340.729 180.865C339.822 177.812 338.233 174.97 334.831 171.85C330.204 168.078 326.459 165.982 322.656 164.805C318.807 163.614 314.407 163.212 308.23 163.524L304.615 163.851L299.863 164.282L297.725 160.016C291.36 147.315 284.075 137.972 272.733 129.958C260.438 123.306 248.533 121.304 234.776 123.823C222.413 127.654 212.51 134.648 205.687 145.012C198.261 158.621 196.374 171.329 200.452 185.949L202.343 191.29L205.852 201.205L195.352 200.615C191.191 200.381 188.119 200.626 185.388 201.342C182.725 202.04 180.035 203.28 176.755 205.472C167.431 212.7 162.385 219.684 160.572 230.364C159.952 243.178 163.554 253.367 171.974 263.472C180.822 271.402 193.461 274.284 206.809 274.442L211.381 274.407L211.429 274.407L211.477 274.407C216.74 274.439 221.983 274.462 227.221 274.447C230.989 274.434 234.757 274.429 238.524 274.433H238.53C246.404 274.448 254.27 274.455 262.132 274.434L356.577 198.591ZM356.577 198.591C367.896 197.645 376.829 200.774 386.174 207.906C390.992 212.386 393.667 216.189 395.302 220.179C396.983 224.281 397.782 229.098 398.085 236.004C397.947 241.782 397.257 246.181 395.837 250.05C394.44 253.855 392.2 257.515 388.482 261.617C377.5 271.61 365.47 274.529 349.609 274.407L349.561 274.407L349.512 274.407L344.483 274.438C344.483 274.438 344.482 274.438 344.482 274.438C339.063 274.463 333.639 274.447 328.186 274.427L328.17 274.427L328.153 274.427C324.335 274.431 320.517 274.437 316.699 274.444C308.727 274.452 300.753 274.44 292.776 274.413H292.775C282.554 274.38 272.339 274.399 262.134 274.434L356.577 198.591Z" fill="#4C5270" stroke="white" stroke-width="14"/>
<path d="M564.39 26.562C560.858 21.5284 556.438 17.126 551.345 12.5662C535.508 2.08922 517.49 7.3098 503.933 21.2209C497.912 29.484 496.366 37.3509 497.568 48.02L499.299 53.124L501.986 61.0436L493.717 62.2938C489.808 62.8848 487.035 64.0586 482.833 66.234C475.52 72.0415 470.831 77.7789 469.467 85.3803C469.434 89.4219 469.748 92.3118 470.487 94.8399C471.234 97.3938 472.528 99.9598 474.933 103.15C480.385 109.841 486.247 113.857 493.965 115.07L500.839 115.038L500.866 115.038L500.893 115.038C505.185 115.051 509.444 115.053 513.695 115.006C516.78 114.97 519.864 114.948 522.949 114.938L522.963 114.938C529.361 114.931 535.745 114.915 542.124 114.865M564.39 26.562L542.187 121.864M564.39 26.562V26.5628V26.5741V26.5854V26.5966V26.6079V26.6192V26.6304V26.6417V26.653V26.6642V26.6755V26.6868V26.6981V26.7093V26.7206V26.7319V26.7432V26.7544V26.7657V26.777V26.7882V26.7995V26.8108V26.8221V26.8334V26.8446V26.8559V26.8672V26.8785V26.8898V26.901V26.9123V26.9236V26.9349V26.9462V26.9575V26.9687V26.98V26.9913V27.0026V27.0139V27.0252V27.0365V27.0477V27.059V27.0703V27.0816V27.0929V27.1042V27.1155V27.1268V27.1381V27.1494V27.1607V27.172V27.1833V27.1946V27.2059V27.2172V27.2285V27.2398V27.2511V27.2624V27.2737V27.285V27.2963V27.3076V27.3189V27.3302V27.3415V27.3528V27.3641V27.3754V27.3867V27.398V27.4093V27.4206V27.4319V27.4433V27.4546V27.4659V27.4772V27.4885V27.4998V27.5111V27.5225V27.5338V27.5451V27.5564V27.5677V27.5791V27.5904V27.6017V27.613V27.6243V27.6357V27.647V27.6583V27.6696V27.681V27.6923V27.7036V27.7149V27.7263V27.7376V27.7489V27.7603V27.7716V27.7829V27.7943V27.8056V27.8169V27.8283V27.8396V27.851V27.8623V27.8736V27.885V27.8963V27.9077V27.919V27.9303V27.9417V27.953V27.9644V27.9757V27.9871V27.9984V28.0098V28.0211V28.0325V28.0438V28.0552V28.0665V28.0779V28.0892V28.1006V28.112V28.1233V28.1347V28.146V28.1574V28.1688V28.1801V28.1915V28.2028V28.2142V28.2256V28.2369V28.2483V28.2597V28.271V28.2824V28.2938V28.3052V28.3165V28.3279V28.3393V28.3507V28.362V28.3734V28.3848V28.3962V28.4075V28.4189V28.4303V28.4417V28.4531V28.4645V28.4758V28.4872V28.4986V28.51V28.5214V28.5328V28.5442V28.5556V28.567V28.5784V28.5898V28.6011V28.6125V28.6239V28.6353V28.6467V28.6581V28.6695V28.6809V28.6923V28.7038V28.7152V28.7266V28.738V28.7494V28.7608V28.7722V28.7836V28.795V28.8064V28.8179V28.8293V28.8407V28.8521V28.8635V28.8749V28.8864V28.8978V28.9092V28.9206V28.9321V28.9435V28.9549V28.9663V28.9778V28.9892V29.0006V29.0121V29.0235V29.0349V29.0464V29.0578V29.0692V29.0807V29.0921V29.1035V29.115V29.1264V29.1379V29.1493V29.1608V29.1722V29.1837V29.1951V29.2066V29.218V29.2295V29.2409V29.2524V29.2638V29.2753V29.2867V29.2982V29.3097V29.3211V29.3326V29.3441V29.3555V29.367V29.3785V29.3899V29.4014V29.4129V29.4243V29.4358V29.4473V29.4588V29.4702V29.4817V29.4932V29.5047V29.5161V29.5276V29.5391V29.5506V29.5621V29.5736V29.5851V29.5965V29.608V29.6195V29.631V29.6425V29.654V29.6655V29.677V29.6885V29.7V29.7115V29.723V29.7345V29.746V29.7575V29.769V29.7805V29.792V29.8035V29.8151V29.8266V29.8381V29.8496V29.8611V29.8726V29.8842V29.8957V29.9072V29.9187V29.9303V29.9418V29.9533V29.9648V29.9764V29.9879V29.9994V30.011V30.0225V30.034V30.0456V30.0571V30.0686V30.0802V30.0917V30.1033V30.1148V30.1264V30.1379V30.1495V30.161V30.1726V30.1841V30.1957V30.2072V30.2188V30.2303V37.8023L571.939 37.2088L575.281 36.946C580.583 36.7103 583.96 36.9115 586.854 37.7313C589.598 38.5087 592.41 39.991 596.196 43.1488M564.39 26.562L596.196 43.1488M542.124 114.865C542.127 114.865 542.129 114.865 542.131 114.865L542.187 121.864M542.124 114.865C542.124 114.865 542.123 114.865 542.122 114.865L542.187 121.864M542.124 114.865C550.448 114.788 558.786 114.721 567.129 114.7H567.132C575.192 114.682 583.25 114.654 591.308 114.614M542.187 121.864C550.507 121.788 558.827 121.721 567.147 121.7C575.213 121.682 583.278 121.654 591.343 121.614L595.959 121.59C600.417 121.57 604.875 121.548 609.334 121.51M591.308 114.614L591.307 114.614L591.343 121.569L591.308 114.614ZM591.308 114.614L595.923 114.59L595.929 114.59C600.383 114.57 604.827 114.548 609.267 114.51L609.334 121.51M609.334 121.51L613.408 121.471L609.334 121.51ZM596.196 43.1488C598.498 45.4276 599.092 46.3313 599.39 47.0036C599.698 47.6988 599.963 48.7609 600.168 51.9595L599.831 56.822L599.273 64.861L607.311 64.2888L611.025 64.0244C617.064 63.7806 621.127 63.9497 624.704 64.829C628.021 65.6444 631.317 67.1735 635.521 70.2381C640.765 76.2333 642.774 81.5197 643.404 89.5796C642.807 96.4038 639.828 101.948 634.464 107.419C630.409 110.809 627.743 112.345 625.145 113.195C622.385 114.097 619.119 114.426 613.353 114.471L613.342 114.471L609.274 114.51L596.196 43.1488Z" fill="#4C5270" stroke="white" stroke-width="14"/>
<path d="M814.551 68.1753C827.199 67.0961 840.316 70.0898 853.582 78.1362C868.829 88.9389 878.809 102.651 882.594 120.343C884.198 138.544 879.629 154.538 868.358 169.03C857.123 182.182 842.811 190.444 825.576 192.249C804.583 192.437 789.418 187.932 774.391 174.26C760.601 159.624 755.519 144.435 756.167 124.263C757.772 108.186 764.625 94.4497 776.885 83.667C789.154 74.4905 801.856 69.2586 814.551 68.1753Z" fill="#4C5270" stroke="white" stroke-width="14"/>
<path d="M315.913 424.3L315.906 424.304L311.554 426.295C298.83 430.428 284.041 428.787 271.4 423.128C257.056 414.859 248.523 404.082 243.049 388.546C241.257 369.623 243.471 355.205 253.712 339.969C264.136 330.111 275.597 324.014 287.427 321.912C299.293 319.804 311.996 321.627 325.053 328.379C337.728 337.093 344.278 346.11 349.296 360.527C350.709 380.327 349.185 395.474 337.74 410.259C331.878 416.367 324.697 420.292 315.913 424.3Z" fill="#4C5270" stroke="white" stroke-width="14"/>
<mask id="path-9-outside-1_0_1" maskUnits="userSpaceOnUse" x="1109" y="357" width="534" height="118" fill="black">
<rect fill="white" x="1109" y="357" width="534" height="118"/>
<path d="M1123.91 459V372.455H1158.05C1164.62 372.455 1170.21 373.708 1174.83 376.216C1179.45 378.695 1182.97 382.146 1185.39 386.569C1187.84 390.964 1189.07 396.035 1189.07 401.782C1189.07 407.529 1187.83 412.6 1185.35 416.995C1182.87 421.39 1179.28 424.813 1174.57 427.264C1169.9 429.715 1164.24 430.94 1157.59 430.94H1135.82V416.277H1154.63C1158.15 416.277 1161.05 415.671 1163.33 414.46C1165.64 413.22 1167.36 411.516 1168.49 409.346C1169.64 407.149 1170.22 404.627 1170.22 401.782C1170.22 398.908 1169.64 396.401 1168.49 394.26C1167.36 392.091 1165.64 390.414 1163.33 389.231C1161.02 388.02 1158.09 387.414 1154.54 387.414H1142.2V459H1123.91ZM1200.95 459V372.455H1235.1C1241.64 372.455 1247.21 373.624 1251.83 375.962C1256.48 378.272 1260.02 381.554 1262.44 385.808C1264.89 390.034 1266.12 395.007 1266.12 400.725C1266.12 406.473 1264.88 411.417 1262.4 415.558C1259.92 419.671 1256.33 422.827 1251.62 425.024C1246.95 427.222 1241.28 428.32 1234.63 428.32H1211.77V413.614H1231.68C1235.17 413.614 1238.07 413.135 1240.38 412.178C1242.69 411.22 1244.41 409.783 1245.54 407.867C1246.69 405.951 1247.27 403.571 1247.27 400.725C1247.27 397.852 1246.69 395.429 1245.54 393.457C1244.41 391.485 1242.68 389.992 1240.34 388.978C1238.03 387.935 1235.11 387.414 1231.59 387.414H1219.25V459H1200.95ZM1247.69 419.615L1269.2 459H1249L1227.96 419.615H1247.69ZM1293.97 459H1274.36L1304.23 372.455H1327.81L1357.65 459H1338.04L1316.36 392.232H1315.69L1293.97 459ZM1292.74 424.982H1339.06V439.265H1292.74V424.982ZM1421.39 400.43C1420.79 398.373 1419.96 396.556 1418.89 394.978C1417.82 393.373 1416.51 392.02 1414.96 390.922C1413.44 389.795 1411.69 388.935 1409.72 388.344C1407.78 387.752 1405.62 387.456 1403.26 387.456C1398.83 387.456 1394.95 388.555 1391.59 390.752C1388.27 392.95 1385.68 396.147 1383.82 400.345C1381.96 404.515 1381.03 409.614 1381.03 415.643C1381.03 421.672 1381.94 426.799 1383.78 431.025C1385.61 435.251 1388.2 438.476 1391.55 440.702C1394.9 442.9 1398.86 443.998 1403.43 443.998C1407.57 443.998 1411.1 443.266 1414.03 441.801C1416.99 440.308 1419.24 438.209 1420.79 435.504C1422.37 432.8 1423.16 429.602 1423.16 425.912L1426.88 426.461H1404.57V412.685H1440.78V423.587C1440.78 431.194 1439.18 437.73 1435.96 443.195C1432.75 448.633 1428.33 452.83 1422.7 455.788C1417.06 458.718 1410.61 460.183 1403.34 460.183C1395.23 460.183 1388.1 458.394 1381.96 454.816C1375.82 451.21 1371.03 446.097 1367.59 439.477C1364.18 432.828 1362.48 424.94 1362.48 415.812C1362.48 408.797 1363.49 402.543 1365.52 397.049C1367.58 391.527 1370.45 386.851 1374.14 383.019C1377.83 379.188 1382.13 376.272 1387.03 374.272C1391.93 372.271 1397.24 371.271 1402.96 371.271C1407.86 371.271 1412.43 371.99 1416.65 373.426C1420.88 374.835 1424.63 376.835 1427.89 379.427C1431.19 382.019 1433.88 385.104 1435.96 388.682C1438.05 392.232 1439.39 396.147 1439.98 400.43H1421.39ZM1466.77 459H1447.16L1477.04 372.455H1500.62L1530.45 459H1510.85L1489.17 392.232H1488.49L1466.77 459ZM1465.55 424.982H1511.86V439.265H1465.55V424.982ZM1527 387.541V372.455H1598.08V387.541H1571.58V459H1553.5V387.541H1527ZM1628.08 372.455V459H1609.78V372.455H1628.08Z"/>
</mask>
<path d="M1123.91 459V372.455H1158.05C1164.62 372.455 1170.21 373.708 1174.83 376.216C1179.45 378.695 1182.97 382.146 1185.39 386.569C1187.84 390.964 1189.07 396.035 1189.07 401.782C1189.07 407.529 1187.83 412.6 1185.35 416.995C1182.87 421.39 1179.28 424.813 1174.57 427.264C1169.9 429.715 1164.24 430.94 1157.59 430.94H1135.82V416.277H1154.63C1158.15 416.277 1161.05 415.671 1163.33 414.46C1165.64 413.22 1167.36 411.516 1168.49 409.346C1169.64 407.149 1170.22 404.627 1170.22 401.782C1170.22 398.908 1169.64 396.401 1168.49 394.26C1167.36 392.091 1165.64 390.414 1163.33 389.231C1161.02 388.02 1158.09 387.414 1154.54 387.414H1142.2V459H1123.91ZM1200.95 459V372.455H1235.1C1241.64 372.455 1247.21 373.624 1251.83 375.962C1256.48 378.272 1260.02 381.554 1262.44 385.808C1264.89 390.034 1266.12 395.007 1266.12 400.725C1266.12 406.473 1264.88 411.417 1262.4 415.558C1259.92 419.671 1256.33 422.827 1251.62 425.024C1246.95 427.222 1241.28 428.32 1234.63 428.32H1211.77V413.614H1231.68C1235.17 413.614 1238.07 413.135 1240.38 412.178C1242.69 411.22 1244.41 409.783 1245.54 407.867C1246.69 405.951 1247.27 403.571 1247.27 400.725C1247.27 397.852 1246.69 395.429 1245.54 393.457C1244.41 391.485 1242.68 389.992 1240.34 388.978C1238.03 387.935 1235.11 387.414 1231.59 387.414H1219.25V459H1200.95ZM1247.69 419.615L1269.2 459H1249L1227.96 419.615H1247.69ZM1293.97 459H1274.36L1304.23 372.455H1327.81L1357.65 459H1338.04L1316.36 392.232H1315.69L1293.97 459ZM1292.74 424.982H1339.06V439.265H1292.74V424.982ZM1421.39 400.43C1420.79 398.373 1419.96 396.556 1418.89 394.978C1417.82 393.373 1416.51 392.02 1414.96 390.922C1413.44 389.795 1411.69 388.935 1409.72 388.344C1407.78 387.752 1405.62 387.456 1403.26 387.456C1398.83 387.456 1394.95 388.555 1391.59 390.752C1388.27 392.95 1385.68 396.147 1383.82 400.345C1381.96 404.515 1381.03 409.614 1381.03 415.643C1381.03 421.672 1381.94 426.799 1383.78 431.025C1385.61 435.251 1388.2 438.476 1391.55 440.702C1394.9 442.9 1398.86 443.998 1403.43 443.998C1407.57 443.998 1411.1 443.266 1414.03 441.801C1416.99 440.308 1419.24 438.209 1420.79 435.504C1422.37 432.8 1423.16 429.602 1423.16 425.912L1426.88 426.461H1404.57V412.685H1440.78V423.587C1440.78 431.194 1439.18 437.73 1435.96 443.195C1432.75 448.633 1428.33 452.83 1422.7 455.788C1417.06 458.718 1410.61 460.183 1403.34 460.183C1395.23 460.183 1388.1 458.394 1381.96 454.816C1375.82 451.21 1371.03 446.097 1367.59 439.477C1364.18 432.828 1362.48 424.94 1362.48 415.812C1362.48 408.797 1363.49 402.543 1365.52 397.049C1367.58 391.527 1370.45 386.851 1374.14 383.019C1377.83 379.188 1382.13 376.272 1387.03 374.272C1391.93 372.271 1397.24 371.271 1402.96 371.271C1407.86 371.271 1412.43 371.99 1416.65 373.426C1420.88 374.835 1424.63 376.835 1427.89 379.427C1431.19 382.019 1433.88 385.104 1435.96 388.682C1438.05 392.232 1439.39 396.147 1439.98 400.43H1421.39ZM1466.77 459H1447.16L1477.04 372.455H1500.62L1530.45 459H1510.85L1489.17 392.232H1488.49L1466.77 459ZM1465.55 424.982H1511.86V439.265H1465.55V424.982ZM1527 387.541V372.455H1598.08V387.541H1571.58V459H1553.5V387.541H1527ZM1628.08 372.455V459H1609.78V372.455H1628.08Z" fill="#4C5270"/>
<path d="M1123.91 459H1109.91V473H1123.91V459ZM1123.91 372.455V358.455H1109.91V372.455H1123.91ZM1174.83 376.216L1168.15 388.52L1168.18 388.536L1168.21 388.552L1174.83 376.216ZM1185.39 386.569L1173.11 393.295L1173.14 393.341L1173.17 393.388L1185.39 386.569ZM1174.57 427.264L1168.11 414.848L1168.09 414.856L1168.08 414.864L1174.57 427.264ZM1135.82 430.94H1121.82V444.94H1135.82V430.94ZM1135.82 416.277V402.277H1121.82V416.277H1135.82ZM1163.33 414.46L1169.9 426.825L1169.93 426.81L1169.95 426.796L1163.33 414.46ZM1168.49 409.346L1156.1 402.832L1156.08 402.862L1156.07 402.892L1168.49 409.346ZM1168.49 394.26L1156.07 400.714L1156.12 400.811L1156.17 400.907L1168.49 394.26ZM1163.33 389.231L1156.83 401.63L1156.89 401.661L1156.95 401.692L1163.33 389.231ZM1142.2 387.414V373.414H1128.2V387.414H1142.2ZM1142.2 459V473H1156.2V459H1142.2ZM1137.91 459V372.455H1109.91V459H1137.91ZM1123.91 386.455H1158.05V358.455H1123.91V386.455ZM1158.05 386.455C1162.85 386.455 1166.03 387.369 1168.15 388.52L1181.51 363.911C1174.39 360.047 1166.38 358.455 1158.05 358.455V386.455ZM1168.21 388.552C1170.54 389.802 1172.05 391.348 1173.11 393.295L1197.67 379.843C1193.89 372.943 1188.36 367.587 1181.45 363.879L1168.21 388.552ZM1173.17 393.388C1174.3 395.417 1175.07 398.078 1175.07 401.782H1203.07C1203.07 393.991 1201.39 386.51 1197.62 379.75L1173.17 393.388ZM1175.07 401.782C1175.07 405.459 1174.3 408.098 1173.16 410.117L1197.54 423.874C1201.36 417.102 1203.07 409.599 1203.07 401.782H1175.07ZM1173.16 410.117C1172.08 412.026 1170.54 413.582 1168.11 414.848L1181.04 439.68C1188.02 436.044 1193.66 430.754 1197.54 423.874L1173.16 410.117ZM1168.08 414.864C1165.86 416.026 1162.55 416.94 1157.59 416.94V444.94C1165.93 444.94 1173.94 443.403 1181.07 439.664L1168.08 414.864ZM1157.59 416.94H1135.82V444.94H1157.59V416.94ZM1149.82 430.94V416.277H1121.82V430.94H1149.82ZM1135.82 430.277H1154.63V402.277H1135.82V430.277ZM1154.63 430.277C1159.65 430.277 1165 429.428 1169.9 426.825L1156.77 402.094C1157.11 401.914 1156.65 402.277 1154.63 402.277V430.277ZM1169.95 426.796C1174.56 424.326 1178.39 420.654 1180.91 415.8L1156.07 402.892C1156.16 402.702 1156.32 402.492 1156.5 402.311C1156.67 402.137 1156.78 402.089 1156.71 402.123L1169.95 426.796ZM1180.88 415.86C1183.24 411.377 1184.22 406.563 1184.22 401.782H1156.22C1156.22 402.256 1156.17 402.542 1156.14 402.681C1156.11 402.813 1156.09 402.848 1156.1 402.832L1180.88 415.86ZM1184.22 401.782C1184.22 397.008 1183.25 392.137 1180.81 387.613L1156.17 400.907C1156.12 400.812 1156.12 400.787 1156.15 400.889C1156.17 401 1156.22 401.282 1156.22 401.782H1184.22ZM1180.91 387.806C1178.36 382.892 1174.45 379.193 1169.72 376.771L1156.95 401.692C1156.96 401.697 1156.8 401.614 1156.58 401.398C1156.35 401.176 1156.18 400.927 1156.07 400.714L1180.91 387.806ZM1169.84 376.832C1164.93 374.259 1159.58 373.414 1154.54 373.414V401.414C1156.61 401.414 1157.12 401.78 1156.83 401.63L1169.84 376.832ZM1154.54 373.414H1142.2V401.414H1154.54V373.414ZM1128.2 387.414V459H1156.2V387.414H1128.2ZM1142.2 445H1123.91V473H1142.2V445ZM1200.95 459H1186.95V473H1200.95V459ZM1200.95 372.455V358.455H1186.95V372.455H1200.95ZM1251.83 375.962L1245.51 388.453L1245.56 388.476L1245.6 388.499L1251.83 375.962ZM1262.44 385.808L1250.28 392.737L1250.3 392.785L1250.33 392.832L1262.44 385.808ZM1262.4 415.558L1274.39 422.785L1274.4 422.767L1274.41 422.749L1262.4 415.558ZM1251.62 425.024L1245.7 412.34L1245.68 412.346L1245.67 412.353L1251.62 425.024ZM1211.77 428.32H1197.77V442.32H1211.77V428.32ZM1211.77 413.614V399.614H1197.77V413.614H1211.77ZM1240.38 412.178L1245.74 425.11L1245.74 425.11L1240.38 412.178ZM1245.54 407.867L1233.55 400.638L1233.51 400.703L1233.47 400.769L1245.54 407.867ZM1245.54 393.457L1233.38 400.403L1233.42 400.468L1233.46 400.533L1245.54 393.457ZM1240.34 388.978L1234.58 401.739L1234.67 401.781L1234.77 401.822L1240.34 388.978ZM1219.25 387.414V373.414H1205.25V387.414H1219.25ZM1219.25 459V473H1233.25V459H1219.25ZM1247.69 419.615L1259.98 412.905L1256 405.615H1247.69V419.615ZM1269.2 459V473H1292.8L1281.49 452.29L1269.2 459ZM1249 459L1236.65 465.598L1240.61 473H1249V459ZM1227.96 419.615V405.615H1204.6L1215.61 426.213L1227.96 419.615ZM1214.95 459V372.455H1186.95V459H1214.95ZM1200.95 386.455H1235.1V358.455H1200.95V386.455ZM1235.1 386.455C1240 386.455 1243.3 387.333 1245.51 388.453L1258.16 363.471C1251.13 359.915 1243.27 358.455 1235.1 358.455V386.455ZM1245.6 388.499C1247.92 389.65 1249.31 391.05 1250.28 392.737L1274.61 378.88C1270.72 372.059 1265.05 366.895 1258.06 363.425L1245.6 388.499ZM1250.33 392.832C1251.35 394.584 1252.12 397.049 1252.12 400.725H1280.12C1280.12 392.964 1278.44 385.484 1274.55 378.784L1250.33 392.832ZM1252.12 400.725C1252.12 404.426 1251.34 406.781 1250.39 408.367L1274.41 422.749C1278.42 416.052 1280.12 408.519 1280.12 400.725H1252.12ZM1250.41 408.331C1249.48 409.868 1248.1 411.219 1245.7 412.34L1257.55 437.709C1264.56 434.435 1270.36 429.474 1274.39 422.785L1250.41 408.331ZM1245.67 412.353C1243.31 413.462 1239.79 414.32 1234.63 414.32V442.32C1242.77 442.32 1250.58 440.981 1257.58 437.695L1245.67 412.353ZM1234.63 414.32H1211.77V442.32H1234.63V414.32ZM1225.77 428.32V413.614H1197.77V428.32H1225.77ZM1211.77 427.614H1231.68V399.614H1211.77V427.614ZM1231.68 427.614C1236.33 427.614 1241.2 426.993 1245.74 425.11L1235.02 399.245C1234.94 399.278 1234.01 399.614 1231.68 399.614V427.614ZM1245.74 425.11C1250.49 423.14 1254.74 419.827 1257.6 414.965L1233.47 400.769C1233.73 400.334 1234.06 399.943 1234.42 399.641C1234.59 399.499 1234.74 399.4 1234.85 399.335C1234.96 399.271 1235.02 399.245 1235.02 399.245L1245.74 425.11ZM1257.53 415.096C1260.31 410.479 1261.27 405.435 1261.27 400.725H1233.27C1233.27 401.21 1233.22 401.392 1233.23 401.344C1233.24 401.318 1233.26 401.234 1233.31 401.107C1233.36 400.979 1233.44 400.818 1233.55 400.638L1257.53 415.096ZM1261.27 400.725C1261.27 395.997 1260.31 390.986 1257.62 386.381L1233.46 400.533C1233.37 400.384 1233.31 400.254 1233.27 400.155C1233.23 400.058 1233.22 400.002 1233.22 399.999C1233.22 399.998 1233.23 400.052 1233.24 400.172C1233.26 400.293 1233.27 400.475 1233.27 400.725H1261.27ZM1257.69 386.511C1254.88 381.596 1250.67 378.197 1245.91 376.134L1234.77 401.822C1234.79 401.83 1234.57 401.737 1234.25 401.463C1233.92 401.178 1233.61 400.809 1233.38 400.403L1257.69 386.511ZM1246.1 376.217C1241.42 374.105 1236.38 373.414 1231.59 373.414V401.414C1233.85 401.414 1234.64 401.766 1234.58 401.739L1246.1 376.217ZM1231.59 373.414H1219.25V401.414H1231.59V373.414ZM1205.25 387.414V459H1233.25V387.414H1205.25ZM1219.25 445H1200.95V473H1219.25V445ZM1235.41 426.325L1256.92 465.71L1281.49 452.29L1259.98 412.905L1235.41 426.325ZM1269.2 445H1249V473H1269.2V445ZM1261.35 452.402L1240.31 413.017L1215.61 426.213L1236.65 465.598L1261.35 452.402ZM1227.96 433.615H1247.69V405.615H1227.96V433.615ZM1293.97 459V473H1304.13L1307.28 463.331L1293.97 459ZM1274.36 459L1261.12 454.432L1254.71 473H1274.36V459ZM1304.23 372.455V358.455H1294.26L1291 367.886L1304.23 372.455ZM1327.81 372.455L1341.05 367.892L1337.8 358.455H1327.81V372.455ZM1357.65 459V473H1377.28L1370.88 454.437L1357.65 459ZM1338.04 459L1324.73 463.323L1327.87 473H1338.04V459ZM1316.36 392.232L1329.68 387.908L1326.54 378.232H1316.36V392.232ZM1315.69 392.232V378.232H1305.52L1302.37 387.901L1315.69 392.232ZM1292.74 424.982V410.982H1278.74V424.982H1292.74ZM1339.06 424.982H1353.06V410.982H1339.06V424.982ZM1339.06 439.265V453.265H1353.06V439.265H1339.06ZM1292.74 439.265H1278.74V453.265H1292.74V439.265ZM1293.97 445H1274.36V473H1293.97V445ZM1287.59 463.568L1317.47 377.023L1291 367.886L1261.12 454.432L1287.59 463.568ZM1304.23 386.455H1327.81V358.455H1304.23V386.455ZM1314.58 377.017L1344.41 463.563L1370.88 454.437L1341.05 367.892L1314.58 377.017ZM1357.65 445H1338.04V473H1357.65V445ZM1351.36 454.677L1329.68 387.908L1303.05 396.555L1324.73 463.323L1351.36 454.677ZM1316.36 378.232H1315.69V406.232H1316.36V378.232ZM1302.37 387.901L1280.65 454.669L1307.28 463.331L1329 396.563L1302.37 387.901ZM1292.74 438.982H1339.06V410.982H1292.74V438.982ZM1325.06 424.982V439.265H1353.06V424.982H1325.06ZM1339.06 425.265H1292.74V453.265H1339.06V425.265ZM1306.74 439.265V424.982H1278.74V439.265H1306.74ZM1421.39 400.43L1407.93 404.3L1410.85 414.43H1421.39V400.43ZM1418.89 394.978L1407.24 402.744L1407.28 402.792L1407.31 402.839L1418.89 394.978ZM1414.96 390.922L1406.63 402.171L1406.75 402.258L1406.86 402.342L1414.96 390.922ZM1409.72 388.344L1405.65 401.737L1405.67 401.745L1405.7 401.753L1409.72 388.344ZM1391.59 390.752L1383.92 379.044L1383.9 379.058L1383.87 379.073L1391.59 390.752ZM1383.82 400.345L1396.6 406.047L1396.61 406.031L1396.62 406.015L1383.82 400.345ZM1391.55 440.702L1383.81 452.366L1383.84 452.388L1383.88 452.411L1391.55 440.702ZM1414.03 441.801L1420.29 454.323L1420.32 454.311L1420.34 454.299L1414.03 441.801ZM1420.79 435.504L1408.7 428.45L1408.67 428.497L1408.65 428.545L1420.79 435.504ZM1423.16 425.912L1425.21 412.062L1409.16 409.691V425.912H1423.16ZM1426.88 426.461V440.461L1428.93 412.611L1426.88 426.461ZM1404.57 426.461H1390.57V440.461H1404.57V426.461ZM1404.57 412.685V398.685H1390.57V412.685H1404.57ZM1440.78 412.685H1454.78V398.685H1440.78V412.685ZM1435.96 443.195L1448.02 450.315L1448.03 450.302L1448.04 450.288L1435.96 443.195ZM1422.7 455.788L1429.15 468.209L1429.18 468.197L1429.2 468.184L1422.7 455.788ZM1381.96 454.816L1374.87 466.889L1374.89 466.901L1374.91 466.913L1381.96 454.816ZM1367.59 439.477L1355.13 445.864L1355.15 445.896L1355.17 445.927L1367.59 439.477ZM1365.52 397.049L1352.4 392.163L1352.39 392.181L1352.39 392.2L1365.52 397.049ZM1374.14 383.019L1384.22 392.732L1384.22 392.732L1374.14 383.019ZM1387.03 374.272L1381.74 361.309L1381.74 361.309L1387.03 374.272ZM1416.65 373.426L1412.15 386.681L1412.19 386.695L1412.23 386.708L1416.65 373.426ZM1427.89 379.427L1419.19 390.396L1419.22 390.414L1419.24 390.432L1427.89 379.427ZM1435.96 388.682L1423.87 395.73L1423.88 395.751L1423.89 395.772L1435.96 388.682ZM1439.98 400.43V414.43H1456.05L1453.85 398.514L1439.98 400.43ZM1434.84 396.559C1433.89 393.254 1432.47 390.058 1430.48 387.117L1407.31 402.839C1407.45 403.054 1407.7 403.492 1407.93 404.3L1434.84 396.559ZM1430.54 387.213C1428.54 384.205 1426.03 381.607 1423.06 379.501L1406.86 402.342C1406.99 402.434 1407.11 402.54 1407.24 402.744L1430.54 387.213ZM1423.3 379.672C1420.36 377.5 1417.13 375.95 1413.75 374.934L1405.7 401.753C1406.26 401.92 1406.52 402.089 1406.63 402.171L1423.3 379.672ZM1413.8 374.95C1410.34 373.897 1406.78 373.456 1403.26 373.456V401.456C1404.46 401.456 1405.22 401.608 1405.65 401.737L1413.8 374.95ZM1403.26 373.456C1396.4 373.456 1389.78 375.198 1383.92 379.044L1399.27 402.461C1400.11 401.912 1401.27 401.456 1403.26 401.456V373.456ZM1383.87 379.073C1377.99 382.961 1373.79 388.411 1371.02 394.675L1396.62 406.015C1397.56 403.884 1398.55 402.939 1399.31 402.432L1383.87 379.073ZM1371.03 394.643C1368.16 401.084 1367.03 408.249 1367.03 415.643H1395.03C1395.03 410.979 1395.76 407.945 1396.6 406.047L1371.03 394.643ZM1367.03 415.643C1367.03 423.022 1368.14 430.156 1370.93 436.591L1396.62 425.458C1395.75 423.442 1395.03 420.321 1395.03 415.643H1367.03ZM1370.93 436.591C1373.68 442.932 1377.89 448.436 1383.81 452.366L1399.29 429.038C1398.51 428.517 1397.54 427.57 1396.62 425.458L1370.93 436.591ZM1383.88 452.411C1389.81 456.303 1396.52 457.998 1403.43 457.998V429.998C1401.2 429.998 1399.99 429.496 1399.23 428.993L1383.88 452.411ZM1403.43 457.998C1409.18 457.998 1414.97 456.982 1420.29 454.323L1407.77 429.279C1407.23 429.549 1405.95 429.998 1403.43 429.998V457.998ZM1420.34 454.299C1425.58 451.653 1429.94 447.699 1432.94 442.464L1408.65 428.545C1408.55 428.719 1408.4 428.963 1407.72 429.303L1420.34 454.299ZM1432.89 442.558C1435.92 437.358 1437.16 431.635 1437.16 425.912H1409.16C1409.16 427.57 1408.82 428.242 1408.7 428.45L1432.89 442.558ZM1421.11 439.761L1424.83 440.311L1428.93 412.611L1425.21 412.062L1421.11 439.761ZM1426.88 412.461H1404.57V440.461H1426.88V412.461ZM1418.57 426.461V412.685H1390.57V426.461H1418.57ZM1404.57 426.685H1440.78V398.685H1404.57V426.685ZM1426.78 412.685V423.587H1454.78V412.685H1426.78ZM1426.78 423.587C1426.78 429.2 1425.61 433.181 1423.89 436.102L1448.04 450.288C1452.74 442.279 1454.78 433.188 1454.78 423.587H1426.78ZM1423.91 436.075C1422.03 439.255 1419.54 441.634 1416.19 443.393L1429.2 468.184C1437.12 464.027 1443.47 458.011 1448.02 450.315L1423.91 436.075ZM1416.24 443.367C1412.87 445.119 1408.69 446.183 1403.34 446.183V474.183C1412.53 474.183 1421.25 472.318 1429.15 468.209L1416.24 443.367ZM1403.34 446.183C1397.35 446.183 1392.72 444.883 1389.01 442.719L1374.91 466.913C1383.48 471.906 1393.11 474.183 1403.34 474.183V446.183ZM1389.05 442.744C1385.29 440.537 1382.3 437.424 1380.02 433.026L1355.17 445.927C1359.76 454.77 1366.35 461.884 1374.87 466.889L1389.05 442.744ZM1380.05 433.089C1377.85 428.808 1376.48 423.204 1376.48 415.812H1348.48C1348.48 426.675 1350.51 436.848 1355.13 445.864L1380.05 433.089ZM1376.48 415.812C1376.48 410.133 1377.3 405.566 1378.65 401.898L1352.39 392.2C1349.68 399.519 1348.48 407.461 1348.48 415.812H1376.48ZM1378.64 401.935C1380.1 398.019 1382 395.038 1384.22 392.732L1364.06 373.307C1358.9 378.664 1355.05 385.036 1352.4 392.163L1378.64 401.935ZM1384.22 392.732C1386.57 390.299 1389.23 388.493 1392.32 387.234L1381.74 361.309C1375.02 364.05 1369.1 368.077 1364.06 373.307L1384.22 392.732ZM1392.32 387.234C1395.41 385.972 1398.91 385.271 1402.96 385.271V357.271C1395.57 357.271 1388.45 358.571 1381.74 361.309L1392.32 387.234ZM1402.96 385.271C1406.48 385.271 1409.51 385.784 1412.15 386.681L1421.16 360.172C1415.35 358.195 1409.25 357.271 1402.96 357.271V385.271ZM1412.23 386.708C1415.01 387.636 1417.29 388.885 1419.19 390.396L1436.59 368.458C1431.96 364.785 1426.75 362.034 1421.08 360.145L1412.23 386.708ZM1419.24 390.432C1421.17 391.948 1422.68 393.696 1423.87 395.73L1448.06 381.634C1445.08 376.512 1441.21 372.09 1436.55 368.422L1419.24 390.432ZM1423.89 395.772C1425 397.653 1425.76 399.797 1426.11 402.346L1453.85 398.514C1453.02 392.498 1451.1 386.81 1448.04 381.592L1423.89 395.772ZM1439.98 386.43H1421.39V414.43H1439.98V386.43ZM1466.77 459V473H1476.94L1480.08 463.331L1466.77 459ZM1447.16 459L1433.93 454.432L1427.52 473H1447.16V459ZM1477.04 372.455V358.455H1467.06L1463.81 367.886L1477.04 372.455ZM1500.62 372.455L1513.86 367.892L1510.6 358.455H1500.62V372.455ZM1530.45 459V473H1550.09L1543.69 454.437L1530.45 459ZM1510.85 459L1497.53 463.323L1500.67 473H1510.85V459ZM1489.17 392.232L1502.48 387.908L1499.34 378.232H1489.17V392.232ZM1488.49 392.232V378.232H1478.32L1475.18 387.901L1488.49 392.232ZM1465.55 424.982V410.982H1451.55V424.982H1465.55ZM1511.86 424.982H1525.86V410.982H1511.86V424.982ZM1511.86 439.265V453.265H1525.86V439.265H1511.86ZM1465.55 439.265H1451.55V453.265H1465.55V439.265ZM1466.77 445H1447.16V473H1466.77V445ZM1460.4 463.568L1490.27 377.023L1463.81 367.886L1433.93 454.432L1460.4 463.568ZM1477.04 386.455H1500.62V358.455H1477.04V386.455ZM1487.38 377.017L1517.22 463.563L1543.69 454.437L1513.86 367.892L1487.38 377.017ZM1530.45 445H1510.85V473H1530.45V445ZM1524.16 454.677L1502.48 387.908L1475.85 396.555L1497.53 463.323L1524.16 454.677ZM1489.17 378.232H1488.49V406.232H1489.17V378.232ZM1475.18 387.901L1453.46 454.669L1480.08 463.331L1501.81 396.563L1475.18 387.901ZM1465.55 438.982H1511.86V410.982H1465.55V438.982ZM1497.86 424.982V439.265H1525.86V424.982H1497.86ZM1511.86 425.265H1465.55V453.265H1511.86V425.265ZM1479.55 439.265V424.982H1451.55V439.265H1479.55ZM1527 387.541H1513V401.541H1527V387.541ZM1527 372.455V358.455H1513V372.455H1527ZM1598.08 372.455H1612.08V358.455H1598.08V372.455ZM1598.08 387.541V401.541H1612.08V387.541H1598.08ZM1571.58 387.541V373.541H1557.58V387.541H1571.58ZM1571.58 459V473H1585.58V459H1571.58ZM1553.5 459H1539.5V473H1553.5V459ZM1553.5 387.541H1567.5V373.541H1553.5V387.541ZM1541 387.541V372.455H1513V387.541H1541ZM1527 386.455H1598.08V358.455H1527V386.455ZM1584.08 372.455V387.541H1612.08V372.455H1584.08ZM1598.08 373.541H1571.58V401.541H1598.08V373.541ZM1557.58 387.541V459H1585.58V387.541H1557.58ZM1571.58 445H1553.5V473H1571.58V445ZM1567.5 459V387.541H1539.5V459H1567.5ZM1553.5 373.541H1527V401.541H1553.5V373.541ZM1628.08 372.455H1642.08V358.455H1628.08V372.455ZM1628.08 459V473H1642.08V459H1628.08ZM1609.78 459H1595.78V473H1609.78V459ZM1609.78 372.455V358.455H1595.78V372.455H1609.78ZM1614.08 372.455V459H1642.08V372.455H1614.08ZM1628.08 445H1609.78V473H1628.08V445ZM1623.78 459V372.455H1595.78V459H1623.78ZM1609.78 386.455H1628.08V358.455H1609.78V386.455Z" fill="white" mask="url(#path-9-outside-1_0_1)"/>
</svg>
