<svg width="1677" height="917" viewBox="0 0 1677 917" fill="none" xmlns="http://www.w3.org/2000/svg">
<path d="M750.976 219.607C753.315 219.595 755.655 219.584 758.066 219.573C760.646 219.571 763.226 219.569 765.885 219.567C768.62 219.558 771.354 219.548 774.089 219.537C781.53 219.512 788.972 219.5 796.413 219.491C801.062 219.485 805.711 219.477 810.36 219.469C824.905 219.442 839.449 219.424 853.994 219.416C870.785 219.407 887.575 219.374 904.365 219.317C917.341 219.276 930.317 219.256 943.294 219.254C951.044 219.252 958.795 219.24 966.545 219.206C973.84 219.174 981.134 219.17 988.429 219.187C992.375 219.189 996.321 219.162 1000.27 219.135C1002.63 219.146 1004.99 219.156 1007.42 219.167C1009.47 219.165 1011.51 219.162 1013.62 219.159C1023.76 220.415 1031.35 224.711 1037.75 232.449C1038.72 233.586 1039.69 234.723 1040.68 235.894C1045.99 243.371 1046.14 251.723 1045.01 260.492C1041.27 271.907 1035.21 278.821 1025.33 285.635C1019.03 287.698 1014.36 287.872 1007.74 287.966C1004.13 288.023 1004.13 288.023 1000.46 288.083C997.86 288.115 995.264 288.147 992.59 288.18C989.907 288.22 987.224 288.261 984.541 288.302C977.485 288.409 970.429 288.505 963.372 288.598C956.17 288.695 948.967 288.803 941.765 288.909C927.636 289.117 913.508 289.314 899.38 289.503C899.024 291.269 898.669 293.036 898.303 294.857C890.463 333.76 882.4 372.598 873.796 411.345C875.744 411.418 877.692 411.49 879.7 411.564C912.591 413.046 912.591 413.046 922.55 422.337C932.826 433.74 933.217 440.999 933.205 455.948C933.203 458.035 933.201 460.122 933.2 462.273C932.968 494.723 931.028 527.132 929.161 559.524C928.915 563.866 928.681 568.208 928.454 572.551C928.073 579.78 927.632 587.005 927.178 594.23C927.071 596.284 926.965 598.338 926.856 600.454C925.856 614.796 923.018 626.29 912.172 636.416C901.271 643.379 892.719 645.559 879.7 643.426C867.793 638.222 860.888 632.234 856.084 620.218C855.303 613.275 855.439 606.405 855.592 599.428C855.615 597.397 855.638 595.367 855.662 593.275C855.996 570.008 856.994 546.762 858.052 523.518C858.242 519.164 858.432 514.81 858.621 510.456C859.077 499.982 859.544 489.509 860.02 479.036C858.174 478.87 856.328 478.704 854.426 478.534C847.538 477.914 840.65 477.289 833.762 476.663C830.789 476.393 827.815 476.125 824.841 475.858C820.551 475.473 816.262 475.083 811.973 474.692C809.397 474.459 806.82 474.226 804.166 473.986C797.794 473.313 791.551 472.35 785.236 471.3C781.384 471.176 777.528 471.132 773.674 471.179C771.772 471.196 769.869 471.214 767.909 471.232C766.483 471.254 765.057 471.276 763.588 471.3C763.01 472.972 762.432 474.645 761.836 476.369C742.296 530.978 713.747 581.995 673.061 624.086C672.15 625.035 671.238 625.983 670.299 626.96C657.775 639.914 645.279 651.325 629.765 660.833C628.032 661.907 626.3 662.982 624.515 664.089C610.757 672.417 599.089 678.935 582.533 676.305C571.468 671.844 564.653 665.402 558.918 655.031C555.301 644.367 555.592 635.102 559.902 624.691C567.44 613.462 579.744 607.167 591.143 600.274C642.99 568.209 677.915 504.723 694.709 448.091C694.188 441.048 692.877 434.979 690.727 428.245C682.919 398.872 692.343 367.454 702.581 339.787C701.411 340.841 700.242 341.896 699.037 342.982C688.599 352.315 677.952 361.279 666.98 369.998C661.902 374.077 656.901 378.225 651.919 382.416C607.052 420.129 607.052 420.129 585.854 419.686C575.487 418.501 569.747 412.712 563.223 405.301C555.515 395.346 555.541 386.874 556.95 374.599C561.268 361.89 571.956 354.373 582.349 346.397C588.791 341.449 595.016 336.304 601.229 331.084C608.994 324.594 616.809 318.18 624.722 311.865C633.079 305.182 641.284 298.347 649.445 291.437C659.315 283.079 669.299 274.889 679.418 266.823C684.393 262.811 689.297 258.732 694.187 254.622C704.14 246.261 714.22 238.123 724.598 230.273C725.686 229.45 726.774 228.626 727.895 227.777C736.324 221.461 740.393 219.636 750.976 219.607Z" fill="#FF6F61"/>
<path d="M241.656 449.727C243.595 449.713 245.534 449.699 247.532 449.685C249.658 449.68 251.783 449.674 253.973 449.669C256.214 449.656 258.454 449.644 260.763 449.631C268.194 449.592 275.626 449.57 283.057 449.551C285.594 449.543 288.131 449.535 290.745 449.527C302.789 449.49 314.833 449.462 326.877 449.446C340.757 449.427 354.636 449.376 368.516 449.298C380.555 449.233 392.593 449.21 404.632 449.202C409.744 449.193 414.856 449.17 419.967 449.134C427.128 449.087 434.287 449.089 441.447 449.102C443.553 449.078 445.658 449.053 447.828 449.027C460.284 449.112 469.849 450.622 480.202 457.747C487.11 464.706 488.667 470.417 489.181 479.868C488.824 488.772 487.022 494.341 481.54 501.384C469.538 511.478 457.45 510.734 442.457 510.532C440.158 510.524 437.86 510.516 435.492 510.507C428.173 510.475 420.855 510.402 413.537 510.328C408.565 510.299 403.594 510.273 398.623 510.249C386.456 510.185 374.289 510.088 362.123 509.966C361.98 511.696 361.98 511.696 361.835 513.461C360.703 525.918 358.649 537.989 356.088 550.232C355.698 552.137 355.307 554.041 354.905 556.003C353.671 562.014 352.424 568.022 351.176 574.03C350.331 578.134 349.486 582.239 348.643 586.344C346.586 596.343 344.519 606.341 342.443 616.336C343.66 616.33 344.878 616.325 346.132 616.318C348.527 616.312 348.527 616.312 350.97 616.305C352.553 616.299 354.136 616.293 355.767 616.287C366.535 616.408 375.062 617.988 383.525 624.677C390.419 633.246 394.41 638.967 394.052 650.106C393.971 653.17 393.971 653.17 393.889 656.295C393.797 658.426 393.705 660.557 393.611 662.753C393.536 664.829 393.462 666.906 393.385 669.046C393.12 675.732 392.797 682.413 392.457 689.096C392.336 691.536 392.214 693.976 392.089 696.491C391.83 701.619 391.569 706.746 391.304 711.874C390.969 718.37 390.652 724.867 390.339 731.364C390.032 737.663 389.706 743.961 389.383 750.259C389.274 752.552 389.165 754.846 389.053 757.209C386.751 800.3 386.751 800.3 378.974 808.287C369.268 814.801 359.72 814.548 348.347 813.605C338.764 810.407 331.305 805.189 326.699 796.199C325.325 787.643 325.597 779.215 325.838 770.574C325.889 766.819 325.889 766.819 325.942 762.988C326.443 732.765 328.506 702.57 330.635 672.423C329.352 672.456 328.069 672.49 326.747 672.525C312.543 672.732 298.931 671.457 284.879 669.522C266.495 667.023 266.495 667.023 247.979 666.621C247.31 668.495 246.64 670.37 245.95 672.302C238.827 691.825 230.343 710.211 220.428 728.509C219.814 729.66 219.201 730.811 218.569 731.997C194.422 777.022 157.441 822.864 108.252 842.616C99.6103 844.654 92.8356 843.215 85.0052 839.231C77.2322 833.839 73.8443 830.139 70.8603 821.341C69.5235 812.937 69.0123 805.335 73.2434 797.703C80.6098 788.883 89.1635 783.473 99.1809 777.909C140.195 754.076 166.286 705.472 183.282 662.994C183.911 661.5 184.541 660.007 185.189 658.468C188.931 648.631 188.996 642.389 186.122 632.327C184.222 624.874 184.336 617.455 184.389 609.809C184.394 608.207 184.399 606.604 184.405 604.953C184.62 592.538 186.657 581.638 190.908 569.92C191.705 567.226 192.487 564.527 193.245 561.821C193.772 560.026 194.3 558.231 194.844 556.382C184.704 563.557 175.142 571.208 165.693 579.227C114.293 622.842 114.293 622.842 96.5595 622.554C87.569 621.632 82.0755 617.834 76.1493 611.38C71.841 605.265 70.5209 601.926 70.3683 594.579C70.2922 592.41 70.2922 592.41 70.2146 590.197C71.7472 578.793 78.0705 571.831 86.6042 564.481C88.5373 562.81 90.4704 561.14 92.4621 559.419C99.6938 553.377 107.003 547.443 114.387 541.582C120.611 536.601 126.738 531.516 132.852 526.405C142.395 518.434 152.043 510.604 161.757 502.834C167.918 497.856 174.006 492.799 180.084 487.725C225.566 449.806 225.566 449.806 241.656 449.727Z" fill="#FF6F61"/>
<path d="M557.919 692.992C560.397 692.988 562.876 692.983 565.43 692.977C572.288 692.965 579.145 692.988 586.003 693.017C593.406 693.042 600.81 693.033 608.213 693.029C621.033 693.026 633.852 693.044 646.672 693.077C665.207 693.124 683.742 693.139 702.276 693.146C732.349 693.159 762.422 693.198 792.495 693.253C821.705 693.306 850.914 693.347 880.124 693.371C881.925 693.373 883.726 693.375 885.582 693.376C894.617 693.384 903.653 693.391 912.688 693.398C987.625 693.458 1000.7 694.829 1075.64 694.959C1074.5 701.25 1050.47 703.489 1047.95 709.377C1047.34 710.829 1009.04 710.765 1008.41 712.261C1007.77 713.748 1040.71 716.496 1040.05 718.028C1039.07 720.315 1013.36 713.564 1012.36 715.897C1010.77 719.639 1025.83 720.059 1024.23 723.796C1023 723.799 1033.4 732.443 1032.14 732.447C959.45 732.646 972.662 736.657 899.976 736.879C891.258 736.905 882.54 736.932 873.822 736.958C871.218 736.966 871.218 736.966 868.562 736.974C840.419 737.06 812.277 737.138 784.135 737.214C755.28 737.293 726.426 737.378 697.571 737.47C679.752 737.527 661.932 737.578 644.113 737.622C631.91 737.652 619.708 737.69 607.505 737.733C600.454 737.758 593.054 740.093 586.003 740.106C578.376 740.121 569.881 740.076 562.255 740.106C560.002 740.108 557.058 740.105 554.737 740.106C551.697 740.122 552.199 740.09 549.098 740.106C547.335 740.112 545.41 740.101 543.594 740.106C533.864 740.135 541.203 737.742 539.229 740.106C539.037 744.216 538.983 748.332 538.981 752.447C538.978 753.736 538.974 755.026 538.97 756.355C538.962 759.167 538.958 761.979 538.957 764.792C538.951 770.789 538.909 776.786 538.868 782.784C538.794 793.954 538.732 805.123 538.736 816.294C538.738 824.059 538.691 831.822 538.614 839.587C538.594 842.534 538.591 845.482 538.606 848.43C538.693 867.405 537.411 883.306 524.427 898.281C510.499 911.339 493.006 915.328 474.31 915.241C472.433 915.262 470.556 915.284 468.623 915.306C462.388 915.368 456.155 915.376 449.92 915.383C445.428 915.416 440.936 915.452 436.444 915.49C424.283 915.583 412.122 915.625 399.96 915.652C392.357 915.671 384.755 915.699 377.152 915.73C356.071 915.814 334.989 915.886 313.908 915.905C312.562 915.906 311.216 915.907 309.829 915.909C307.102 915.911 304.374 915.914 301.646 915.916C299.615 915.918 299.615 915.918 297.544 915.92C295.51 915.921 295.51 915.921 293.436 915.923C271.451 915.945 249.468 916.065 227.485 916.228C204.874 916.393 182.264 916.477 159.653 916.484C146.972 916.489 134.295 916.529 121.615 916.653C109.694 916.768 97.7777 916.78 85.8566 916.715C81.4877 916.709 77.1185 916.738 72.7501 916.807C38.0112 917.324 38.0113 917.324 28.994 909.496C24.4876 904.152 21.074 898.977 17.7119 892.893C15.9061 890.623 14.0475 888.391 12.1077 886.23C10.6693 884.52 9.23095 882.81 7.74896 881.047C6.2649 879.287 4.78083 877.527 3.2518 875.714C0 871.619 0 871.619 0 869.685C162.359 869.047 324.718 868.409 491.997 867.751C492.972 800.738 492.972 800.738 493.965 732.37C503.109 714.4 510.187 702.6 528.908 694.928C538.337 692.285 548.191 692.921 557.919 692.992Z" fill="#FF6F61"/>
<path d="M1097.13 516.201C1099.61 516.197 1102.09 516.192 1104.65 516.186C1111.5 516.174 1118.36 516.197 1125.22 516.226C1132.62 516.251 1140.02 516.242 1147.43 516.238C1160.25 516.235 1173.07 516.253 1185.89 516.286C1204.42 516.333 1222.96 516.348 1241.49 516.355C1271.56 516.368 1301.64 516.407 1331.71 516.461C1360.92 516.515 1390.13 516.556 1419.34 516.58C1421.14 516.582 1422.94 516.584 1424.8 516.585C1433.83 516.593 1442.87 516.6 1451.9 516.607C1526.84 516.667 1601.78 516.77 1676.71 516.899C1675.57 523.19 1674.05 528.817 1671.54 534.706C1670.92 536.158 1670.31 537.61 1669.68 539.106C1669.03 540.593 1668.39 542.081 1667.73 543.613C1666.76 545.899 1666.76 545.899 1665.77 548.232C1664.18 551.974 1662.57 555.711 1660.97 559.447C1659.74 559.451 1658.51 559.454 1657.25 559.458C1584.56 559.657 1511.88 559.866 1439.19 560.088C1430.47 560.114 1421.75 560.141 1413.04 560.167C1410.43 560.175 1410.43 560.175 1407.78 560.183C1379.63 560.269 1351.49 560.347 1323.35 560.423C1294.5 560.502 1265.64 560.587 1236.79 560.679C1218.97 560.736 1201.15 560.787 1183.33 560.831C1171.13 560.861 1158.92 560.899 1146.72 560.942C1139.67 560.967 1132.62 560.988 1125.57 561.001C1117.94 561.016 1110.32 561.045 1102.69 561.075C1100.44 561.077 1098.18 561.079 1095.86 561.081C1092.82 561.097 1092.82 561.097 1089.72 561.113C1087.96 561.118 1086.2 561.124 1084.38 561.129C1080.42 560.951 1080.42 560.951 1078.44 563.315C1078.25 567.425 1078.2 571.541 1078.2 575.656C1078.19 576.945 1078.19 578.235 1078.18 579.564C1078.18 582.376 1078.17 585.188 1078.17 588.001C1078.17 593.998 1078.12 599.995 1078.08 605.993C1078.01 617.163 1077.95 628.332 1077.95 639.503C1077.95 647.268 1077.91 655.031 1077.83 662.796C1077.81 665.743 1077.81 668.691 1077.82 671.639C1077.91 690.614 1076.63 706.515 1063.64 721.49C1049.71 734.548 1032.22 738.537 1013.52 738.45C1011.65 738.471 1009.77 738.493 1007.84 738.515C1001.6 738.577 995.369 738.585 989.134 738.592C984.643 738.625 980.151 738.661 975.659 738.699C963.498 738.792 951.337 738.834 939.175 738.861C931.572 738.88 923.97 738.908 916.367 738.939C895.285 739.023 874.204 739.095 853.122 739.114C851.777 739.115 850.431 739.116 849.044 739.118C846.317 739.12 843.589 739.123 840.861 739.125C838.83 739.127 838.83 739.127 836.758 739.129C834.725 739.13 834.725 739.13 832.651 739.132C810.666 739.154 788.683 739.274 766.699 739.437C744.089 739.602 721.479 739.686 698.868 739.693C686.187 739.698 673.509 739.738 660.83 739.862C648.909 739.977 636.993 739.989 625.071 739.924C620.703 739.918 616.333 739.947 611.965 740.016C577.226 740.533 577.226 740.533 568.209 732.705C563.702 727.361 560.289 722.186 556.927 716.102C555.121 713.832 553.262 711.6 551.323 709.439C549.884 707.729 548.446 706.019 546.964 704.256C545.48 702.496 543.996 700.736 542.467 698.923C539.215 694.828 539.215 694.828 539.215 692.894C701.574 692.256 863.933 691.618 1031.21 690.96C1032.19 623.947 1032.19 623.947 1033.18 555.579C1042.32 537.609 1049.4 525.809 1068.12 518.137C1077.55 515.494 1087.41 516.13 1097.13 516.201Z" fill="#FF6F61"/>
<path d="M276.432 124.002C289.084 132.855 297.145 143.235 303.983 156.88C305.221 156.768 306.459 156.655 307.735 156.54C321.119 155.846 329.1 158.105 339.407 166.55C348.204 174.53 348.75 182.402 349.247 193.626C351.195 192.988 353.144 192.349 355.151 191.692C368.967 190.334 379.874 194.218 390.69 202.548C401.682 212.676 404.469 221.231 405.089 235.932C404.817 248.617 402.092 257.119 393.442 266.567C380.647 278.336 366.577 281.537 349.555 281.407C347.061 281.422 347.061 281.422 344.516 281.438C339.064 281.463 333.613 281.447 328.16 281.427C324.343 281.431 320.525 281.437 316.707 281.444C308.722 281.452 300.737 281.44 292.753 281.413C282.553 281.38 272.355 281.399 262.156 281.434C254.276 281.455 246.397 281.448 238.517 281.433C234.758 281.429 230.999 281.434 227.24 281.447C221.971 281.462 216.704 281.439 211.435 281.407C209.904 281.419 208.373 281.431 206.795 281.443C192.537 281.283 177.648 278.204 166.916 268.335C157.127 256.741 152.782 244.638 153.601 229.609C155.73 216.447 162.116 207.92 172.659 199.791C180.339 194.611 186.491 193.106 195.744 193.626C194.77 190.874 194.77 190.874 193.776 188.066C189.046 171.325 191.319 156.612 199.68 141.408C207.575 129.286 219.101 121.267 233.105 117.013C248.782 114.058 262.524 116.386 276.432 124.002Z" fill="#FF6F61"/>
<path d="M555.646 7.02221C561.579 12.3107 567.091 17.7579 571.39 24.4283C571.39 26.343 571.39 28.2576 571.39 30.2303C572.532 30.1406 573.673 30.0508 574.849 29.9584C585.991 29.4525 592.12 30.5626 600.91 37.9664C605.977 42.9459 606.764 44.8459 607.183 51.988C607 54.6206 607 54.6206 606.814 57.3065C608.075 57.2167 609.335 57.127 610.634 57.0345C623.145 56.5215 630.219 57.5362 640.27 65.0425C647.117 72.6571 649.725 79.6265 650.425 89.5954C649.774 98.7984 645.712 106.024 639.216 112.569C630.159 120.202 625.155 121.379 613.408 121.471C612.063 121.484 610.719 121.497 609.334 121.51C604.875 121.548 600.417 121.57 595.959 121.59C594.436 121.598 592.913 121.605 591.343 121.614C583.278 121.654 575.213 121.682 567.147 121.7C558.827 121.721 550.507 121.788 542.187 121.864C535.781 121.915 529.376 121.931 522.97 121.938C519.904 121.948 516.838 121.97 513.772 122.006C509.471 122.053 505.172 122.051 500.871 122.038C498.427 122.049 495.983 122.06 493.464 122.072C483.267 120.636 475.792 115.32 469.424 107.47C463.749 99.9818 462.334 94.0886 462.474 84.7528C464.165 74.1617 470.724 66.8153 479.017 60.3284C483.747 57.8561 487.42 56.1663 492.67 55.3725C492.021 53.4578 491.372 51.5431 490.702 49.5704C489.164 37.0007 490.917 26.9982 498.574 16.6923C513.66 0.985857 535.753 -6.47605 555.646 7.02221Z" fill="#FF6F61"/>
<path d="M857.426 72.281C874.113 84.0445 885.376 99.3585 889.529 119.302C891.399 139.451 886.326 157.389 873.785 173.454C861.431 187.97 845.385 197.301 825.969 199.246C803.357 199.497 786.226 194.576 769.481 179.256C754.096 163.016 748.426 145.849 749.179 123.804C750.918 105.823 758.654 90.2899 772.472 78.2266C798.799 58.4332 828.452 54.5993 857.426 72.281Z" fill="#FF6F61"/>
<path d="M328.659 322.364C343.147 332.235 350.66 342.747 356.21 359.11C357.789 380.09 356.461 397.69 343.049 414.834C336.181 422.098 327.897 426.526 318.819 430.669C317.266 431.379 315.713 432.09 314.114 432.822C299.219 437.796 282.303 435.764 268.212 429.369C251.881 420.042 242.173 407.599 236.163 390.054C234.094 369.362 236.413 352.832 248.34 335.419C271.095 313.554 299.779 307.239 328.659 322.364Z" fill="#FF6F61"/>
<path d="M1123.91 459V372.455H1158.05C1164.62 372.455 1170.21 373.708 1174.83 376.216C1179.45 378.695 1182.97 382.146 1185.39 386.569C1187.84 390.964 1189.07 396.035 1189.07 401.782C1189.07 407.529 1187.83 412.6 1185.35 416.995C1182.87 421.39 1179.28 424.813 1174.57 427.264C1169.9 429.715 1164.24 430.94 1157.59 430.94H1135.82V416.277H1154.63C1158.15 416.277 1161.05 415.671 1163.33 414.46C1165.64 413.22 1167.36 411.516 1168.49 409.346C1169.64 407.149 1170.22 404.627 1170.22 401.782C1170.22 398.908 1169.64 396.401 1168.49 394.26C1167.36 392.091 1165.64 390.414 1163.33 389.231C1161.02 388.02 1158.09 387.414 1154.54 387.414H1142.2V459H1123.91ZM1200.95 459V372.455H1235.1C1241.64 372.455 1247.21 373.624 1251.83 375.962C1256.48 378.272 1260.02 381.554 1262.44 385.808C1264.89 390.034 1266.12 395.007 1266.12 400.725C1266.12 406.473 1264.88 411.417 1262.4 415.558C1259.92 419.671 1256.33 422.827 1251.62 425.024C1246.95 427.222 1241.28 428.32 1234.63 428.32H1211.77V413.614H1231.68C1235.17 413.614 1238.07 413.135 1240.38 412.178C1242.69 411.22 1244.41 409.783 1245.54 407.867C1246.69 405.951 1247.27 403.571 1247.27 400.725C1247.27 397.852 1246.69 395.429 1245.54 393.457C1244.41 391.485 1242.68 389.992 1240.34 388.978C1238.03 387.935 1235.11 387.414 1231.59 387.414H1219.25V459H1200.95ZM1247.69 419.615L1269.2 459H1249L1227.96 419.615H1247.69ZM1293.97 459H1274.36L1304.23 372.455H1327.81L1357.65 459H1338.04L1316.36 392.232H1315.69L1293.97 459ZM1292.74 424.982H1339.06V439.265H1292.74V424.982ZM1421.39 400.43C1420.79 398.373 1419.96 396.556 1418.89 394.978C1417.82 393.373 1416.51 392.02 1414.96 390.922C1413.44 389.795 1411.69 388.935 1409.72 388.344C1407.78 387.752 1405.62 387.456 1403.26 387.456C1398.83 387.456 1394.95 388.555 1391.59 390.752C1388.27 392.95 1385.68 396.147 1383.82 400.345C1381.96 404.515 1381.03 409.614 1381.03 415.643C1381.03 421.672 1381.94 426.799 1383.78 431.025C1385.61 435.251 1388.2 438.476 1391.55 440.702C1394.9 442.9 1398.86 443.998 1403.43 443.998C1407.57 443.998 1411.1 443.266 1414.03 441.801C1416.99 440.308 1419.24 438.209 1420.79 435.504C1422.37 432.8 1423.16 429.602 1423.16 425.912L1426.88 426.461H1404.57V412.685H1440.78V423.587C1440.78 431.194 1439.18 437.73 1435.96 443.195C1432.75 448.633 1428.33 452.83 1422.7 455.788C1417.06 458.718 1410.61 460.183 1403.34 460.183C1395.23 460.183 1388.1 458.394 1381.96 454.816C1375.82 451.21 1371.03 446.097 1367.59 439.477C1364.18 432.828 1362.48 424.94 1362.48 415.812C1362.48 408.797 1363.49 402.543 1365.52 397.049C1367.58 391.527 1370.45 386.851 1374.14 383.019C1377.83 379.188 1382.13 376.272 1387.03 374.272C1391.93 372.271 1397.24 371.271 1402.96 371.271C1407.86 371.271 1412.43 371.99 1416.65 373.426C1420.88 374.835 1424.63 376.835 1427.89 379.427C1431.19 382.019 1433.88 385.104 1435.96 388.682C1438.05 392.232 1439.39 396.147 1439.98 400.43H1421.39ZM1466.77 459H1447.16L1477.04 372.455H1500.62L1530.45 459H1510.85L1489.17 392.232H1488.49L1466.77 459ZM1465.55 424.982H1511.86V439.265H1465.55V424.982ZM1527 387.541V372.455H1598.08V387.541H1571.58V459H1553.5V387.541H1527ZM1628.08 372.455V459H1609.78V372.455H1628.08Z" fill="#FF6F61"/>
</svg>
